<?xml version="1.0" encoding="UTF-8"?>
<svg xmlns="http://www.w3.org/2000/svg" xmlns:xlink="http://www.w3.org/1999/xlink" width="720" height="360" viewBox="0 0 720 360">
<path fill="none" stroke-width="6.40187" stroke-linecap="butt" stroke-linejoin="round" stroke="rgb(54.509804%, 0%, 0%)" stroke-opacity="1" stroke-miterlimit="10" d="M 196.363281 343.636719 L 199.667969 213.085938 L 202.976562 193.671875 L 206.28125 181.003906 L 209.585938 171.371094 L 212.890625 163.511719 L 216.199219 156.820312 L 219.503906 150.972656 L 222.808594 145.757812 L 226.117188 141.039062 L 229.421875 136.726562 L 232.726562 132.742188 L 236.03125 129.042969 L 239.339844 125.578125 L 242.644531 122.324219 L 245.949219 119.246094 L 249.257812 116.332031 L 252.5625 113.558594 L 255.867188 110.914062 L 259.171875 108.382812 L 262.480469 105.957031 L 265.785156 103.628906 L 269.089844 101.382812 L 272.398438 99.222656 L 275.703125 97.132812 L 279.007812 95.109375 L 282.3125 93.152344 L 285.621094 91.257812 L 288.925781 89.414062 L 292.230469 87.625 L 295.539062 85.882812 L 298.84375 84.183594 L 302.148438 82.53125 L 305.453125 80.921875 L 308.761719 79.347656 L 312.066406 77.8125 L 315.371094 76.308594 L 318.675781 74.839844 L 321.984375 73.402344 L 325.289062 71.996094 L 328.59375 70.617188 L 331.902344 69.265625 L 335.207031 67.9375 L 338.511719 66.636719 L 341.816406 65.363281 L 345.125 64.109375 L 348.429688 62.875 L 351.734375 61.667969 L 355.042969 60.476562 L 358.347656 59.308594 L 361.652344 58.15625 L 364.957031 57.023438 L 368.265625 55.90625 L 371.570312 54.808594 L 374.875 53.726562 L 378.183594 52.660156 L 381.488281 51.609375 L 384.792969 50.574219 L 388.097656 49.554688 L 391.40625 48.546875 L 394.710938 47.554688 L 398.015625 46.574219 L 401.324219 45.605469 L 404.628906 44.648438 L 407.933594 43.707031 L 411.238281 42.777344 L 414.546875 41.855469 L 417.851562 40.945312 L 421.15625 40.046875 L 424.460938 39.160156 L 427.769531 38.285156 L 431.074219 37.414062 L 434.378906 36.558594 L 437.6875 35.710938 L 440.992188 34.871094 L 444.296875 34.039062 L 447.601562 33.21875 L 450.910156 32.40625 L 454.214844 31.601562 L 457.519531 30.804688 L 460.828125 30.019531 L 464.132812 29.238281 L 467.4375 28.464844 L 470.742188 27.699219 L 474.050781 26.941406 L 477.355469 26.191406 L 480.660156 25.449219 L 483.96875 24.710938 L 487.273438 23.984375 L 490.578125 23.261719 L 493.882812 22.542969 L 497.191406 21.832031 L 500.496094 21.128906 L 503.800781 20.429688 L 507.109375 19.738281 L 510.414062 19.050781 L 513.71875 18.371094 L 517.023438 17.695312 L 520.332031 17.027344 L 523.636719 16.363281 "/>
</svg>
