<?xml version="1.0" encoding="UTF-8" standalone="no"?>
<!-- Generator: Adobe Illustrator 27.5.0, SVG Export Plug-In . SVG Version: 6.00 Build 0)  -->

<svg
   version="1.1"
   x="0px"
   y="0px"
   viewBox="0 0 450 450"
   xml:space="preserve"
   id="svg449"
   width="100%"
   height="100%"
   xmlns="http://www.w3.org/2000/svg"
   xmlns:svg="http://www.w3.org/2000/svg"><defs
   id="defs449" />


<g
   id="g449"
   transform="translate(0,0)"><circle
     style="fill:#000000"
     id="path449-84"
     cx="127.17788"
     cy="99.310272"
     r="1.8404771" /><circle
     style="fill:#000000"
     id="path449-63"
     cx="146.21387"
     cy="97.599472"
     r="1.8404771" /><circle
     style="fill:#000000"
     id="path449-88"
     cx="147.79227"
     cy="86.695877"
     r="1.8404771" /><circle
     style="fill:#000000"
     id="path449-9"
     cx="150.78006"
     cy="67.11747"
     r="1.8404771" /><circle
     style="fill:#000000"
     id="path449-35"
     cx="153.87646"
     cy="49.960655"
     r="1.8404771" /><circle
     style="fill:#000000"
     id="path449-344"
     cx="105.47726"
     cy="68.874557"
     r="1.8404771" /><circle
     style="fill:#000000"
     id="path449-066"
     cx="118.74408"
     cy="88.647675"
     r="1.8404771" /><circle
     style="fill:#000000"
     id="path449-18"
     cx="113.74408"
     cy="172.79228"
     r="1.8404771" /><circle
     style="fill:#000000"
     id="path449-27"
     cx="119.69588"
     cy="155.26208"
     r="1.8404771" /><circle
     style="fill:#000000"
     id="path449-54"
     cx="125.17788"
     cy="141.50308"
     r="1.8404771" /><circle
     style="fill:#000000"
     id="path449-12"
     cx="129.69586"
     cy="133.45488"
     r="1.8404771" /><circle
     style="fill:#000000"
     id="path449-34"
     cx="64.322479"
     cy="168.58727"
     r="1.8404771" /><circle
     style="fill:#000000"
     id="path449-13"
     cx="89.74408"
     cy="149.55128"
     r="1.8404771" /><circle
     style="fill:#000000"
     id="path449-74"
     cx="110.06927"
     cy="136.69588"
     r="1.8404771" /><circle
     style="fill:#000000"
     id="path449-77"
     cx="120.92467"
     cy="130.45488"
     r="1.8404771" /><circle
     style="fill:#000000"
     id="path449-31"
     cx="117.12968"
     cy="115.26207"
     r="1.8404771" /><circle
     style="fill:#000000"
     id="path449-86"
     cx="105.37068"
     cy="113.69588"
     r="1.8404771" /><circle
     style="fill:#000000"
     id="path449-0"
     cx="80.659889"
     cy="109.50307"
     r="1.8404771" /><circle
     style="fill:#000000"
     id="path449-860"
     cx="56.467083"
     cy="104.55128"
     r="1.8404771" /><circle
     style="fill:#000000"
     id="path449-4"
     cx="23.105259"
     cy="95.454872"
     r="1.8404771" /><circle
     style="fill:#000000"
     id="path449-6"
     cx="1.1537796"
     cy="87.430771"
     r="1.8404771" /><circle
     style="fill:#000000"
     id="path449-09"
     cx="72.129677"
     cy="1.0332804"
     r="1.8404771" /><circle
     style="fill:#000000"
     id="path449-06"
     cx="85.647675"
     cy="33.647675"
     r="1.8404771" /><circle
     style="fill:#000000"
     id="path449-38"
     cx="95.454872"
     cy="52.165668"
     r="1.8404771" /><circle
     style="fill:#000000"
     id="path449-38-6"
     cx="157.99698"
     cy="30.250181"
     r="1.8404771" /><circle
     style="fill:#000000"
     id="path449-11"
     cx="200.20448"
     cy="177.70415"
     r="1.8404771" /><circle
     style="fill:#000000"
     id="path449-5"
     cx="35.84259"
     cy="195.29797"
     r="1.8404771" /><circle
     style="fill:#000000"
     id="path449-1"
     cx="108.84048"
     cy="194.02249"
     r="1.8404771" /><g
     id="Layer_2"
     style="fill:#000000">
	<path
   style="fill:#000000"
   d="m 450,71.254 c -30.307,-4.097 -73.113,-4.393 -112.664,-0.732 -1.708,-20.096 7.404,-49.291 21.973,-58.174 0.109,18.158 6.85,57.027 12.566,57.027 v -1 c -3.975,0 -11.518,-34.898 -11.568,-56.517 10.285,-3.55 19.395,-6.288 27.169,-8.15 0.093,13.27 13.297,65.365 18.088,65.365 l 0.187,-0.824 c -3.245,0 -17.215,-49.213 -17.276,-64.784 4.191,-0.979 7.978,-1.692 11.341,-2.136 0.879,-0.101 10.61,-1.191 11.498,-1.296 h -8.971 c -0.004,0 -0.008,0.001 -0.012,0.001 v 0 c -0.011,0.001 -0.021,0.002 -0.032,0.004 -0.87,0.083 -1.771,0.19 -2.689,0.311 C 307.156,10.993 265.826,0.161 265.415,0.048 l -0.226,-0.015 c -11.549,6.922 -23.224,15.54 -34.648,25.256 -27.539,3.325 -57.632,-4.924 -65.998,-18.07 0.604,-2.188 1.454,-5.024 2.084,-7.204 l -1.031,-0.014 c -2.771,9.594 -5.446,19.626 -7.749,29.57 -18.361,5.503 -56.429,5.887 -72.097,3.221 C 80.409,21.732 75.806,10.429 72.471,0.015 L 71.781,0 C 58.728,41.78 17.168,74.916 0.038,87.016 v 0.719 c 6.644,2.811 14.279,5.557 22.228,8.116 8.61,8.31 15.207,25.995 17.653,47.35 2.354,20.551 0.412,40.601 -5.066,52.356 -11.296,11.971 -22.768,25.779 -34.83,41.912 v 1.281 c 22.72,-21.448 62.353,-30.158 104.712,-22.09 -0.0221,0.0781 0.72075,0.17557 1.037,-0.219 5.431,-9.151 19.871,-19.239 38.66,-26.999 19.706,-8.139 40.362,-12.157 56.664,-11.031 0,0 0.162,0.003 0.326,-0.161 0.164,-0.164 0.209,-0.338 0.209,-0.338 0,-22.278 35.607,-40.403 79.374,-40.403 0,0 0.154,0.028 0.235,-0.031 0.179,-0.129 0.216,-0.254 0.216,-0.254 C 296.386,105.859 359.689,72.266 450,72.266 Z M 231.356,28.24 c 5.646,6.443 33.025,10.287 60.219,10.488 -14.736,6.638 -27.754,12.821 -36.975,17.288 -5.41,2.621 -10.804,5.273 -16.139,7.93 -16.753,-0.032 -30.379,-7.394 -30.558,-16.477 7.42,-7.309 14.891,-14.243 22.399,-20.67 0.231,10.416 12.303,26.734 18.645,32.563 l 0.676,-0.736 C 243.78,53.253 231.88,37.783 231.356,28.24 Z M 113.219,172.753 c -11.694,-6.083 -33.488,-9.083 -47.536,-4.692 7.554,-6.196 15.279,-11.94 23.34,-17.413 l 0.014,0.055 c 8.346,-2.096 23.655,-0.096 29.988,5.19 -1.923,5.306 -3.646,10.654 -5.188,16.027 -0.223,0.272 -0.42,0.553 -0.618,0.833 z m -8.425,-103.96 c -0.032,14.761 -8.38,28.305 -24.812,40.261 -7.916,-1.477 -15.622,-3.079 -23.058,-4.794 15.587,-9.153 38.358,-35.288 38.729,-50.555 2.903,5.069 5.957,10.11 9.141,15.088 z M 81.315,109.3 c 15.663,-11.619 23.869,-24.739 24.426,-39.031 3.968,6.139 8.127,12.174 12.439,18.03 -1.085,8.033 -5.279,15.712 -13.565,24.84 -7.917,-1.156 -15.7,-2.439 -23.3,-3.839 z M 225.97,89.776 c -8.902,2.269 -17.593,4.673 -25.997,7.198 -0.62,-6.041 1.007,-10.99 4.88,-14.699 9.548,-5.042 19.913,-10.374 30.873,-15.854 -6.311,6.617 -9.646,16.284 -9.756,23.355 z M 178.309,78.667 c 0.202,5.888 3.602,10.073 9.47,11.671 -2.914,1.593 -5.734,3.151 -8.439,4.663 l -0.002,-0.003 c -0.006,0.004 -0.012,0.009 -0.018,0.013 -2.428,1.357 -4.765,2.678 -7.003,3.958 -4.72,-0.049 -6.927,-2.836 -7.026,-5.499 4.311,-4.991 8.651,-9.933 13.018,-14.803 z m 20.677,18.607 c -8.321,2.516 -16.361,5.145 -24.044,7.871 0.247,-2.911 1.946,-7.363 4.941,-9.308 l -0.005,-0.008 c 6.758,-3.784 14.294,-7.889 22.463,-12.224 -2.786,3.678 -3.939,8.343 -3.355,13.669 z m -70.815,19.886 c 2.007,0.22 4.02,0.43 6.036,0.633 1.1,1.374 1.18,2.769 1.184,4.232 -1.764,0.939 -3.509,1.875 -5.233,2.809 0,-0.127 0.001,-0.264 0.004,-0.397 0.023,-1.451 0.062,-4.318 -1.991,-7.277 z m 45.748,-11.652 c -3.779,1.351 -7.47,2.725 -11.066,4.119 0.151,-1.376 0.717,-3.754 2.316,-5.351 3.484,-2.063 7.34,-4.291 11.528,-6.659 -1.792,2.527 -2.692,5.749 -2.778,7.891 z m -21.193,2.714 c 1.502,-1.786 3.008,-3.569 4.518,-5.349 1.005,0.922 3.6,1.331 5.864,1.463 -3.355,1.999 -6.29169,3.78059 -8.89869,5.44959 l -0.89295,0.62625 c -2.064,1.339 -4.08336,2.67116 -5.55936,3.74016 1.386,-1.661 2.776,-3.39913 4.169,-5.05713 m -9.439,8.47613 c -1.973,-0.174 -3.942,-0.358 -5.909,-0.55 1.385,-0.832 1.931,-2.055 2.095,-3.577 1.266,1.397 2.537,2.774 3.814,4.127 z m 2.429,-4.986 c 0.474,0.435 1.147,0.809 2.035,0.974 -0.838,1.004 -1.672,2.009 -2.507,3.014 0.156,-1.34 0.314,-2.67 0.472,-3.988 z m 7.805,1.134 c -2.162,0.909 -4.285,1.825 -6.361,2.749 1.556,-1.239 3.72294,-2.82525 6.51994,-4.65725 l 1.22775,-0.82681 c 2.548,-1.641 5.59431,-3.44194 8.95731,-5.45594 -0.82,1.575 -1.191,3.308 -1.249,4.501 -2.751,1.075 -5.42738,2.18644 -8.06138,3.28444 M 143.583,118.947 c 0.527,1.013 1.056,2.018 1.586,3.017 -1.703,-0.293 -3.74,-0.203 -5.501,0.208 1.225,-1.123 2.533,-2.196 3.915,-3.225 z m -5.894,3.747 c -0.176,-0.159 -0.377,-0.31 -0.597,-0.441 0.811,-0.43 1.625,-0.861 2.444,-1.292 -0.635,0.565 -1.249,1.144 -1.847,1.733 z m 8.287,-1.345 c -0.435,-0.82 -0.869,-1.645 -1.302,-2.475 1.144,0.221 2.285,0.441 3.417,0.657 -0.954,0.416 -1.704,1.05 -2.115,1.818 z m 4.23619,-2.39681 c -1.578,-0.3 -3.21219,-0.64819 -4.81419,-0.95719 2.015,-0.907 4.06495,-1.85419 6.17795,-2.75119 l 1.79485,-0.70299 c 2,-0.835 4.2042,-1.73682 6.2842,-2.56182 -2.035,2.25 -3.613,5.406 -3.865,7.988 -1.534,-0.286 -3.079,-0.577 -4.634,-0.871 m -3.434,-6.459 c -1.779,-0.087 -2.607,-1.163 -2.628,-1.526 0.2,-1.645 0.401,-3.277 0.604,-4.893 0.965,1.102 2.815,2.085 5.481,2.291 -1.155,1.374 -2.307,2.751 -3.457,4.128 z m -4.343,4.424 c -1.376,-1.456 -2.747,-2.94 -4.11,-4.447 0.347,0.027 0.76,0.059 1.238,0.059 0.988,0 2.211,-0.14 3.477,-0.703 -0.203,1.681 -0.405,3.377 -0.605,5.091 z m -8.955,-0.251 c -2.023,-0.204 -4.044,-0.413 -6.06,-0.634 2.825,-2.253 4.442,-5.345 4.741,-9.059 1.531,1.791 3.071,3.56 4.623,5.29 -0.027,2.31 -0.602,3.712 -3.304,4.403 z m 7.592,1.722 c -1.9,0.993 -3.777,1.981 -5.632,2.965 -0.025,-1.176 -0.171,-2.374 -0.878,-3.577 2.166,0.214 4.336,0.418 6.51,0.612 z m -6.063,4.327 c 0.337,0.081 0.717,0.277 1.019,0.535 -1.039,1.063 -2.007,2.165 -2.936,3.289 -0.742,-0.61 -1.656,-1.084 -2.685,-1.357 1.518,-0.821 3.054,-1.643 4.602,-2.467 z m 2.036,0.942 c 2.027,-1.013 5.516,-1.308 7.805,-0.67 0.48,0.895 0.964,1.784 1.452,2.668 -4.317,-0.758 -8.555,-0.291 -11.658,0.578 0.762,-0.88 1.568,-1.736 2.401,-2.576 z m 8.647,-1.216 c 0.088,-1.425 -1.51494,-3.84925 3.959,-2.579 0.886,0.168 1.776,0.338 2.655,0.503 -2.572,0.767 -4.615,2.461 -5.313,4.47 -0.436,-0.793 -0.871,-1.591 -1.301,-2.394 z m 18.072,-19.198 c -3.961,-0.018 -6.404,-0.781 -6.828,-1.263 2.167,-2.551 4.341,-5.092 6.523,-7.623 0.499,2.48 2.551,4.822 6.37,5.353 -2.121,1.22 -4.144,2.399 -6.065,3.533 z m -12.712,4.151 c -3.965,-0.072 -6.056,-2.003 -6.078,-3.068 0.241,-1.898 0.485,-3.772 0.73,-5.631 1.494,2.011 5.139,3.451 9.613,3.647 -1.425,1.682 -2.847,3.366 -4.265,5.052 z m -7.868,3.236 c -1.895,1.065 -3.756,0.926 -4.885,0.835 -0.392,-0.032 -0.674,-0.048 -0.9,-0.014 -1.485,-1.658 -2.959,-3.354 -4.425,-5.067 0.667,0.07 1.544,0.133 2.589,0.133 2.255,0 5.242,-0.304 8.308,-1.446 -0.232,1.833 -0.46,3.689 -0.687,5.559 z m -17.211,5.237 c -2.916,-0.326 -5.823,-0.667 -8.716,-1.029 7.561,-4.229 9.102,-10.052 9.322,-14.582 1.535,1.899 3.082,3.776 4.643,5.619 -0.049,4.245 -1.86,7.692 -5.249,9.992 z m 3.037,10.071 c 1.34,0.139 2.555,0.633 3.447,1.368 -1.416,1.777 -2.706,3.622 -3.898,5.515 -2.071,-1.559 -5.177,-2.317 -7.366,-2.581 2.559,-1.432 5.17,-2.866 7.817,-4.302 z m 4.461,1.715 c 3.175,-1.16 8.31,-1.972 13.455,-0.873 0.606,1.083 1.22,2.158 1.844,3.226 -5.76,-0.653 -14.095,0.118 -18.57,2.12 1.013,-1.532 2.102,-3.025 3.271,-4.473 z m 14.266,-1.471 c 0.118,-2.508 3.3,-5.248 7.545,-5.26 1.393,0.259 2.776,0.515 4.151,0.768 -5.104,0.961 -9.116,3.872 -10.04,7.398 -0.558,-0.963 -1.111,-1.931 -1.656,-2.906 z m 8.1,-6.174 c 0.264,-3.159 2.853,-7.455 5.626,-9.254 2.878,-1.116 5.828,-2.221 8.843,-3.315 -4.236,3.723 -7.336,9.168 -7.706,13.813 -2.231,-0.406 -4.486,-0.821 -6.763,-1.244 z m 0.311,-18.645 c -5.517,-0.055 -10.139,-2.17 -10.177,-4.68 0.4,-2.979 0.806,-5.905 1.22,-8.789 2.122,3.332 8.905,5.51 15.588,5.72 -2.218,2.573 -4.429,5.157 -6.631,7.749 z m -12.134,2.584 c -5.526,2.226 -11.041,1.459 -12.019,1.296 -1.586,-1.873 -3.158,-3.78 -4.717,-5.71 0.973,0.095 2.449,0.2 4.262,0.2 3.681,0 8.676,-0.455 13.323,-2.307 -0.286,2.148 -0.569,4.321 -0.849,6.521 z m -28.476,10.671 c -3.583,-0.457 -7.144,-0.941 -10.68,-1.451 7.798,-8.697 11.928,-16.149 13.217,-23.887 2.469,3.324 4.982,6.591 7.537,9.783 -0.025,4.621 -1.157,11.168 -10.074,15.555 z m 10.319,2.242 c 2.428,2.943 2.386,5.845 2.361,7.416 -0.006,0.399 -0.008,0.7 0.027,0.939 -2.72,1.477 -5.398,2.952 -8.027,4.425 0.615,-4.495 -0.659,-9.533 -3.515,-13.864 3.038,0.382 6.091,0.742 9.154,1.084 z m -6.235,14.266 c 2.234,0.018 6.182,0.832 8.408,2.547 -1.448,2.376 -2.748,4.821 -3.935,7.308 -4.185,-2.878 -9.21,-4.619 -13.441,-4.698 2.933,-1.725 5.923,-3.442 8.968,-5.157 z m 9.436,2.791 c 3.223,-2.418 13.375,-3.826 20.354,-2.822 1.125,1.893 2.288,3.763 3.503,5.612 -8.909,-1.256 -20.232,0.359 -27.527,3.902 1.115,-2.279 2.329,-4.517 3.67,-6.692 z m 21.135,-3.468 c 0.152,-4.406 5.961,-8.096 12.837,-8.105 3.483,0.63 6.917,1.238 10.306,1.826 -10.455,1.073 -18.586,5.804 -19.791,11.671 -1.161,-1.777 -2.273,-3.574 -3.352,-5.392 z m 13.401,-9.019 c 0.374,-5.216 4.631,-11.784 9.868,-15.125 6.867,-2.436 14.06,-4.809 21.524,-7.102 -7.384,5.368 -13.242,13.649 -17.457,24.671 -4.564,-0.775 -9.203,-1.589 -13.935,-2.444 z M 189.092,89.62 c -6.322,-1.307 -9.804,-5.384 -9.804,-11.503 h -0.484 c 4.317,-4.808 8.659,-9.545 13.024,-14.179 -0.285,8.341 4.24,15.5 11.432,18.077 -4.913,2.6 -9.654,5.145 -14.168,7.605 z m -24.525,3.158 c -8.436,-0.055 -16.064,-3.304 -16.123,-6.883 0.87,-5.966 1.771,-11.742 2.711,-17.355 3.357,4.575 12.261,9.08 22.117,9.08 1.646,0 3.318,-0.13 4.995,-0.402 -4.596,5.114 -9.165,10.31 -13.7,15.56 z m -18.61,3.665 c -7.83,3.329 -17.202,2.309 -18.632,2.126 -2.534,-3.166 -5.027,-6.406 -7.476,-9.703 1.514,0.212 4.333,0.517 8.051,0.517 5.149,0 12.009,-0.602 19.439,-2.836 -0.468,3.243 -0.93,6.535 -1.382,9.896 z m -29.647,19.305 c 3.249,4.534 4.633,9.979 3.733,14.669 -3.214,1.811 -6.366,3.624 -9.456,5.447 1.915,-7.346 -0.561,-16.686 -4.463,-21.496 3.374,0.483 6.771,0.944 10.186,1.38 z m -6.525,21.754 v 0.003 c 4.369,-0.499 10.139,1.283 14.814,4.542 -1.858,3.997 -3.454,8.084 -4.955,12.127 -0.088,0.236 -0.169,0.474 -0.256,0.711 -6.159,-4.844 -19.631,-6.914 -28.336,-5.596 6.031,-4.035 12.256,-7.938 18.733,-11.787 z m 15.819,4.752 c 7.258,-4.007 19.661,-5.84 28.998,-4.287 2.007,2.985 4.169,5.918 6.547,8.812 -12.575,-1.677 -32.311,2.047 -40.488,7.533 1.497,-4.023 3.086,-8.088 4.943,-12.058 z m 29.737,-4.988 c 0.233,-6.734 10.644,-12.176 23.42,-12.184 5.254,0.891 10.412,1.732 15.503,2.526 -17.492,1.303 -31.169,9.003 -32.368,18.495 -2.383,-2.902 -4.546,-5.843 -6.555,-8.837 z m 24.138,-13.076 c 4.664,-12.106 11.337,-20.806 19.846,-25.876 7.556,-2.271 15.376,-4.458 23.406,-6.544 -13.442,8.741 -19.652,23.378 -23.553,35.582 -6.453,-0.978 -12.997,-2.028 -19.699,-3.162 z m 58.684,-58.72 c 1.21,7.421 15.507,13.238 34.272,14.106 -15.512,2.877 -30.768,6.223 -45.457,9.943 0.202,-7.462 4.032,-17.758 11.185,-24.049 z m 0.928,-0.727 c 5.197,-2.585 10.52,-5.198 15.945,-7.827 12.443,-6.028 24.395,-11.628 35.784,-16.78 -9.141,9.002 -15.606,28.39 -14.085,38.55 -20.556,-0.115 -37.223,-6.297 -37.644,-13.943 z m -34.609,16.625 c -7.629,-2.237 -12.37,-9.823 -11.588,-18.557 4.667,-4.933 9.358,-9.749 14.071,-14.414 0.987,8.847 13.708,15.946 29.57,16.51 -11.117,5.556 -21.942,11.121 -32.053,16.461 z M 179.362,76 c -12.236,2.54 -24.912,-3.459 -27.962,-8.9 0.911,-5.379 1.858,-10.616 2.848,-15.734 4.966,7.229 18.196,12.34 30.907,12.34 1.987,0 3.961,-0.132 5.89,-0.393 -3.914,4.155 -7.809,8.391 -11.683,12.687 z m -29.01,-8.774 c 0.002,0.005 0.006,0.011 0.009,0.017 -0.995,5.887 -1.948,11.948 -2.864,18.222 -14.49,4.476 -26.837,2.551 -28.501,2.258 -4.373,-5.937 -8.589,-12.058 -12.606,-18.286 2.046,0.368 6.667,1.02 13.759,1.02 7.425,0 17.545,-0.72 30.203,-3.231 z m -45.766,46.919 c 4.272,4.348 7.216,14.945 4.739,22.467 -6.724,3.993 -13.177,8.044 -19.422,12.24 2.313,-8.167 2.106,-27.575 -8.245,-38.472 7.481,1.371 15.141,2.629 22.928,3.765 z m 15.458,41.867 c 7.243,-6.019 29.114,-10.222 42.063,-8.077 2.878,3.405 6.085,6.757 9.723,10.08 -16.883,-2.216 -45.663,1.969 -56.496,12.316 1.416,-4.799 2.986,-9.576 4.71,-14.319 z m 42.768,-8.801 c 0.257,-10.383 16.601,-18.791 36.672,-18.801 4.75,0.718 9.455,1.398 14.135,2.041 -22.317,1.547 -39.843,13.057 -40.726,27.175 -3.791,-3.433 -7.111,-6.896 -10.081,-10.415 z m 37.368,-19.707 c 4.124,-12.86 10.845,-28.406 25.997,-36.622 13.806,-3.511 28.2,-6.717 42.914,-9.532 -33.686,11.864 -44.898,28.182 -50.666,48.74 -6.04,-0.801 -12.104,-1.661 -18.245,-2.586 z m 77.554,-48.892 c -1.645,-10.563 5.681,-31.538 15.594,-39.369 0.018,9.735 0.292,18.852 0.783,25.757 0.475,6.672 1.006,9.478 1.483,10.661 -2.451,0.375 -4.905,0.758 -7.366,1.159 -3.506,0.573 -7.005,1.171 -10.494,1.792 z M 192.156,62.136 c -14.688,2.485 -32.598,-3.386 -37.628,-12.206 1.234,-6.307 2.534,-12.441 3.908,-18.459 5.008,9.207 24.512,16.653 42.554,16.653 1.707,0 3.394,-0.088 5.061,-0.226 -4.655,4.612 -9.287,9.368 -13.895,14.238 z M 153.47,50.085 c 0.002,0.003 0.004,0.006 0.005,0.01 -1.023,5.244 -2.002,10.609 -2.941,16.125 l -0.009,-0.046 c -27.421,5.494 -42.868,2.536 -44.878,2.099 -3.34,-5.222 -6.536,-10.515 -9.563,-15.835 2.408,0.339 8.803,1.083 18.555,1.083 9.8,0 22.976,-0.756 38.831,-3.436 z M 55.492,103.931 C 44.393,101.338 33.926,98.492 24.289,95.446 47.46,88.529 80.018,52.169 85.493,34.566 c 2.811,5.749 5.86,11.525 9.104,17.274 l -0.006,10e-4 c 1.757,14.82 -23.047,43.219 -39.099,52.09 z m 24.418,6.125 c 11.698,10.932 11.377,32.454 8.645,39.697 -8.322,5.646 -16.286,11.579 -24.073,17.997 5.354,-15.273 4.989,-45.267 -7.664,-62.49 7.448,1.715 15.165,3.319 23.092,4.796 z m -16.428,59.815 0.014,0.034 c 13.709,-5.632 37.513,-2.571 49.636,3.928 l 0.236,-0.441 0.041,0.027 c -1.893,6.749 -3.506,13.534 -4.879,20.319 -28.76,-6.921 -51.246,-3.305 -71.749,1.246 8.856,-9.295 17.665,-17.56 26.701,-25.113 z m 51.257,2.53 c 9.572,-11.476 41.298,-15.945 58.431,-13.18 3.246,2.873 6.827,5.727 10.829,8.574 -27.053,-3.186 -61.572,8.222 -74.122,24.357 1.378,-6.598 2.987,-13.192 4.862,-19.751 z m 59.118,-13.915 c 0.226,-15.031 20.273,-27.218 44.893,-27.218 v -0.128 c 6.307,0.833 12.592,1.603 18.918,2.318 -28.855,2.018 -51.415,16.484 -52.197,34.142 -4.319,-3.026 -8.162,-6.058 -11.614,-9.114 z m 70.416,-25.307 c -8.343,-0.891 -16.579,-1.871 -24.847,-2.958 6.082,-21.558 18.32,-38.383 57.063,-50.247 16.885,-3.057 34.122,-5.584 51.318,-7.452 -41.207,9.969 -71.372,31.764 -83.534,60.657 z M 336.34,70.612 c -12.987,1.222 -26.272,2.858 -39.722,4.894 -0.974,-1.341 -2.281,-14.631 -2.293,-36.947 23.37,-10.486 44.257,-19.006 61.929,-25.282 C 342.875,23.99 334.709,51.413 336.34,70.612 Z M 387.462,2.659 c -8.383,1.988 -17.871,4.896 -27.895,8.379 l -0.007,-0.012 c -0.017,0.01 -0.035,0.022 -0.054,0.032 -21.337,7.417 -45.084,17.425 -65.73,26.681 -36.988,-0.005 -61.944,-6.063 -62.471,-11.79 11.102,-9.432 22.281,-17.747 33.492,-24.535 0.176,14.747 19.244,32.461 28.995,37.475 L 294.25,38 c -9.436,-4.851 -28.332,-22.354 -28.457,-36.828 3.597,0.852 22.456,4.855 58.85,4.855 17.022,10e-4 37.898,-0.882 62.819,-3.368 z M 218.123,27.023 c 3.692,0 7.401,-0.199 11.073,-0.587 -7.391,6.348 -14.745,13.178 -22.048,20.374 -19.904,2.079 -44.175,-6.407 -48.354,-16.907 1.681,-7.265 3.475,-14.367 5.399,-21.407 7.794,11.034 30.51,18.527 53.93,18.527 z m -106.647,8.37 c 16.236,0 34.714,-1.42 46.114,-4.711 -1.379,6.01 -2.682,12.136 -3.92,18.43 l -0.012,-0.071 c -33.921,5.778 -55.531,2.717 -58.199,2.293 -3.275,-5.805 -6.349,-11.636 -9.18,-17.44 6.098,0.963 15.217,1.499 25.197,1.499 z M 72.123,2.112 c 3.294,10.026 7.605,20.511 12.724,31.11 -4.345,16.881 -39.345,56 -62.291,61.673 C 14.969,92.452 7.925,89.88 1.527,87.207 18.945,74.804 58.684,42.921 72.123,2.112 Z m -47.869,94.37 c 9.6,3.026 20.018,5.853 31.055,8.431 13.427,17.132 13.485,49.738 7.624,64.108 -8.836,7.38 -17.457,15.436 -26.113,24.466 C 46.727,168.2 42.117,115.926 24.254,96.482 Z M 3.855,234.033 c 10.936,-14.393 21.356,-26.797 31.689,-37.749 20.789,-4.673 43.538,-8.611 72.785,-1.567 -1.393,6.999 -2.531,13.995 -3.466,20.95 -40.444,-7.692 -77.697,-0.834 -101.008,18.366 z m 102.23,-19.903 c 0.905,-6.509 1.992,-13.05 3.302,-19.592 11.34,-17.21 48.385,-29.587 76.378,-25.511 4.002,2.761 8.412,5.519 13.289,8.285 -34.958,-1.501 -80.093,18.651 -92.969,36.818 z m 94.586,-37.052 c -5.256,-2.939 -9.973,-5.867 -14.229,-8.799 0.244,-18.796 26.192,-34.047 58.077,-34.068 8.923,0.95 17.975,1.801 27.336,2.575 -39.497,2.316 -70.376,19.434 -71.184,40.292 z m 80.036,-40.594 c -12.268,-0.935 -23.938,-1.983 -35.39,-3.194 12.949,-30.423 46.171,-52.871 91.321,-61.673 34.829,-3.321 75.171,-3.679 105.748,-0.284 -86.095,1.821 -146.822,34.486 -161.679,65.151 z"
   id="path1" />
	
<circle
   style="fill:#000000"
   id="path449"
   cx="105.24802"
   cy="215.81299"
   r="1.8404771" /><circle
   style="fill:#000000"
   id="path449-2"
   cx="1.5376205"
   cy="236.43149"
   r="1.8404771" /></g><circle
     style="fill:#000000"
     id="path449-3"
     cx="172.59947"
     cy="158.08148"
     r="1.8404771" /><circle
     style="fill:#000000"
     id="path449-21"
     cx="161.64767"
     cy="146.88869"
     r="1.8404771" /><circle
     style="fill:#000000"
     id="path449-8"
     cx="154.45486"
     cy="136.97287"
     r="1.8404771" /><circle
     style="fill:#000000"
     id="path449-7"
     cx="150.11746"
     cy="130.26208"
     r="1.8404771" /><circle
     style="fill:#000000"
     id="path449-14"
     cx="185.20164"
     cy="168.08084"
     r="1.8404771" /><circle
     style="fill:#000000"
     id="path449-38-61"
     cx="164.02107"
     cy="7.6235752"
     r="1.8404771" /><circle
     style="fill:#000000"
     id="path449-38-4"
     cx="230.15881"
     cy="26.11314"
     r="1.8404771" /><circle
     style="fill:#000000"
     id="path449-38-0"
     cx="265.13635"
     cy="0.86366868"
     r="1.8404771" /><circle
     style="fill:#000000"
     id="path449-38-7"
     cx="293.13635"
     cy="38.635979"
     r="1.8404771" /><circle
     style="fill:#000000"
     id="path449-38-72"
     cx="359.45538"
     cy="12.022488"
     r="1.8404771" /><circle
     style="fill:#000000"
     id="path449-38-01"
     cx="387.88757"
     cy="2.6605794"
     r="1.8404771" /><circle
     style="fill:#000000"
     id="path449-38-5"
     cx="404.90866"
     cy="68.295853"
     r="1.8404771" /><circle
     style="fill:#000000"
     id="path449-38-54"
     cx="370.95361"
     cy="68.772308"
     r="1.8404771" /><circle
     style="fill:#000000"
     id="path449-38-2"
     cx="336.74911"
     cy="70.977516"
     r="1.8404771" /><circle
     style="fill:#000000"
     id="path449-38-014"
     cx="296.1297"
     cy="75.82827"
     r="1.8404771" /><circle
     style="fill:#000000"
     id="path449-38-07"
     cx="276.92404"
     cy="78.82827"
     r="1.8404771" /><circle
     style="fill:#000000"
     id="path449-38-77"
     cx="248.79623"
     cy="59.037094"
     r="1.8404771" /><circle
     style="fill:#000000"
     id="path449-38-73"
     cx="237.63737"
     cy="64.988403"
     r="1.8404771" /><circle
     style="fill:#000000"
     id="path449-38-59"
     cx="206.69571"
     cy="47.719818"
     r="1.8404771" /><circle
     style="fill:#000000"
     id="path449-38-8"
     cx="191.86426"
     cy="63.057056"
     r="1.8404771" /><circle
     style="fill:#000000"
     id="path449-38-82"
     cx="178.44267"
     cy="77.599472"
     r="1.8404771" /><circle
     style="fill:#000000"
     id="path449-38-60"
     cx="163.99666"
     cy="94.033279"
     r="1.8404771" /><circle
     style="fill:#000000"
     id="path449-38-80"
     cx="203.28712"
     cy="82.213226"
     r="1.8404771" /><circle
     style="fill:#000000"
     id="path449-38-25"
     cx="188.06927"
     cy="90.021065"
     r="1.8404771" /><circle
     style="fill:#000000"
     id="path449-38-9"
     cx="177.98509"
     cy="96.105255"
     r="1.8404771" /><circle
     style="fill:#000000"
     id="path449-38-78"
     cx="171.56285"
     cy="99.527496"
     r="1.8404771" /><circle
     style="fill:#000000"
     id="path449-38-51"
     cx="199.36331"
     cy="97.56781"
     r="1.8404771" /><circle
     style="fill:#000000"
     id="path449-38-016"
     cx="226.13632"
     cy="89.976807"
     r="1.8404771" /><circle
     style="fill:#000000"
     id="path449-38-06"
     cx="280.57941"
     cy="136.74983"
     r="1.8404771" /><circle
     style="fill:#000000"
     id="path449-38-89"
     cx="244.60188"
     cy="133.32924"
     r="1.8404771" /><circle
     style="fill:#000000"
     id="path449-38-41"
     cx="218.56781"
     cy="130.29515"
     r="1.8404771" /><circle
     style="fill:#000000"
     id="path449-38-3"
     cx="199.1929"
     cy="127.53373"
     r="1.8404771" /><circle
     style="fill:#000000"
     id="path449-38-88"
     cx="178.77232"
     cy="124.26107"
     r="1.8404771" /><circle
     style="fill:#000000"
     id="path449-38-87"
     cx="163.53444"
     cy="121.57941"
     r="1.8404771" /><circle
     style="fill:#000000"
     id="path449-38-83"
     cx="174.2045"
     cy="105.70485"
     r="1.8404771" /><circle
     style="fill:#000000"
     id="path449-38-37"
     cx="163.73824"
     cy="104.29515"
     r="1.8404771" /><circle
     style="fill:#000000"
     id="path449-38-073"
     cx="157.12474"
     cy="102.12473"
     r="1.8404771" /><circle
     style="fill:#000000"
     id="path449-38-96"
     cx="145.52214"
     cy="104.6019"
     r="1.8404771" /><circle
     style="fill:#000000"
     id="path449-38-1"
     cx="132.94273"
     cy="105.9884"
     r="1.8404771" /><circle
     style="fill:#000000"
     id="path449-38-99"
     cx="127.51125"
     cy="116.36332"
     r="1.8404771" /><circle
     style="fill:#000000"
     id="path449-38-834"
     cx="130.07907"
     cy="124.92023"
     r="1.8404771" /><circle
     style="fill:#000000"
     id="path449-38-49"
     cx="134.18202"
     cy="127.03409"
     r="1.8404771" /><circle
     style="fill:#000000"
     id="path449-38-255"
     cx="147.64688"
     cy="125.64758"
     r="1.8404771" /><circle
     style="fill:#000000"
     id="path449-38-33"
     cx="155.87527"
     cy="120.12473"
     r="1.8404771" /><circle
     style="fill:#000000"
     id="path449-38-43"
     cx="161.95433"
     cy="110.13633"
     r="1.8404771" /><circle
     style="fill:#000000;stroke-width:4.26055"
     id="path449-38-08"
     cx="141.21358"
     cy="116.91214"
     r="7.8414412" /><circle
     style="fill:#000000"
     id="path449-38-068"
     cx="151.57423"
     cy="107.69429"
     r="1.8404771" /></g></svg>
