<?xml version="1.0" encoding="UTF-8"?>
<svg xmlns="http://www.w3.org/2000/svg" xmlns:xlink="http://www.w3.org/1999/xlink" width="720" height="360" viewBox="0 0 720 360">
<path fill-rule="nonzero" fill="rgb(26.27451%, 14.509804%, 20.392157%)" fill-opacity="1" d="M 214.839844 325.160156 L 226.453125 325.160156 L 226.453125 313.546875 L 214.839844 313.546875 Z M 214.839844 325.160156 "/>
<path fill-rule="nonzero" fill="rgb(26.27451%, 14.509804%, 20.392157%)" fill-opacity="1" d="M 214.839844 313.546875 L 226.453125 313.546875 L 226.453125 301.933594 L 214.839844 301.933594 Z M 214.839844 313.546875 "/>
<path fill-rule="nonzero" fill="rgb(26.27451%, 14.509804%, 20.392157%)" fill-opacity="1" d="M 214.839844 301.933594 L 226.453125 301.933594 L 226.453125 290.320312 L 214.839844 290.320312 Z M 214.839844 301.933594 "/>
<path fill-rule="nonzero" fill="rgb(26.27451%, 14.509804%, 20.392157%)" fill-opacity="1" d="M 214.839844 290.324219 L 226.453125 290.324219 L 226.453125 278.710938 L 214.839844 278.710938 Z M 214.839844 290.324219 "/>
<path fill-rule="nonzero" fill="rgb(26.27451%, 14.509804%, 20.392157%)" fill-opacity="1" d="M 214.839844 278.710938 L 226.453125 278.710938 L 226.453125 267.097656 L 214.839844 267.097656 Z M 214.839844 278.710938 "/>
<path fill-rule="nonzero" fill="rgb(26.27451%, 14.509804%, 20.392157%)" fill-opacity="1" d="M 214.839844 267.097656 L 226.453125 267.097656 L 226.453125 255.484375 L 214.839844 255.484375 Z M 214.839844 267.097656 "/>
<path fill-rule="nonzero" fill="rgb(26.27451%, 14.509804%, 20.392157%)" fill-opacity="1" d="M 214.839844 255.484375 L 226.453125 255.484375 L 226.453125 243.871094 L 214.839844 243.871094 Z M 214.839844 255.484375 "/>
<path fill-rule="nonzero" fill="rgb(26.27451%, 14.509804%, 20.392157%)" fill-opacity="1" d="M 214.839844 232.257812 L 226.453125 232.257812 L 226.453125 220.644531 L 214.839844 220.644531 Z M 214.839844 232.257812 "/>
<path fill-rule="nonzero" fill="rgb(26.27451%, 14.509804%, 20.392157%)" fill-opacity="1" d="M 214.839844 220.644531 L 226.453125 220.644531 L 226.453125 209.03125 L 214.839844 209.03125 Z M 214.839844 220.644531 "/>
<path fill-rule="nonzero" fill="rgb(26.27451%, 14.509804%, 20.392157%)" fill-opacity="1" d="M 214.839844 209.03125 L 226.453125 209.03125 L 226.453125 197.417969 L 214.839844 197.417969 Z M 214.839844 209.03125 "/>
<path fill-rule="nonzero" fill="rgb(26.27451%, 14.509804%, 20.392157%)" fill-opacity="1" d="M 214.839844 197.417969 L 226.453125 197.417969 L 226.453125 185.804688 L 214.839844 185.804688 Z M 214.839844 197.417969 "/>
<path fill-rule="nonzero" fill="rgb(26.27451%, 14.509804%, 20.392157%)" fill-opacity="1" d="M 214.839844 174.195312 L 226.453125 174.195312 L 226.453125 162.582031 L 214.839844 162.582031 Z M 214.839844 174.195312 "/>
<path fill-rule="nonzero" fill="rgb(26.27451%, 14.509804%, 20.392157%)" fill-opacity="1" d="M 214.839844 162.582031 L 226.453125 162.582031 L 226.453125 150.96875 L 214.839844 150.96875 Z M 214.839844 162.582031 "/>
<path fill-rule="nonzero" fill="rgb(26.27451%, 14.509804%, 20.392157%)" fill-opacity="1" d="M 214.839844 150.96875 L 226.453125 150.96875 L 226.453125 139.355469 L 214.839844 139.355469 Z M 214.839844 150.96875 "/>
<path fill-rule="nonzero" fill="rgb(26.27451%, 14.509804%, 20.392157%)" fill-opacity="1" d="M 214.839844 139.355469 L 226.453125 139.355469 L 226.453125 127.742188 L 214.839844 127.742188 Z M 214.839844 139.355469 "/>
<path fill-rule="nonzero" fill="rgb(26.27451%, 14.509804%, 20.392157%)" fill-opacity="1" d="M 214.839844 116.128906 L 226.453125 116.128906 L 226.453125 104.515625 L 214.839844 104.515625 Z M 214.839844 116.128906 "/>
<path fill-rule="nonzero" fill="rgb(26.27451%, 14.509804%, 20.392157%)" fill-opacity="1" d="M 214.839844 104.515625 L 226.453125 104.515625 L 226.453125 92.902344 L 214.839844 92.902344 Z M 214.839844 104.515625 "/>
<path fill-rule="nonzero" fill="rgb(26.27451%, 14.509804%, 20.392157%)" fill-opacity="1" d="M 214.839844 92.902344 L 226.453125 92.902344 L 226.453125 81.289062 L 214.839844 81.289062 Z M 214.839844 92.902344 "/>
<path fill-rule="nonzero" fill="rgb(26.27451%, 14.509804%, 20.392157%)" fill-opacity="1" d="M 214.839844 81.289062 L 226.453125 81.289062 L 226.453125 69.675781 L 214.839844 69.675781 Z M 214.839844 81.289062 "/>
<path fill-rule="nonzero" fill="rgb(26.27451%, 14.509804%, 20.392157%)" fill-opacity="1" d="M 214.839844 69.675781 L 226.453125 69.675781 L 226.453125 58.0625 L 214.839844 58.0625 Z M 214.839844 69.675781 "/>
<path fill-rule="nonzero" fill="rgb(26.27451%, 14.509804%, 20.392157%)" fill-opacity="1" d="M 214.839844 58.066406 L 226.453125 58.066406 L 226.453125 46.453125 L 214.839844 46.453125 Z M 214.839844 58.066406 "/>
<path fill-rule="nonzero" fill="rgb(26.27451%, 14.509804%, 20.392157%)" fill-opacity="1" d="M 214.839844 46.453125 L 226.453125 46.453125 L 226.453125 34.839844 L 214.839844 34.839844 Z M 214.839844 46.453125 "/>
<path fill-rule="nonzero" fill="rgb(26.27451%, 14.509804%, 20.392157%)" fill-opacity="1" d="M 226.453125 325.160156 L 238.066406 325.160156 L 238.066406 313.546875 L 226.453125 313.546875 Z M 226.453125 325.160156 "/>
<path fill-rule="nonzero" fill="rgb(26.27451%, 14.509804%, 20.392157%)" fill-opacity="1" d="M 226.453125 255.484375 L 238.066406 255.484375 L 238.066406 243.871094 L 226.453125 243.871094 Z M 226.453125 255.484375 "/>
<path fill-rule="nonzero" fill="rgb(26.27451%, 14.509804%, 20.392157%)" fill-opacity="1" d="M 226.453125 209.03125 L 238.066406 209.03125 L 238.066406 197.417969 L 226.453125 197.417969 Z M 226.453125 209.03125 "/>
<path fill-rule="nonzero" fill="rgb(26.27451%, 14.509804%, 20.392157%)" fill-opacity="1" d="M 226.453125 185.804688 L 238.066406 185.804688 L 238.066406 174.191406 L 226.453125 174.191406 Z M 226.453125 185.804688 "/>
<path fill-rule="nonzero" fill="rgb(26.27451%, 14.509804%, 20.392157%)" fill-opacity="1" d="M 226.453125 150.96875 L 238.066406 150.96875 L 238.066406 139.355469 L 226.453125 139.355469 Z M 226.453125 150.96875 "/>
<path fill-rule="nonzero" fill="rgb(26.27451%, 14.509804%, 20.392157%)" fill-opacity="1" d="M 226.453125 139.355469 L 238.066406 139.355469 L 238.066406 127.742188 L 226.453125 127.742188 Z M 226.453125 139.355469 "/>
<path fill-rule="nonzero" fill="rgb(26.27451%, 14.509804%, 20.392157%)" fill-opacity="1" d="M 226.453125 116.128906 L 238.066406 116.128906 L 238.066406 104.515625 L 226.453125 104.515625 Z M 226.453125 116.128906 "/>
<path fill-rule="nonzero" fill="rgb(26.27451%, 14.509804%, 20.392157%)" fill-opacity="1" d="M 226.453125 46.453125 L 238.066406 46.453125 L 238.066406 34.839844 L 226.453125 34.839844 Z M 226.453125 46.453125 "/>
<path fill-rule="nonzero" fill="rgb(26.27451%, 14.509804%, 20.392157%)" fill-opacity="1" d="M 238.066406 325.160156 L 249.679688 325.160156 L 249.679688 313.546875 L 238.066406 313.546875 Z M 238.066406 325.160156 "/>
<path fill-rule="nonzero" fill="rgb(26.27451%, 14.509804%, 20.392157%)" fill-opacity="1" d="M 238.066406 301.933594 L 249.679688 301.933594 L 249.679688 290.320312 L 238.066406 290.320312 Z M 238.066406 301.933594 "/>
<path fill-rule="nonzero" fill="rgb(26.27451%, 14.509804%, 20.392157%)" fill-opacity="1" d="M 238.066406 290.324219 L 249.679688 290.324219 L 249.679688 278.710938 L 238.066406 278.710938 Z M 238.066406 290.324219 "/>
<path fill-rule="nonzero" fill="rgb(26.27451%, 14.509804%, 20.392157%)" fill-opacity="1" d="M 238.066406 278.710938 L 249.679688 278.710938 L 249.679688 267.097656 L 238.066406 267.097656 Z M 238.066406 278.710938 "/>
<path fill-rule="nonzero" fill="rgb(26.27451%, 14.509804%, 20.392157%)" fill-opacity="1" d="M 238.066406 255.484375 L 249.679688 255.484375 L 249.679688 243.871094 L 238.066406 243.871094 Z M 238.066406 255.484375 "/>
<path fill-rule="nonzero" fill="rgb(26.27451%, 14.509804%, 20.392157%)" fill-opacity="1" d="M 238.066406 220.644531 L 249.679688 220.644531 L 249.679688 209.03125 L 238.066406 209.03125 Z M 238.066406 220.644531 "/>
<path fill-rule="nonzero" fill="rgb(26.27451%, 14.509804%, 20.392157%)" fill-opacity="1" d="M 238.066406 197.417969 L 249.679688 197.417969 L 249.679688 185.804688 L 238.066406 185.804688 Z M 238.066406 197.417969 "/>
<path fill-rule="nonzero" fill="rgb(26.27451%, 14.509804%, 20.392157%)" fill-opacity="1" d="M 238.066406 185.804688 L 249.679688 185.804688 L 249.679688 174.191406 L 238.066406 174.191406 Z M 238.066406 185.804688 "/>
<path fill-rule="nonzero" fill="rgb(26.27451%, 14.509804%, 20.392157%)" fill-opacity="1" d="M 238.066406 150.96875 L 249.679688 150.96875 L 249.679688 139.355469 L 238.066406 139.355469 Z M 238.066406 150.96875 "/>
<path fill-rule="nonzero" fill="rgb(26.27451%, 14.509804%, 20.392157%)" fill-opacity="1" d="M 238.066406 116.128906 L 249.679688 116.128906 L 249.679688 104.515625 L 238.066406 104.515625 Z M 238.066406 116.128906 "/>
<path fill-rule="nonzero" fill="rgb(26.27451%, 14.509804%, 20.392157%)" fill-opacity="1" d="M 238.066406 92.902344 L 249.679688 92.902344 L 249.679688 81.289062 L 238.066406 81.289062 Z M 238.066406 92.902344 "/>
<path fill-rule="nonzero" fill="rgb(26.27451%, 14.509804%, 20.392157%)" fill-opacity="1" d="M 238.066406 81.289062 L 249.679688 81.289062 L 249.679688 69.675781 L 238.066406 69.675781 Z M 238.066406 81.289062 "/>
<path fill-rule="nonzero" fill="rgb(26.27451%, 14.509804%, 20.392157%)" fill-opacity="1" d="M 238.066406 69.675781 L 249.679688 69.675781 L 249.679688 58.0625 L 238.066406 58.0625 Z M 238.066406 69.675781 "/>
<path fill-rule="nonzero" fill="rgb(26.27451%, 14.509804%, 20.392157%)" fill-opacity="1" d="M 238.066406 46.453125 L 249.679688 46.453125 L 249.679688 34.839844 L 238.066406 34.839844 Z M 238.066406 46.453125 "/>
<path fill-rule="nonzero" fill="rgb(26.27451%, 14.509804%, 20.392157%)" fill-opacity="1" d="M 249.675781 325.160156 L 261.289062 325.160156 L 261.289062 313.546875 L 249.675781 313.546875 Z M 249.675781 325.160156 "/>
<path fill-rule="nonzero" fill="rgb(26.27451%, 14.509804%, 20.392157%)" fill-opacity="1" d="M 249.675781 301.933594 L 261.289062 301.933594 L 261.289062 290.320312 L 249.675781 290.320312 Z M 249.675781 301.933594 "/>
<path fill-rule="nonzero" fill="rgb(26.27451%, 14.509804%, 20.392157%)" fill-opacity="1" d="M 249.675781 290.324219 L 261.289062 290.324219 L 261.289062 278.710938 L 249.675781 278.710938 Z M 249.675781 290.324219 "/>
<path fill-rule="nonzero" fill="rgb(26.27451%, 14.509804%, 20.392157%)" fill-opacity="1" d="M 249.675781 278.710938 L 261.289062 278.710938 L 261.289062 267.097656 L 249.675781 267.097656 Z M 249.675781 278.710938 "/>
<path fill-rule="nonzero" fill="rgb(26.27451%, 14.509804%, 20.392157%)" fill-opacity="1" d="M 249.675781 255.484375 L 261.289062 255.484375 L 261.289062 243.871094 L 249.675781 243.871094 Z M 249.675781 255.484375 "/>
<path fill-rule="nonzero" fill="rgb(26.27451%, 14.509804%, 20.392157%)" fill-opacity="1" d="M 249.675781 185.804688 L 261.289062 185.804688 L 261.289062 174.191406 L 249.675781 174.191406 Z M 249.675781 185.804688 "/>
<path fill-rule="nonzero" fill="rgb(26.27451%, 14.509804%, 20.392157%)" fill-opacity="1" d="M 249.675781 174.195312 L 261.289062 174.195312 L 261.289062 162.582031 L 249.675781 162.582031 Z M 249.675781 174.195312 "/>
<path fill-rule="nonzero" fill="rgb(26.27451%, 14.509804%, 20.392157%)" fill-opacity="1" d="M 249.675781 162.582031 L 261.289062 162.582031 L 261.289062 150.96875 L 249.675781 150.96875 Z M 249.675781 162.582031 "/>
<path fill-rule="nonzero" fill="rgb(26.27451%, 14.509804%, 20.392157%)" fill-opacity="1" d="M 249.675781 150.96875 L 261.289062 150.96875 L 261.289062 139.355469 L 249.675781 139.355469 Z M 249.675781 150.96875 "/>
<path fill-rule="nonzero" fill="rgb(26.27451%, 14.509804%, 20.392157%)" fill-opacity="1" d="M 249.675781 139.355469 L 261.289062 139.355469 L 261.289062 127.742188 L 249.675781 127.742188 Z M 249.675781 139.355469 "/>
<path fill-rule="nonzero" fill="rgb(26.27451%, 14.509804%, 20.392157%)" fill-opacity="1" d="M 249.675781 116.128906 L 261.289062 116.128906 L 261.289062 104.515625 L 249.675781 104.515625 Z M 249.675781 116.128906 "/>
<path fill-rule="nonzero" fill="rgb(26.27451%, 14.509804%, 20.392157%)" fill-opacity="1" d="M 249.675781 92.902344 L 261.289062 92.902344 L 261.289062 81.289062 L 249.675781 81.289062 Z M 249.675781 92.902344 "/>
<path fill-rule="nonzero" fill="rgb(26.27451%, 14.509804%, 20.392157%)" fill-opacity="1" d="M 249.675781 81.289062 L 261.289062 81.289062 L 261.289062 69.675781 L 249.675781 69.675781 Z M 249.675781 81.289062 "/>
<path fill-rule="nonzero" fill="rgb(26.27451%, 14.509804%, 20.392157%)" fill-opacity="1" d="M 249.675781 69.675781 L 261.289062 69.675781 L 261.289062 58.0625 L 249.675781 58.0625 Z M 249.675781 69.675781 "/>
<path fill-rule="nonzero" fill="rgb(26.27451%, 14.509804%, 20.392157%)" fill-opacity="1" d="M 249.675781 46.453125 L 261.289062 46.453125 L 261.289062 34.839844 L 249.675781 34.839844 Z M 249.675781 46.453125 "/>
<path fill-rule="nonzero" fill="rgb(26.27451%, 14.509804%, 20.392157%)" fill-opacity="1" d="M 261.289062 325.160156 L 272.902344 325.160156 L 272.902344 313.546875 L 261.289062 313.546875 Z M 261.289062 325.160156 "/>
<path fill-rule="nonzero" fill="rgb(26.27451%, 14.509804%, 20.392157%)" fill-opacity="1" d="M 261.289062 301.933594 L 272.902344 301.933594 L 272.902344 290.320312 L 261.289062 290.320312 Z M 261.289062 301.933594 "/>
<path fill-rule="nonzero" fill="rgb(26.27451%, 14.509804%, 20.392157%)" fill-opacity="1" d="M 261.289062 290.324219 L 272.902344 290.324219 L 272.902344 278.710938 L 261.289062 278.710938 Z M 261.289062 290.324219 "/>
<path fill-rule="nonzero" fill="rgb(26.27451%, 14.509804%, 20.392157%)" fill-opacity="1" d="M 261.289062 278.710938 L 272.902344 278.710938 L 272.902344 267.097656 L 261.289062 267.097656 Z M 261.289062 278.710938 "/>
<path fill-rule="nonzero" fill="rgb(26.27451%, 14.509804%, 20.392157%)" fill-opacity="1" d="M 261.289062 255.484375 L 272.902344 255.484375 L 272.902344 243.871094 L 261.289062 243.871094 Z M 261.289062 255.484375 "/>
<path fill-rule="nonzero" fill="rgb(26.27451%, 14.509804%, 20.392157%)" fill-opacity="1" d="M 261.289062 209.03125 L 272.902344 209.03125 L 272.902344 197.417969 L 261.289062 197.417969 Z M 261.289062 209.03125 "/>
<path fill-rule="nonzero" fill="rgb(26.27451%, 14.509804%, 20.392157%)" fill-opacity="1" d="M 261.289062 185.804688 L 272.902344 185.804688 L 272.902344 174.191406 L 261.289062 174.191406 Z M 261.289062 185.804688 "/>
<path fill-rule="nonzero" fill="rgb(26.27451%, 14.509804%, 20.392157%)" fill-opacity="1" d="M 261.289062 162.582031 L 272.902344 162.582031 L 272.902344 150.96875 L 261.289062 150.96875 Z M 261.289062 162.582031 "/>
<path fill-rule="nonzero" fill="rgb(26.27451%, 14.509804%, 20.392157%)" fill-opacity="1" d="M 261.289062 150.96875 L 272.902344 150.96875 L 272.902344 139.355469 L 261.289062 139.355469 Z M 261.289062 150.96875 "/>
<path fill-rule="nonzero" fill="rgb(26.27451%, 14.509804%, 20.392157%)" fill-opacity="1" d="M 261.289062 139.355469 L 272.902344 139.355469 L 272.902344 127.742188 L 261.289062 127.742188 Z M 261.289062 139.355469 "/>
<path fill-rule="nonzero" fill="rgb(26.27451%, 14.509804%, 20.392157%)" fill-opacity="1" d="M 261.289062 116.128906 L 272.902344 116.128906 L 272.902344 104.515625 L 261.289062 104.515625 Z M 261.289062 116.128906 "/>
<path fill-rule="nonzero" fill="rgb(26.27451%, 14.509804%, 20.392157%)" fill-opacity="1" d="M 261.289062 92.902344 L 272.902344 92.902344 L 272.902344 81.289062 L 261.289062 81.289062 Z M 261.289062 92.902344 "/>
<path fill-rule="nonzero" fill="rgb(26.27451%, 14.509804%, 20.392157%)" fill-opacity="1" d="M 261.289062 81.289062 L 272.902344 81.289062 L 272.902344 69.675781 L 261.289062 69.675781 Z M 261.289062 81.289062 "/>
<path fill-rule="nonzero" fill="rgb(26.27451%, 14.509804%, 20.392157%)" fill-opacity="1" d="M 261.289062 69.675781 L 272.902344 69.675781 L 272.902344 58.0625 L 261.289062 58.0625 Z M 261.289062 69.675781 "/>
<path fill-rule="nonzero" fill="rgb(26.27451%, 14.509804%, 20.392157%)" fill-opacity="1" d="M 261.289062 46.453125 L 272.902344 46.453125 L 272.902344 34.839844 L 261.289062 34.839844 Z M 261.289062 46.453125 "/>
<path fill-rule="nonzero" fill="rgb(26.27451%, 14.509804%, 20.392157%)" fill-opacity="1" d="M 272.902344 325.160156 L 284.515625 325.160156 L 284.515625 313.546875 L 272.902344 313.546875 Z M 272.902344 325.160156 "/>
<path fill-rule="nonzero" fill="rgb(26.27451%, 14.509804%, 20.392157%)" fill-opacity="1" d="M 272.902344 255.484375 L 284.515625 255.484375 L 284.515625 243.871094 L 272.902344 243.871094 Z M 272.902344 255.484375 "/>
<path fill-rule="nonzero" fill="rgb(26.27451%, 14.509804%, 20.392157%)" fill-opacity="1" d="M 272.902344 232.257812 L 284.515625 232.257812 L 284.515625 220.644531 L 272.902344 220.644531 Z M 272.902344 232.257812 "/>
<path fill-rule="nonzero" fill="rgb(26.27451%, 14.509804%, 20.392157%)" fill-opacity="1" d="M 272.902344 209.03125 L 284.515625 209.03125 L 284.515625 197.417969 L 272.902344 197.417969 Z M 272.902344 209.03125 "/>
<path fill-rule="nonzero" fill="rgb(26.27451%, 14.509804%, 20.392157%)" fill-opacity="1" d="M 272.902344 185.804688 L 284.515625 185.804688 L 284.515625 174.191406 L 272.902344 174.191406 Z M 272.902344 185.804688 "/>
<path fill-rule="nonzero" fill="rgb(26.27451%, 14.509804%, 20.392157%)" fill-opacity="1" d="M 272.902344 174.195312 L 284.515625 174.195312 L 284.515625 162.582031 L 272.902344 162.582031 Z M 272.902344 174.195312 "/>
<path fill-rule="nonzero" fill="rgb(26.27451%, 14.509804%, 20.392157%)" fill-opacity="1" d="M 272.902344 150.96875 L 284.515625 150.96875 L 284.515625 139.355469 L 272.902344 139.355469 Z M 272.902344 150.96875 "/>
<path fill-rule="nonzero" fill="rgb(26.27451%, 14.509804%, 20.392157%)" fill-opacity="1" d="M 272.902344 116.128906 L 284.515625 116.128906 L 284.515625 104.515625 L 272.902344 104.515625 Z M 272.902344 116.128906 "/>
<path fill-rule="nonzero" fill="rgb(26.27451%, 14.509804%, 20.392157%)" fill-opacity="1" d="M 272.902344 46.453125 L 284.515625 46.453125 L 284.515625 34.839844 L 272.902344 34.839844 Z M 272.902344 46.453125 "/>
<path fill-rule="nonzero" fill="rgb(26.27451%, 14.509804%, 20.392157%)" fill-opacity="1" d="M 284.515625 325.160156 L 296.128906 325.160156 L 296.128906 313.546875 L 284.515625 313.546875 Z M 284.515625 325.160156 "/>
<path fill-rule="nonzero" fill="rgb(26.27451%, 14.509804%, 20.392157%)" fill-opacity="1" d="M 284.515625 313.546875 L 296.128906 313.546875 L 296.128906 301.933594 L 284.515625 301.933594 Z M 284.515625 313.546875 "/>
<path fill-rule="nonzero" fill="rgb(26.27451%, 14.509804%, 20.392157%)" fill-opacity="1" d="M 284.515625 301.933594 L 296.128906 301.933594 L 296.128906 290.320312 L 284.515625 290.320312 Z M 284.515625 301.933594 "/>
<path fill-rule="nonzero" fill="rgb(26.27451%, 14.509804%, 20.392157%)" fill-opacity="1" d="M 284.515625 290.324219 L 296.128906 290.324219 L 296.128906 278.710938 L 284.515625 278.710938 Z M 284.515625 290.324219 "/>
<path fill-rule="nonzero" fill="rgb(26.27451%, 14.509804%, 20.392157%)" fill-opacity="1" d="M 284.515625 278.710938 L 296.128906 278.710938 L 296.128906 267.097656 L 284.515625 267.097656 Z M 284.515625 278.710938 "/>
<path fill-rule="nonzero" fill="rgb(26.27451%, 14.509804%, 20.392157%)" fill-opacity="1" d="M 284.515625 267.097656 L 296.128906 267.097656 L 296.128906 255.484375 L 284.515625 255.484375 Z M 284.515625 267.097656 "/>
<path fill-rule="nonzero" fill="rgb(26.27451%, 14.509804%, 20.392157%)" fill-opacity="1" d="M 284.515625 255.484375 L 296.128906 255.484375 L 296.128906 243.871094 L 284.515625 243.871094 Z M 284.515625 255.484375 "/>
<path fill-rule="nonzero" fill="rgb(26.27451%, 14.509804%, 20.392157%)" fill-opacity="1" d="M 284.515625 232.257812 L 296.128906 232.257812 L 296.128906 220.644531 L 284.515625 220.644531 Z M 284.515625 232.257812 "/>
<path fill-rule="nonzero" fill="rgb(26.27451%, 14.509804%, 20.392157%)" fill-opacity="1" d="M 284.515625 209.03125 L 296.128906 209.03125 L 296.128906 197.417969 L 284.515625 197.417969 Z M 284.515625 209.03125 "/>
<path fill-rule="nonzero" fill="rgb(26.27451%, 14.509804%, 20.392157%)" fill-opacity="1" d="M 284.515625 185.804688 L 296.128906 185.804688 L 296.128906 174.191406 L 284.515625 174.191406 Z M 284.515625 185.804688 "/>
<path fill-rule="nonzero" fill="rgb(26.27451%, 14.509804%, 20.392157%)" fill-opacity="1" d="M 284.515625 162.582031 L 296.128906 162.582031 L 296.128906 150.96875 L 284.515625 150.96875 Z M 284.515625 162.582031 "/>
<path fill-rule="nonzero" fill="rgb(26.27451%, 14.509804%, 20.392157%)" fill-opacity="1" d="M 284.515625 139.355469 L 296.128906 139.355469 L 296.128906 127.742188 L 284.515625 127.742188 Z M 284.515625 139.355469 "/>
<path fill-rule="nonzero" fill="rgb(26.27451%, 14.509804%, 20.392157%)" fill-opacity="1" d="M 284.515625 116.128906 L 296.128906 116.128906 L 296.128906 104.515625 L 284.515625 104.515625 Z M 284.515625 116.128906 "/>
<path fill-rule="nonzero" fill="rgb(26.27451%, 14.509804%, 20.392157%)" fill-opacity="1" d="M 284.515625 104.515625 L 296.128906 104.515625 L 296.128906 92.902344 L 284.515625 92.902344 Z M 284.515625 104.515625 "/>
<path fill-rule="nonzero" fill="rgb(26.27451%, 14.509804%, 20.392157%)" fill-opacity="1" d="M 284.515625 92.902344 L 296.128906 92.902344 L 296.128906 81.289062 L 284.515625 81.289062 Z M 284.515625 92.902344 "/>
<path fill-rule="nonzero" fill="rgb(26.27451%, 14.509804%, 20.392157%)" fill-opacity="1" d="M 284.515625 81.289062 L 296.128906 81.289062 L 296.128906 69.675781 L 284.515625 69.675781 Z M 284.515625 81.289062 "/>
<path fill-rule="nonzero" fill="rgb(26.27451%, 14.509804%, 20.392157%)" fill-opacity="1" d="M 284.515625 69.675781 L 296.128906 69.675781 L 296.128906 58.0625 L 284.515625 58.0625 Z M 284.515625 69.675781 "/>
<path fill-rule="nonzero" fill="rgb(26.27451%, 14.509804%, 20.392157%)" fill-opacity="1" d="M 284.515625 58.066406 L 296.128906 58.066406 L 296.128906 46.453125 L 284.515625 46.453125 Z M 284.515625 58.066406 "/>
<path fill-rule="nonzero" fill="rgb(26.27451%, 14.509804%, 20.392157%)" fill-opacity="1" d="M 284.515625 46.453125 L 296.128906 46.453125 L 296.128906 34.839844 L 284.515625 34.839844 Z M 284.515625 46.453125 "/>
<path fill-rule="nonzero" fill="rgb(26.27451%, 14.509804%, 20.392157%)" fill-opacity="1" d="M 296.128906 197.417969 L 307.742188 197.417969 L 307.742188 185.804688 L 296.128906 185.804688 Z M 296.128906 197.417969 "/>
<path fill-rule="nonzero" fill="rgb(26.27451%, 14.509804%, 20.392157%)" fill-opacity="1" d="M 296.128906 150.96875 L 307.742188 150.96875 L 307.742188 139.355469 L 296.128906 139.355469 Z M 296.128906 150.96875 "/>
<path fill-rule="nonzero" fill="rgb(26.27451%, 14.509804%, 20.392157%)" fill-opacity="1" d="M 307.742188 325.160156 L 319.355469 325.160156 L 319.355469 313.546875 L 307.742188 313.546875 Z M 307.742188 325.160156 "/>
<path fill-rule="nonzero" fill="rgb(26.27451%, 14.509804%, 20.392157%)" fill-opacity="1" d="M 307.742188 313.546875 L 319.355469 313.546875 L 319.355469 301.933594 L 307.742188 301.933594 Z M 307.742188 313.546875 "/>
<path fill-rule="nonzero" fill="rgb(26.27451%, 14.509804%, 20.392157%)" fill-opacity="1" d="M 307.742188 290.324219 L 319.355469 290.324219 L 319.355469 278.710938 L 307.742188 278.710938 Z M 307.742188 290.324219 "/>
<path fill-rule="nonzero" fill="rgb(26.27451%, 14.509804%, 20.392157%)" fill-opacity="1" d="M 307.742188 278.710938 L 319.355469 278.710938 L 319.355469 267.097656 L 307.742188 267.097656 Z M 307.742188 278.710938 "/>
<path fill-rule="nonzero" fill="rgb(26.27451%, 14.509804%, 20.392157%)" fill-opacity="1" d="M 307.742188 243.871094 L 319.355469 243.871094 L 319.355469 232.257812 L 307.742188 232.257812 Z M 307.742188 243.871094 "/>
<path fill-rule="nonzero" fill="rgb(26.27451%, 14.509804%, 20.392157%)" fill-opacity="1" d="M 307.742188 232.257812 L 319.355469 232.257812 L 319.355469 220.644531 L 307.742188 220.644531 Z M 307.742188 232.257812 "/>
<path fill-rule="nonzero" fill="rgb(26.27451%, 14.509804%, 20.392157%)" fill-opacity="1" d="M 307.742188 209.03125 L 319.355469 209.03125 L 319.355469 197.417969 L 307.742188 197.417969 Z M 307.742188 209.03125 "/>
<path fill-rule="nonzero" fill="rgb(26.27451%, 14.509804%, 20.392157%)" fill-opacity="1" d="M 307.742188 197.417969 L 319.355469 197.417969 L 319.355469 185.804688 L 307.742188 185.804688 Z M 307.742188 197.417969 "/>
<path fill-rule="nonzero" fill="rgb(26.27451%, 14.509804%, 20.392157%)" fill-opacity="1" d="M 307.742188 174.195312 L 319.355469 174.195312 L 319.355469 162.582031 L 307.742188 162.582031 Z M 307.742188 174.195312 "/>
<path fill-rule="nonzero" fill="rgb(26.27451%, 14.509804%, 20.392157%)" fill-opacity="1" d="M 307.742188 162.582031 L 319.355469 162.582031 L 319.355469 150.96875 L 307.742188 150.96875 Z M 307.742188 162.582031 "/>
<path fill-rule="nonzero" fill="rgb(26.27451%, 14.509804%, 20.392157%)" fill-opacity="1" d="M 307.742188 127.742188 L 319.355469 127.742188 L 319.355469 116.128906 L 307.742188 116.128906 Z M 307.742188 127.742188 "/>
<path fill-rule="nonzero" fill="rgb(26.27451%, 14.509804%, 20.392157%)" fill-opacity="1" d="M 307.742188 116.128906 L 319.355469 116.128906 L 319.355469 104.515625 L 307.742188 104.515625 Z M 307.742188 116.128906 "/>
<path fill-rule="nonzero" fill="rgb(26.27451%, 14.509804%, 20.392157%)" fill-opacity="1" d="M 307.742188 46.453125 L 319.355469 46.453125 L 319.355469 34.839844 L 307.742188 34.839844 Z M 307.742188 46.453125 "/>
<path fill-rule="nonzero" fill="rgb(26.27451%, 14.509804%, 20.392157%)" fill-opacity="1" d="M 319.355469 325.160156 L 330.96875 325.160156 L 330.96875 313.546875 L 319.355469 313.546875 Z M 319.355469 325.160156 "/>
<path fill-rule="nonzero" fill="rgb(26.27451%, 14.509804%, 20.392157%)" fill-opacity="1" d="M 319.355469 301.933594 L 330.96875 301.933594 L 330.96875 290.320312 L 319.355469 290.320312 Z M 319.355469 301.933594 "/>
<path fill-rule="nonzero" fill="rgb(26.27451%, 14.509804%, 20.392157%)" fill-opacity="1" d="M 319.355469 278.710938 L 330.96875 278.710938 L 330.96875 267.097656 L 319.355469 267.097656 Z M 319.355469 278.710938 "/>
<path fill-rule="nonzero" fill="rgb(26.27451%, 14.509804%, 20.392157%)" fill-opacity="1" d="M 319.355469 267.097656 L 330.96875 267.097656 L 330.96875 255.484375 L 319.355469 255.484375 Z M 319.355469 267.097656 "/>
<path fill-rule="nonzero" fill="rgb(26.27451%, 14.509804%, 20.392157%)" fill-opacity="1" d="M 319.355469 255.484375 L 330.96875 255.484375 L 330.96875 243.871094 L 319.355469 243.871094 Z M 319.355469 255.484375 "/>
<path fill-rule="nonzero" fill="rgb(26.27451%, 14.509804%, 20.392157%)" fill-opacity="1" d="M 319.355469 243.871094 L 330.96875 243.871094 L 330.96875 232.257812 L 319.355469 232.257812 Z M 319.355469 243.871094 "/>
<path fill-rule="nonzero" fill="rgb(26.27451%, 14.509804%, 20.392157%)" fill-opacity="1" d="M 319.355469 220.644531 L 330.96875 220.644531 L 330.96875 209.03125 L 319.355469 209.03125 Z M 319.355469 220.644531 "/>
<path fill-rule="nonzero" fill="rgb(26.27451%, 14.509804%, 20.392157%)" fill-opacity="1" d="M 319.355469 197.417969 L 330.96875 197.417969 L 330.96875 185.804688 L 319.355469 185.804688 Z M 319.355469 197.417969 "/>
<path fill-rule="nonzero" fill="rgb(26.27451%, 14.509804%, 20.392157%)" fill-opacity="1" d="M 319.355469 185.804688 L 330.96875 185.804688 L 330.96875 174.191406 L 319.355469 174.191406 Z M 319.355469 185.804688 "/>
<path fill-rule="nonzero" fill="rgb(26.27451%, 14.509804%, 20.392157%)" fill-opacity="1" d="M 319.355469 104.515625 L 330.96875 104.515625 L 330.96875 92.902344 L 319.355469 92.902344 Z M 319.355469 104.515625 "/>
<path fill-rule="nonzero" fill="rgb(26.27451%, 14.509804%, 20.392157%)" fill-opacity="1" d="M 319.355469 92.902344 L 330.96875 92.902344 L 330.96875 81.289062 L 319.355469 81.289062 Z M 319.355469 92.902344 "/>
<path fill-rule="nonzero" fill="rgb(26.27451%, 14.509804%, 20.392157%)" fill-opacity="1" d="M 319.355469 81.289062 L 330.96875 81.289062 L 330.96875 69.675781 L 319.355469 69.675781 Z M 319.355469 81.289062 "/>
<path fill-rule="nonzero" fill="rgb(26.27451%, 14.509804%, 20.392157%)" fill-opacity="1" d="M 319.355469 69.675781 L 330.96875 69.675781 L 330.96875 58.0625 L 319.355469 58.0625 Z M 319.355469 69.675781 "/>
<path fill-rule="nonzero" fill="rgb(26.27451%, 14.509804%, 20.392157%)" fill-opacity="1" d="M 319.355469 58.066406 L 330.96875 58.066406 L 330.96875 46.453125 L 319.355469 46.453125 Z M 319.355469 58.066406 "/>
<path fill-rule="nonzero" fill="rgb(26.27451%, 14.509804%, 20.392157%)" fill-opacity="1" d="M 319.355469 46.453125 L 330.96875 46.453125 L 330.96875 34.839844 L 319.355469 34.839844 Z M 319.355469 46.453125 "/>
<path fill-rule="nonzero" fill="rgb(26.27451%, 14.509804%, 20.392157%)" fill-opacity="1" d="M 330.96875 313.546875 L 342.582031 313.546875 L 342.582031 301.933594 L 330.96875 301.933594 Z M 330.96875 313.546875 "/>
<path fill-rule="nonzero" fill="rgb(26.27451%, 14.509804%, 20.392157%)" fill-opacity="1" d="M 330.96875 220.644531 L 342.582031 220.644531 L 342.582031 209.03125 L 330.96875 209.03125 Z M 330.96875 220.644531 "/>
<path fill-rule="nonzero" fill="rgb(26.27451%, 14.509804%, 20.392157%)" fill-opacity="1" d="M 330.96875 209.03125 L 342.582031 209.03125 L 342.582031 197.417969 L 330.96875 197.417969 Z M 330.96875 209.03125 "/>
<path fill-rule="nonzero" fill="rgb(26.27451%, 14.509804%, 20.392157%)" fill-opacity="1" d="M 330.96875 185.804688 L 342.582031 185.804688 L 342.582031 174.191406 L 330.96875 174.191406 Z M 330.96875 185.804688 "/>
<path fill-rule="nonzero" fill="rgb(26.27451%, 14.509804%, 20.392157%)" fill-opacity="1" d="M 330.96875 174.195312 L 342.582031 174.195312 L 342.582031 162.582031 L 330.96875 162.582031 Z M 330.96875 174.195312 "/>
<path fill-rule="nonzero" fill="rgb(26.27451%, 14.509804%, 20.392157%)" fill-opacity="1" d="M 330.96875 162.582031 L 342.582031 162.582031 L 342.582031 150.96875 L 330.96875 150.96875 Z M 330.96875 162.582031 "/>
<path fill-rule="nonzero" fill="rgb(26.27451%, 14.509804%, 20.392157%)" fill-opacity="1" d="M 330.96875 139.355469 L 342.582031 139.355469 L 342.582031 127.742188 L 330.96875 127.742188 Z M 330.96875 139.355469 "/>
<path fill-rule="nonzero" fill="rgb(26.27451%, 14.509804%, 20.392157%)" fill-opacity="1" d="M 330.96875 116.128906 L 342.582031 116.128906 L 342.582031 104.515625 L 330.96875 104.515625 Z M 330.96875 116.128906 "/>
<path fill-rule="nonzero" fill="rgb(26.27451%, 14.509804%, 20.392157%)" fill-opacity="1" d="M 330.96875 104.515625 L 342.582031 104.515625 L 342.582031 92.902344 L 330.96875 92.902344 Z M 330.96875 104.515625 "/>
<path fill-rule="nonzero" fill="rgb(26.27451%, 14.509804%, 20.392157%)" fill-opacity="1" d="M 330.96875 92.902344 L 342.582031 92.902344 L 342.582031 81.289062 L 330.96875 81.289062 Z M 330.96875 92.902344 "/>
<path fill-rule="nonzero" fill="rgb(26.27451%, 14.509804%, 20.392157%)" fill-opacity="1" d="M 330.96875 81.289062 L 342.582031 81.289062 L 342.582031 69.675781 L 330.96875 69.675781 Z M 330.96875 81.289062 "/>
<path fill-rule="nonzero" fill="rgb(26.27451%, 14.509804%, 20.392157%)" fill-opacity="1" d="M 330.96875 58.066406 L 342.582031 58.066406 L 342.582031 46.453125 L 330.96875 46.453125 Z M 330.96875 58.066406 "/>
<path fill-rule="nonzero" fill="rgb(26.27451%, 14.509804%, 20.392157%)" fill-opacity="1" d="M 342.582031 325.160156 L 354.195312 325.160156 L 354.195312 313.546875 L 342.582031 313.546875 Z M 342.582031 325.160156 "/>
<path fill-rule="nonzero" fill="rgb(26.27451%, 14.509804%, 20.392157%)" fill-opacity="1" d="M 342.582031 313.546875 L 354.195312 313.546875 L 354.195312 301.933594 L 342.582031 301.933594 Z M 342.582031 313.546875 "/>
<path fill-rule="nonzero" fill="rgb(26.27451%, 14.509804%, 20.392157%)" fill-opacity="1" d="M 342.582031 301.933594 L 354.195312 301.933594 L 354.195312 290.320312 L 342.582031 290.320312 Z M 342.582031 301.933594 "/>
<path fill-rule="nonzero" fill="rgb(26.27451%, 14.509804%, 20.392157%)" fill-opacity="1" d="M 342.582031 290.324219 L 354.195312 290.324219 L 354.195312 278.710938 L 342.582031 278.710938 Z M 342.582031 290.324219 "/>
<path fill-rule="nonzero" fill="rgb(26.27451%, 14.509804%, 20.392157%)" fill-opacity="1" d="M 342.582031 255.484375 L 354.195312 255.484375 L 354.195312 243.871094 L 342.582031 243.871094 Z M 342.582031 255.484375 "/>
<path fill-rule="nonzero" fill="rgb(26.27451%, 14.509804%, 20.392157%)" fill-opacity="1" d="M 342.582031 232.257812 L 354.195312 232.257812 L 354.195312 220.644531 L 342.582031 220.644531 Z M 342.582031 232.257812 "/>
<path fill-rule="nonzero" fill="rgb(26.27451%, 14.509804%, 20.392157%)" fill-opacity="1" d="M 342.582031 220.644531 L 354.195312 220.644531 L 354.195312 209.03125 L 342.582031 209.03125 Z M 342.582031 220.644531 "/>
<path fill-rule="nonzero" fill="rgb(26.27451%, 14.509804%, 20.392157%)" fill-opacity="1" d="M 342.582031 197.417969 L 354.195312 197.417969 L 354.195312 185.804688 L 342.582031 185.804688 Z M 342.582031 197.417969 "/>
<path fill-rule="nonzero" fill="rgb(26.27451%, 14.509804%, 20.392157%)" fill-opacity="1" d="M 342.582031 162.582031 L 354.195312 162.582031 L 354.195312 150.96875 L 342.582031 150.96875 Z M 342.582031 162.582031 "/>
<path fill-rule="nonzero" fill="rgb(26.27451%, 14.509804%, 20.392157%)" fill-opacity="1" d="M 342.582031 150.96875 L 354.195312 150.96875 L 354.195312 139.355469 L 342.582031 139.355469 Z M 342.582031 150.96875 "/>
<path fill-rule="nonzero" fill="rgb(26.27451%, 14.509804%, 20.392157%)" fill-opacity="1" d="M 342.582031 104.515625 L 354.195312 104.515625 L 354.195312 92.902344 L 342.582031 92.902344 Z M 342.582031 104.515625 "/>
<path fill-rule="nonzero" fill="rgb(26.27451%, 14.509804%, 20.392157%)" fill-opacity="1" d="M 342.582031 81.289062 L 354.195312 81.289062 L 354.195312 69.675781 L 342.582031 69.675781 Z M 342.582031 81.289062 "/>
<path fill-rule="nonzero" fill="rgb(26.27451%, 14.509804%, 20.392157%)" fill-opacity="1" d="M 354.195312 290.324219 L 365.808594 290.324219 L 365.808594 278.710938 L 354.195312 278.710938 Z M 354.195312 290.324219 "/>
<path fill-rule="nonzero" fill="rgb(26.27451%, 14.509804%, 20.392157%)" fill-opacity="1" d="M 354.195312 267.097656 L 365.808594 267.097656 L 365.808594 255.484375 L 354.195312 255.484375 Z M 354.195312 267.097656 "/>
<path fill-rule="nonzero" fill="rgb(26.27451%, 14.509804%, 20.392157%)" fill-opacity="1" d="M 354.195312 255.484375 L 365.808594 255.484375 L 365.808594 243.871094 L 354.195312 243.871094 Z M 354.195312 255.484375 "/>
<path fill-rule="nonzero" fill="rgb(26.27451%, 14.509804%, 20.392157%)" fill-opacity="1" d="M 354.195312 243.871094 L 365.808594 243.871094 L 365.808594 232.257812 L 354.195312 232.257812 Z M 354.195312 243.871094 "/>
<path fill-rule="nonzero" fill="rgb(26.27451%, 14.509804%, 20.392157%)" fill-opacity="1" d="M 354.195312 209.03125 L 365.808594 209.03125 L 365.808594 197.417969 L 354.195312 197.417969 Z M 354.195312 209.03125 "/>
<path fill-rule="nonzero" fill="rgb(26.27451%, 14.509804%, 20.392157%)" fill-opacity="1" d="M 354.195312 197.417969 L 365.808594 197.417969 L 365.808594 185.804688 L 354.195312 185.804688 Z M 354.195312 197.417969 "/>
<path fill-rule="nonzero" fill="rgb(26.27451%, 14.509804%, 20.392157%)" fill-opacity="1" d="M 354.195312 185.804688 L 365.808594 185.804688 L 365.808594 174.191406 L 354.195312 174.191406 Z M 354.195312 185.804688 "/>
<path fill-rule="nonzero" fill="rgb(26.27451%, 14.509804%, 20.392157%)" fill-opacity="1" d="M 354.195312 162.582031 L 365.808594 162.582031 L 365.808594 150.96875 L 354.195312 150.96875 Z M 354.195312 162.582031 "/>
<path fill-rule="nonzero" fill="rgb(26.27451%, 14.509804%, 20.392157%)" fill-opacity="1" d="M 354.195312 150.96875 L 365.808594 150.96875 L 365.808594 139.355469 L 354.195312 139.355469 Z M 354.195312 150.96875 "/>
<path fill-rule="nonzero" fill="rgb(26.27451%, 14.509804%, 20.392157%)" fill-opacity="1" d="M 354.195312 127.742188 L 365.808594 127.742188 L 365.808594 116.128906 L 354.195312 116.128906 Z M 354.195312 127.742188 "/>
<path fill-rule="nonzero" fill="rgb(26.27451%, 14.509804%, 20.392157%)" fill-opacity="1" d="M 354.195312 116.128906 L 365.808594 116.128906 L 365.808594 104.515625 L 354.195312 104.515625 Z M 354.195312 116.128906 "/>
<path fill-rule="nonzero" fill="rgb(26.27451%, 14.509804%, 20.392157%)" fill-opacity="1" d="M 354.195312 92.902344 L 365.808594 92.902344 L 365.808594 81.289062 L 354.195312 81.289062 Z M 354.195312 92.902344 "/>
<path fill-rule="nonzero" fill="rgb(26.27451%, 14.509804%, 20.392157%)" fill-opacity="1" d="M 354.195312 69.675781 L 365.808594 69.675781 L 365.808594 58.0625 L 354.195312 58.0625 Z M 354.195312 69.675781 "/>
<path fill-rule="nonzero" fill="rgb(26.27451%, 14.509804%, 20.392157%)" fill-opacity="1" d="M 354.195312 58.066406 L 365.808594 58.066406 L 365.808594 46.453125 L 354.195312 46.453125 Z M 354.195312 58.066406 "/>
<path fill-rule="nonzero" fill="rgb(26.27451%, 14.509804%, 20.392157%)" fill-opacity="1" d="M 354.195312 46.453125 L 365.808594 46.453125 L 365.808594 34.839844 L 354.195312 34.839844 Z M 354.195312 46.453125 "/>
<path fill-rule="nonzero" fill="rgb(26.27451%, 14.509804%, 20.392157%)" fill-opacity="1" d="M 365.804688 301.933594 L 377.417969 301.933594 L 377.417969 290.320312 L 365.804688 290.320312 Z M 365.804688 301.933594 "/>
<path fill-rule="nonzero" fill="rgb(26.27451%, 14.509804%, 20.392157%)" fill-opacity="1" d="M 365.804688 267.097656 L 377.417969 267.097656 L 377.417969 255.484375 L 365.804688 255.484375 Z M 365.804688 267.097656 "/>
<path fill-rule="nonzero" fill="rgb(26.27451%, 14.509804%, 20.392157%)" fill-opacity="1" d="M 365.804688 243.871094 L 377.417969 243.871094 L 377.417969 232.257812 L 365.804688 232.257812 Z M 365.804688 243.871094 "/>
<path fill-rule="nonzero" fill="rgb(26.27451%, 14.509804%, 20.392157%)" fill-opacity="1" d="M 365.804688 232.257812 L 377.417969 232.257812 L 377.417969 220.644531 L 365.804688 220.644531 Z M 365.804688 232.257812 "/>
<path fill-rule="nonzero" fill="rgb(26.27451%, 14.509804%, 20.392157%)" fill-opacity="1" d="M 365.804688 197.417969 L 377.417969 197.417969 L 377.417969 185.804688 L 365.804688 185.804688 Z M 365.804688 197.417969 "/>
<path fill-rule="nonzero" fill="rgb(26.27451%, 14.509804%, 20.392157%)" fill-opacity="1" d="M 365.804688 162.582031 L 377.417969 162.582031 L 377.417969 150.96875 L 365.804688 150.96875 Z M 365.804688 162.582031 "/>
<path fill-rule="nonzero" fill="rgb(26.27451%, 14.509804%, 20.392157%)" fill-opacity="1" d="M 365.804688 127.742188 L 377.417969 127.742188 L 377.417969 116.128906 L 365.804688 116.128906 Z M 365.804688 127.742188 "/>
<path fill-rule="nonzero" fill="rgb(26.27451%, 14.509804%, 20.392157%)" fill-opacity="1" d="M 365.804688 81.289062 L 377.417969 81.289062 L 377.417969 69.675781 L 365.804688 69.675781 Z M 365.804688 81.289062 "/>
<path fill-rule="nonzero" fill="rgb(26.27451%, 14.509804%, 20.392157%)" fill-opacity="1" d="M 365.804688 69.675781 L 377.417969 69.675781 L 377.417969 58.0625 L 365.804688 58.0625 Z M 365.804688 69.675781 "/>
<path fill-rule="nonzero" fill="rgb(26.27451%, 14.509804%, 20.392157%)" fill-opacity="1" d="M 377.417969 325.160156 L 389.03125 325.160156 L 389.03125 313.546875 L 377.417969 313.546875 Z M 377.417969 325.160156 "/>
<path fill-rule="nonzero" fill="rgb(26.27451%, 14.509804%, 20.392157%)" fill-opacity="1" d="M 377.417969 301.933594 L 389.03125 301.933594 L 389.03125 290.320312 L 377.417969 290.320312 Z M 377.417969 301.933594 "/>
<path fill-rule="nonzero" fill="rgb(26.27451%, 14.509804%, 20.392157%)" fill-opacity="1" d="M 377.417969 232.257812 L 389.03125 232.257812 L 389.03125 220.644531 L 377.417969 220.644531 Z M 377.417969 232.257812 "/>
<path fill-rule="nonzero" fill="rgb(26.27451%, 14.509804%, 20.392157%)" fill-opacity="1" d="M 377.417969 162.582031 L 389.03125 162.582031 L 389.03125 150.96875 L 377.417969 150.96875 Z M 377.417969 162.582031 "/>
<path fill-rule="nonzero" fill="rgb(26.27451%, 14.509804%, 20.392157%)" fill-opacity="1" d="M 377.417969 150.96875 L 389.03125 150.96875 L 389.03125 139.355469 L 377.417969 139.355469 Z M 377.417969 150.96875 "/>
<path fill-rule="nonzero" fill="rgb(26.27451%, 14.509804%, 20.392157%)" fill-opacity="1" d="M 377.417969 139.355469 L 389.03125 139.355469 L 389.03125 127.742188 L 377.417969 127.742188 Z M 377.417969 139.355469 "/>
<path fill-rule="nonzero" fill="rgb(26.27451%, 14.509804%, 20.392157%)" fill-opacity="1" d="M 377.417969 116.128906 L 389.03125 116.128906 L 389.03125 104.515625 L 377.417969 104.515625 Z M 377.417969 116.128906 "/>
<path fill-rule="nonzero" fill="rgb(26.27451%, 14.509804%, 20.392157%)" fill-opacity="1" d="M 377.417969 92.902344 L 389.03125 92.902344 L 389.03125 81.289062 L 377.417969 81.289062 Z M 377.417969 92.902344 "/>
<path fill-rule="nonzero" fill="rgb(26.27451%, 14.509804%, 20.392157%)" fill-opacity="1" d="M 377.417969 69.675781 L 389.03125 69.675781 L 389.03125 58.0625 L 377.417969 58.0625 Z M 377.417969 69.675781 "/>
<path fill-rule="nonzero" fill="rgb(26.27451%, 14.509804%, 20.392157%)" fill-opacity="1" d="M 377.417969 46.453125 L 389.03125 46.453125 L 389.03125 34.839844 L 377.417969 34.839844 Z M 377.417969 46.453125 "/>
<path fill-rule="nonzero" fill="rgb(26.27451%, 14.509804%, 20.392157%)" fill-opacity="1" d="M 389.03125 313.546875 L 400.644531 313.546875 L 400.644531 301.933594 L 389.03125 301.933594 Z M 389.03125 313.546875 "/>
<path fill-rule="nonzero" fill="rgb(26.27451%, 14.509804%, 20.392157%)" fill-opacity="1" d="M 389.03125 278.710938 L 400.644531 278.710938 L 400.644531 267.097656 L 389.03125 267.097656 Z M 389.03125 278.710938 "/>
<path fill-rule="nonzero" fill="rgb(26.27451%, 14.509804%, 20.392157%)" fill-opacity="1" d="M 389.03125 220.644531 L 400.644531 220.644531 L 400.644531 209.03125 L 389.03125 209.03125 Z M 389.03125 220.644531 "/>
<path fill-rule="nonzero" fill="rgb(26.27451%, 14.509804%, 20.392157%)" fill-opacity="1" d="M 389.03125 209.03125 L 400.644531 209.03125 L 400.644531 197.417969 L 389.03125 197.417969 Z M 389.03125 209.03125 "/>
<path fill-rule="nonzero" fill="rgb(26.27451%, 14.509804%, 20.392157%)" fill-opacity="1" d="M 389.03125 197.417969 L 400.644531 197.417969 L 400.644531 185.804688 L 389.03125 185.804688 Z M 389.03125 197.417969 "/>
<path fill-rule="nonzero" fill="rgb(26.27451%, 14.509804%, 20.392157%)" fill-opacity="1" d="M 389.03125 174.195312 L 400.644531 174.195312 L 400.644531 162.582031 L 389.03125 162.582031 Z M 389.03125 174.195312 "/>
<path fill-rule="nonzero" fill="rgb(26.27451%, 14.509804%, 20.392157%)" fill-opacity="1" d="M 389.03125 162.582031 L 400.644531 162.582031 L 400.644531 150.96875 L 389.03125 150.96875 Z M 389.03125 162.582031 "/>
<path fill-rule="nonzero" fill="rgb(26.27451%, 14.509804%, 20.392157%)" fill-opacity="1" d="M 389.03125 150.96875 L 400.644531 150.96875 L 400.644531 139.355469 L 389.03125 139.355469 Z M 389.03125 150.96875 "/>
<path fill-rule="nonzero" fill="rgb(26.27451%, 14.509804%, 20.392157%)" fill-opacity="1" d="M 389.03125 139.355469 L 400.644531 139.355469 L 400.644531 127.742188 L 389.03125 127.742188 Z M 389.03125 139.355469 "/>
<path fill-rule="nonzero" fill="rgb(26.27451%, 14.509804%, 20.392157%)" fill-opacity="1" d="M 389.03125 127.742188 L 400.644531 127.742188 L 400.644531 116.128906 L 389.03125 116.128906 Z M 389.03125 127.742188 "/>
<path fill-rule="nonzero" fill="rgb(26.27451%, 14.509804%, 20.392157%)" fill-opacity="1" d="M 400.644531 325.160156 L 412.257812 325.160156 L 412.257812 313.546875 L 400.644531 313.546875 Z M 400.644531 325.160156 "/>
<path fill-rule="nonzero" fill="rgb(26.27451%, 14.509804%, 20.392157%)" fill-opacity="1" d="M 400.644531 278.710938 L 412.257812 278.710938 L 412.257812 267.097656 L 400.644531 267.097656 Z M 400.644531 278.710938 "/>
<path fill-rule="nonzero" fill="rgb(26.27451%, 14.509804%, 20.392157%)" fill-opacity="1" d="M 400.644531 267.097656 L 412.257812 267.097656 L 412.257812 255.484375 L 400.644531 255.484375 Z M 400.644531 267.097656 "/>
<path fill-rule="nonzero" fill="rgb(26.27451%, 14.509804%, 20.392157%)" fill-opacity="1" d="M 400.644531 255.484375 L 412.257812 255.484375 L 412.257812 243.871094 L 400.644531 243.871094 Z M 400.644531 255.484375 "/>
<path fill-rule="nonzero" fill="rgb(26.27451%, 14.509804%, 20.392157%)" fill-opacity="1" d="M 400.644531 243.871094 L 412.257812 243.871094 L 412.257812 232.257812 L 400.644531 232.257812 Z M 400.644531 243.871094 "/>
<path fill-rule="nonzero" fill="rgb(26.27451%, 14.509804%, 20.392157%)" fill-opacity="1" d="M 400.644531 232.257812 L 412.257812 232.257812 L 412.257812 220.644531 L 400.644531 220.644531 Z M 400.644531 232.257812 "/>
<path fill-rule="nonzero" fill="rgb(26.27451%, 14.509804%, 20.392157%)" fill-opacity="1" d="M 400.644531 209.03125 L 412.257812 209.03125 L 412.257812 197.417969 L 400.644531 197.417969 Z M 400.644531 209.03125 "/>
<path fill-rule="nonzero" fill="rgb(26.27451%, 14.509804%, 20.392157%)" fill-opacity="1" d="M 400.644531 197.417969 L 412.257812 197.417969 L 412.257812 185.804688 L 400.644531 185.804688 Z M 400.644531 197.417969 "/>
<path fill-rule="nonzero" fill="rgb(26.27451%, 14.509804%, 20.392157%)" fill-opacity="1" d="M 400.644531 185.804688 L 412.257812 185.804688 L 412.257812 174.191406 L 400.644531 174.191406 Z M 400.644531 185.804688 "/>
<path fill-rule="nonzero" fill="rgb(26.27451%, 14.509804%, 20.392157%)" fill-opacity="1" d="M 400.644531 162.582031 L 412.257812 162.582031 L 412.257812 150.96875 L 400.644531 150.96875 Z M 400.644531 162.582031 "/>
<path fill-rule="nonzero" fill="rgb(26.27451%, 14.509804%, 20.392157%)" fill-opacity="1" d="M 400.644531 116.128906 L 412.257812 116.128906 L 412.257812 104.515625 L 400.644531 104.515625 Z M 400.644531 116.128906 "/>
<path fill-rule="nonzero" fill="rgb(26.27451%, 14.509804%, 20.392157%)" fill-opacity="1" d="M 400.644531 104.515625 L 412.257812 104.515625 L 412.257812 92.902344 L 400.644531 92.902344 Z M 400.644531 104.515625 "/>
<path fill-rule="nonzero" fill="rgb(26.27451%, 14.509804%, 20.392157%)" fill-opacity="1" d="M 400.644531 92.902344 L 412.257812 92.902344 L 412.257812 81.289062 L 400.644531 81.289062 Z M 400.644531 92.902344 "/>
<path fill-rule="nonzero" fill="rgb(26.27451%, 14.509804%, 20.392157%)" fill-opacity="1" d="M 400.644531 81.289062 L 412.257812 81.289062 L 412.257812 69.675781 L 400.644531 69.675781 Z M 400.644531 81.289062 "/>
<path fill-rule="nonzero" fill="rgb(26.27451%, 14.509804%, 20.392157%)" fill-opacity="1" d="M 400.644531 58.066406 L 412.257812 58.066406 L 412.257812 46.453125 L 400.644531 46.453125 Z M 400.644531 58.066406 "/>
<path fill-rule="nonzero" fill="rgb(26.27451%, 14.509804%, 20.392157%)" fill-opacity="1" d="M 400.644531 46.453125 L 412.257812 46.453125 L 412.257812 34.839844 L 400.644531 34.839844 Z M 400.644531 46.453125 "/>
<path fill-rule="nonzero" fill="rgb(26.27451%, 14.509804%, 20.392157%)" fill-opacity="1" d="M 412.257812 313.546875 L 423.871094 313.546875 L 423.871094 301.933594 L 412.257812 301.933594 Z M 412.257812 313.546875 "/>
<path fill-rule="nonzero" fill="rgb(26.27451%, 14.509804%, 20.392157%)" fill-opacity="1" d="M 412.257812 301.933594 L 423.871094 301.933594 L 423.871094 290.320312 L 412.257812 290.320312 Z M 412.257812 301.933594 "/>
<path fill-rule="nonzero" fill="rgb(26.27451%, 14.509804%, 20.392157%)" fill-opacity="1" d="M 412.257812 290.324219 L 423.871094 290.324219 L 423.871094 278.710938 L 412.257812 278.710938 Z M 412.257812 290.324219 "/>
<path fill-rule="nonzero" fill="rgb(26.27451%, 14.509804%, 20.392157%)" fill-opacity="1" d="M 412.257812 278.710938 L 423.871094 278.710938 L 423.871094 267.097656 L 412.257812 267.097656 Z M 412.257812 278.710938 "/>
<path fill-rule="nonzero" fill="rgb(26.27451%, 14.509804%, 20.392157%)" fill-opacity="1" d="M 412.257812 232.257812 L 423.871094 232.257812 L 423.871094 220.644531 L 412.257812 220.644531 Z M 412.257812 232.257812 "/>
<path fill-rule="nonzero" fill="rgb(26.27451%, 14.509804%, 20.392157%)" fill-opacity="1" d="M 412.257812 197.417969 L 423.871094 197.417969 L 423.871094 185.804688 L 412.257812 185.804688 Z M 412.257812 197.417969 "/>
<path fill-rule="nonzero" fill="rgb(26.27451%, 14.509804%, 20.392157%)" fill-opacity="1" d="M 412.257812 174.195312 L 423.871094 174.195312 L 423.871094 162.582031 L 412.257812 162.582031 Z M 412.257812 174.195312 "/>
<path fill-rule="nonzero" fill="rgb(26.27451%, 14.509804%, 20.392157%)" fill-opacity="1" d="M 412.257812 162.582031 L 423.871094 162.582031 L 423.871094 150.96875 L 412.257812 150.96875 Z M 412.257812 162.582031 "/>
<path fill-rule="nonzero" fill="rgb(26.27451%, 14.509804%, 20.392157%)" fill-opacity="1" d="M 412.257812 150.96875 L 423.871094 150.96875 L 423.871094 139.355469 L 412.257812 139.355469 Z M 412.257812 150.96875 "/>
<path fill-rule="nonzero" fill="rgb(26.27451%, 14.509804%, 20.392157%)" fill-opacity="1" d="M 423.871094 325.160156 L 435.484375 325.160156 L 435.484375 313.546875 L 423.871094 313.546875 Z M 423.871094 325.160156 "/>
<path fill-rule="nonzero" fill="rgb(26.27451%, 14.509804%, 20.392157%)" fill-opacity="1" d="M 423.871094 290.324219 L 435.484375 290.324219 L 435.484375 278.710938 L 423.871094 278.710938 Z M 423.871094 290.324219 "/>
<path fill-rule="nonzero" fill="rgb(26.27451%, 14.509804%, 20.392157%)" fill-opacity="1" d="M 423.871094 278.710938 L 435.484375 278.710938 L 435.484375 267.097656 L 423.871094 267.097656 Z M 423.871094 278.710938 "/>
<path fill-rule="nonzero" fill="rgb(26.27451%, 14.509804%, 20.392157%)" fill-opacity="1" d="M 423.871094 255.484375 L 435.484375 255.484375 L 435.484375 243.871094 L 423.871094 243.871094 Z M 423.871094 255.484375 "/>
<path fill-rule="nonzero" fill="rgb(26.27451%, 14.509804%, 20.392157%)" fill-opacity="1" d="M 423.871094 232.257812 L 435.484375 232.257812 L 435.484375 220.644531 L 423.871094 220.644531 Z M 423.871094 232.257812 "/>
<path fill-rule="nonzero" fill="rgb(26.27451%, 14.509804%, 20.392157%)" fill-opacity="1" d="M 423.871094 220.644531 L 435.484375 220.644531 L 435.484375 209.03125 L 423.871094 209.03125 Z M 423.871094 220.644531 "/>
<path fill-rule="nonzero" fill="rgb(26.27451%, 14.509804%, 20.392157%)" fill-opacity="1" d="M 423.871094 185.804688 L 435.484375 185.804688 L 435.484375 174.191406 L 423.871094 174.191406 Z M 423.871094 185.804688 "/>
<path fill-rule="nonzero" fill="rgb(26.27451%, 14.509804%, 20.392157%)" fill-opacity="1" d="M 423.871094 162.582031 L 435.484375 162.582031 L 435.484375 150.96875 L 423.871094 150.96875 Z M 423.871094 162.582031 "/>
<path fill-rule="nonzero" fill="rgb(26.27451%, 14.509804%, 20.392157%)" fill-opacity="1" d="M 423.871094 139.355469 L 435.484375 139.355469 L 435.484375 127.742188 L 423.871094 127.742188 Z M 423.871094 139.355469 "/>
<path fill-rule="nonzero" fill="rgb(26.27451%, 14.509804%, 20.392157%)" fill-opacity="1" d="M 423.871094 116.128906 L 435.484375 116.128906 L 435.484375 104.515625 L 423.871094 104.515625 Z M 423.871094 116.128906 "/>
<path fill-rule="nonzero" fill="rgb(26.27451%, 14.509804%, 20.392157%)" fill-opacity="1" d="M 423.871094 104.515625 L 435.484375 104.515625 L 435.484375 92.902344 L 423.871094 92.902344 Z M 423.871094 104.515625 "/>
<path fill-rule="nonzero" fill="rgb(26.27451%, 14.509804%, 20.392157%)" fill-opacity="1" d="M 423.871094 92.902344 L 435.484375 92.902344 L 435.484375 81.289062 L 423.871094 81.289062 Z M 423.871094 92.902344 "/>
<path fill-rule="nonzero" fill="rgb(26.27451%, 14.509804%, 20.392157%)" fill-opacity="1" d="M 423.871094 81.289062 L 435.484375 81.289062 L 435.484375 69.675781 L 423.871094 69.675781 Z M 423.871094 81.289062 "/>
<path fill-rule="nonzero" fill="rgb(26.27451%, 14.509804%, 20.392157%)" fill-opacity="1" d="M 423.871094 69.675781 L 435.484375 69.675781 L 435.484375 58.0625 L 423.871094 58.0625 Z M 423.871094 69.675781 "/>
<path fill-rule="nonzero" fill="rgb(26.27451%, 14.509804%, 20.392157%)" fill-opacity="1" d="M 423.871094 58.066406 L 435.484375 58.066406 L 435.484375 46.453125 L 423.871094 46.453125 Z M 423.871094 58.066406 "/>
<path fill-rule="nonzero" fill="rgb(26.27451%, 14.509804%, 20.392157%)" fill-opacity="1" d="M 423.871094 46.453125 L 435.484375 46.453125 L 435.484375 34.839844 L 423.871094 34.839844 Z M 423.871094 46.453125 "/>
<path fill-rule="nonzero" fill="rgb(26.27451%, 14.509804%, 20.392157%)" fill-opacity="1" d="M 435.484375 313.546875 L 447.097656 313.546875 L 447.097656 301.933594 L 435.484375 301.933594 Z M 435.484375 313.546875 "/>
<path fill-rule="nonzero" fill="rgb(26.27451%, 14.509804%, 20.392157%)" fill-opacity="1" d="M 435.484375 278.710938 L 447.097656 278.710938 L 447.097656 267.097656 L 435.484375 267.097656 Z M 435.484375 278.710938 "/>
<path fill-rule="nonzero" fill="rgb(26.27451%, 14.509804%, 20.392157%)" fill-opacity="1" d="M 435.484375 232.257812 L 447.097656 232.257812 L 447.097656 220.644531 L 435.484375 220.644531 Z M 435.484375 232.257812 "/>
<path fill-rule="nonzero" fill="rgb(26.27451%, 14.509804%, 20.392157%)" fill-opacity="1" d="M 435.484375 220.644531 L 447.097656 220.644531 L 447.097656 209.03125 L 435.484375 209.03125 Z M 435.484375 220.644531 "/>
<path fill-rule="nonzero" fill="rgb(26.27451%, 14.509804%, 20.392157%)" fill-opacity="1" d="M 435.484375 185.804688 L 447.097656 185.804688 L 447.097656 174.191406 L 435.484375 174.191406 Z M 435.484375 185.804688 "/>
<path fill-rule="nonzero" fill="rgb(26.27451%, 14.509804%, 20.392157%)" fill-opacity="1" d="M 435.484375 162.582031 L 447.097656 162.582031 L 447.097656 150.96875 L 435.484375 150.96875 Z M 435.484375 162.582031 "/>
<path fill-rule="nonzero" fill="rgb(26.27451%, 14.509804%, 20.392157%)" fill-opacity="1" d="M 435.484375 150.96875 L 447.097656 150.96875 L 447.097656 139.355469 L 435.484375 139.355469 Z M 435.484375 150.96875 "/>
<path fill-rule="nonzero" fill="rgb(26.27451%, 14.509804%, 20.392157%)" fill-opacity="1" d="M 435.484375 116.128906 L 447.097656 116.128906 L 447.097656 104.515625 L 435.484375 104.515625 Z M 435.484375 116.128906 "/>
<path fill-rule="nonzero" fill="rgb(26.27451%, 14.509804%, 20.392157%)" fill-opacity="1" d="M 435.484375 46.453125 L 447.097656 46.453125 L 447.097656 34.839844 L 435.484375 34.839844 Z M 435.484375 46.453125 "/>
<path fill-rule="nonzero" fill="rgb(26.27451%, 14.509804%, 20.392157%)" fill-opacity="1" d="M 447.097656 313.546875 L 458.710938 313.546875 L 458.710938 301.933594 L 447.097656 301.933594 Z M 447.097656 313.546875 "/>
<path fill-rule="nonzero" fill="rgb(26.27451%, 14.509804%, 20.392157%)" fill-opacity="1" d="M 447.097656 301.933594 L 458.710938 301.933594 L 458.710938 290.320312 L 447.097656 290.320312 Z M 447.097656 301.933594 "/>
<path fill-rule="nonzero" fill="rgb(26.27451%, 14.509804%, 20.392157%)" fill-opacity="1" d="M 447.097656 278.710938 L 458.710938 278.710938 L 458.710938 267.097656 L 447.097656 267.097656 Z M 447.097656 278.710938 "/>
<path fill-rule="nonzero" fill="rgb(26.27451%, 14.509804%, 20.392157%)" fill-opacity="1" d="M 447.097656 267.097656 L 458.710938 267.097656 L 458.710938 255.484375 L 447.097656 255.484375 Z M 447.097656 267.097656 "/>
<path fill-rule="nonzero" fill="rgb(26.27451%, 14.509804%, 20.392157%)" fill-opacity="1" d="M 447.097656 255.484375 L 458.710938 255.484375 L 458.710938 243.871094 L 447.097656 243.871094 Z M 447.097656 255.484375 "/>
<path fill-rule="nonzero" fill="rgb(26.27451%, 14.509804%, 20.392157%)" fill-opacity="1" d="M 447.097656 243.871094 L 458.710938 243.871094 L 458.710938 232.257812 L 447.097656 232.257812 Z M 447.097656 243.871094 "/>
<path fill-rule="nonzero" fill="rgb(26.27451%, 14.509804%, 20.392157%)" fill-opacity="1" d="M 447.097656 232.257812 L 458.710938 232.257812 L 458.710938 220.644531 L 447.097656 220.644531 Z M 447.097656 232.257812 "/>
<path fill-rule="nonzero" fill="rgb(26.27451%, 14.509804%, 20.392157%)" fill-opacity="1" d="M 447.097656 209.03125 L 458.710938 209.03125 L 458.710938 197.417969 L 447.097656 197.417969 Z M 447.097656 209.03125 "/>
<path fill-rule="nonzero" fill="rgb(26.27451%, 14.509804%, 20.392157%)" fill-opacity="1" d="M 447.097656 197.417969 L 458.710938 197.417969 L 458.710938 185.804688 L 447.097656 185.804688 Z M 447.097656 197.417969 "/>
<path fill-rule="nonzero" fill="rgb(26.27451%, 14.509804%, 20.392157%)" fill-opacity="1" d="M 447.097656 162.582031 L 458.710938 162.582031 L 458.710938 150.96875 L 447.097656 150.96875 Z M 447.097656 162.582031 "/>
<path fill-rule="nonzero" fill="rgb(26.27451%, 14.509804%, 20.392157%)" fill-opacity="1" d="M 447.097656 150.96875 L 458.710938 150.96875 L 458.710938 139.355469 L 447.097656 139.355469 Z M 447.097656 150.96875 "/>
<path fill-rule="nonzero" fill="rgb(26.27451%, 14.509804%, 20.392157%)" fill-opacity="1" d="M 447.097656 116.128906 L 458.710938 116.128906 L 458.710938 104.515625 L 447.097656 104.515625 Z M 447.097656 116.128906 "/>
<path fill-rule="nonzero" fill="rgb(26.27451%, 14.509804%, 20.392157%)" fill-opacity="1" d="M 447.097656 92.902344 L 458.710938 92.902344 L 458.710938 81.289062 L 447.097656 81.289062 Z M 447.097656 92.902344 "/>
<path fill-rule="nonzero" fill="rgb(26.27451%, 14.509804%, 20.392157%)" fill-opacity="1" d="M 447.097656 81.289062 L 458.710938 81.289062 L 458.710938 69.675781 L 447.097656 69.675781 Z M 447.097656 81.289062 "/>
<path fill-rule="nonzero" fill="rgb(26.27451%, 14.509804%, 20.392157%)" fill-opacity="1" d="M 447.097656 69.675781 L 458.710938 69.675781 L 458.710938 58.0625 L 447.097656 58.0625 Z M 447.097656 69.675781 "/>
<path fill-rule="nonzero" fill="rgb(26.27451%, 14.509804%, 20.392157%)" fill-opacity="1" d="M 447.097656 46.453125 L 458.710938 46.453125 L 458.710938 34.839844 L 447.097656 34.839844 Z M 447.097656 46.453125 "/>
<path fill-rule="nonzero" fill="rgb(26.27451%, 14.509804%, 20.392157%)" fill-opacity="1" d="M 458.710938 325.160156 L 470.324219 325.160156 L 470.324219 313.546875 L 458.710938 313.546875 Z M 458.710938 325.160156 "/>
<path fill-rule="nonzero" fill="rgb(26.27451%, 14.509804%, 20.392157%)" fill-opacity="1" d="M 458.710938 301.933594 L 470.324219 301.933594 L 470.324219 290.320312 L 458.710938 290.320312 Z M 458.710938 301.933594 "/>
<path fill-rule="nonzero" fill="rgb(26.27451%, 14.509804%, 20.392157%)" fill-opacity="1" d="M 458.710938 220.644531 L 470.324219 220.644531 L 470.324219 209.03125 L 458.710938 209.03125 Z M 458.710938 220.644531 "/>
<path fill-rule="nonzero" fill="rgb(26.27451%, 14.509804%, 20.392157%)" fill-opacity="1" d="M 458.710938 209.03125 L 470.324219 209.03125 L 470.324219 197.417969 L 458.710938 197.417969 Z M 458.710938 209.03125 "/>
<path fill-rule="nonzero" fill="rgb(26.27451%, 14.509804%, 20.392157%)" fill-opacity="1" d="M 458.710938 174.195312 L 470.324219 174.195312 L 470.324219 162.582031 L 458.710938 162.582031 Z M 458.710938 174.195312 "/>
<path fill-rule="nonzero" fill="rgb(26.27451%, 14.509804%, 20.392157%)" fill-opacity="1" d="M 458.710938 162.582031 L 470.324219 162.582031 L 470.324219 150.96875 L 458.710938 150.96875 Z M 458.710938 162.582031 "/>
<path fill-rule="nonzero" fill="rgb(26.27451%, 14.509804%, 20.392157%)" fill-opacity="1" d="M 458.710938 150.96875 L 470.324219 150.96875 L 470.324219 139.355469 L 458.710938 139.355469 Z M 458.710938 150.96875 "/>
<path fill-rule="nonzero" fill="rgb(26.27451%, 14.509804%, 20.392157%)" fill-opacity="1" d="M 458.710938 116.128906 L 470.324219 116.128906 L 470.324219 104.515625 L 458.710938 104.515625 Z M 458.710938 116.128906 "/>
<path fill-rule="nonzero" fill="rgb(26.27451%, 14.509804%, 20.392157%)" fill-opacity="1" d="M 458.710938 92.902344 L 470.324219 92.902344 L 470.324219 81.289062 L 458.710938 81.289062 Z M 458.710938 92.902344 "/>
<path fill-rule="nonzero" fill="rgb(26.27451%, 14.509804%, 20.392157%)" fill-opacity="1" d="M 458.710938 81.289062 L 470.324219 81.289062 L 470.324219 69.675781 L 458.710938 69.675781 Z M 458.710938 81.289062 "/>
<path fill-rule="nonzero" fill="rgb(26.27451%, 14.509804%, 20.392157%)" fill-opacity="1" d="M 458.710938 69.675781 L 470.324219 69.675781 L 470.324219 58.0625 L 458.710938 58.0625 Z M 458.710938 69.675781 "/>
<path fill-rule="nonzero" fill="rgb(26.27451%, 14.509804%, 20.392157%)" fill-opacity="1" d="M 458.710938 46.453125 L 470.324219 46.453125 L 470.324219 34.839844 L 458.710938 34.839844 Z M 458.710938 46.453125 "/>
<path fill-rule="nonzero" fill="rgb(26.27451%, 14.509804%, 20.392157%)" fill-opacity="1" d="M 470.324219 313.546875 L 481.9375 313.546875 L 481.9375 301.933594 L 470.324219 301.933594 Z M 470.324219 313.546875 "/>
<path fill-rule="nonzero" fill="rgb(26.27451%, 14.509804%, 20.392157%)" fill-opacity="1" d="M 470.324219 301.933594 L 481.9375 301.933594 L 481.9375 290.320312 L 470.324219 290.320312 Z M 470.324219 301.933594 "/>
<path fill-rule="nonzero" fill="rgb(26.27451%, 14.509804%, 20.392157%)" fill-opacity="1" d="M 470.324219 243.871094 L 481.9375 243.871094 L 481.9375 232.257812 L 470.324219 232.257812 Z M 470.324219 243.871094 "/>
<path fill-rule="nonzero" fill="rgb(26.27451%, 14.509804%, 20.392157%)" fill-opacity="1" d="M 470.324219 232.257812 L 481.9375 232.257812 L 481.9375 220.644531 L 470.324219 220.644531 Z M 470.324219 232.257812 "/>
<path fill-rule="nonzero" fill="rgb(26.27451%, 14.509804%, 20.392157%)" fill-opacity="1" d="M 470.324219 220.644531 L 481.9375 220.644531 L 481.9375 209.03125 L 470.324219 209.03125 Z M 470.324219 220.644531 "/>
<path fill-rule="nonzero" fill="rgb(26.27451%, 14.509804%, 20.392157%)" fill-opacity="1" d="M 470.324219 209.03125 L 481.9375 209.03125 L 481.9375 197.417969 L 470.324219 197.417969 Z M 470.324219 209.03125 "/>
<path fill-rule="nonzero" fill="rgb(26.27451%, 14.509804%, 20.392157%)" fill-opacity="1" d="M 470.324219 174.195312 L 481.9375 174.195312 L 481.9375 162.582031 L 470.324219 162.582031 Z M 470.324219 174.195312 "/>
<path fill-rule="nonzero" fill="rgb(26.27451%, 14.509804%, 20.392157%)" fill-opacity="1" d="M 470.324219 150.96875 L 481.9375 150.96875 L 481.9375 139.355469 L 470.324219 139.355469 Z M 470.324219 150.96875 "/>
<path fill-rule="nonzero" fill="rgb(26.27451%, 14.509804%, 20.392157%)" fill-opacity="1" d="M 470.324219 116.128906 L 481.9375 116.128906 L 481.9375 104.515625 L 470.324219 104.515625 Z M 470.324219 116.128906 "/>
<path fill-rule="nonzero" fill="rgb(26.27451%, 14.509804%, 20.392157%)" fill-opacity="1" d="M 470.324219 92.902344 L 481.9375 92.902344 L 481.9375 81.289062 L 470.324219 81.289062 Z M 470.324219 92.902344 "/>
<path fill-rule="nonzero" fill="rgb(26.27451%, 14.509804%, 20.392157%)" fill-opacity="1" d="M 470.324219 81.289062 L 481.9375 81.289062 L 481.9375 69.675781 L 470.324219 69.675781 Z M 470.324219 81.289062 "/>
<path fill-rule="nonzero" fill="rgb(26.27451%, 14.509804%, 20.392157%)" fill-opacity="1" d="M 470.324219 69.675781 L 481.9375 69.675781 L 481.9375 58.0625 L 470.324219 58.0625 Z M 470.324219 69.675781 "/>
<path fill-rule="nonzero" fill="rgb(26.27451%, 14.509804%, 20.392157%)" fill-opacity="1" d="M 470.324219 46.453125 L 481.9375 46.453125 L 481.9375 34.839844 L 470.324219 34.839844 Z M 470.324219 46.453125 "/>
<path fill-rule="nonzero" fill="rgb(26.27451%, 14.509804%, 20.392157%)" fill-opacity="1" d="M 481.933594 313.546875 L 493.546875 313.546875 L 493.546875 301.933594 L 481.933594 301.933594 Z M 481.933594 313.546875 "/>
<path fill-rule="nonzero" fill="rgb(26.27451%, 14.509804%, 20.392157%)" fill-opacity="1" d="M 481.933594 301.933594 L 493.546875 301.933594 L 493.546875 290.320312 L 481.933594 290.320312 Z M 481.933594 301.933594 "/>
<path fill-rule="nonzero" fill="rgb(26.27451%, 14.509804%, 20.392157%)" fill-opacity="1" d="M 481.933594 243.871094 L 493.546875 243.871094 L 493.546875 232.257812 L 481.933594 232.257812 Z M 481.933594 243.871094 "/>
<path fill-rule="nonzero" fill="rgb(26.27451%, 14.509804%, 20.392157%)" fill-opacity="1" d="M 481.933594 232.257812 L 493.546875 232.257812 L 493.546875 220.644531 L 481.933594 220.644531 Z M 481.933594 232.257812 "/>
<path fill-rule="nonzero" fill="rgb(26.27451%, 14.509804%, 20.392157%)" fill-opacity="1" d="M 481.933594 209.03125 L 493.546875 209.03125 L 493.546875 197.417969 L 481.933594 197.417969 Z M 481.933594 209.03125 "/>
<path fill-rule="nonzero" fill="rgb(26.27451%, 14.509804%, 20.392157%)" fill-opacity="1" d="M 481.933594 197.417969 L 493.546875 197.417969 L 493.546875 185.804688 L 481.933594 185.804688 Z M 481.933594 197.417969 "/>
<path fill-rule="nonzero" fill="rgb(26.27451%, 14.509804%, 20.392157%)" fill-opacity="1" d="M 481.933594 174.195312 L 493.546875 174.195312 L 493.546875 162.582031 L 481.933594 162.582031 Z M 481.933594 174.195312 "/>
<path fill-rule="nonzero" fill="rgb(26.27451%, 14.509804%, 20.392157%)" fill-opacity="1" d="M 481.933594 150.96875 L 493.546875 150.96875 L 493.546875 139.355469 L 481.933594 139.355469 Z M 481.933594 150.96875 "/>
<path fill-rule="nonzero" fill="rgb(26.27451%, 14.509804%, 20.392157%)" fill-opacity="1" d="M 481.933594 116.128906 L 493.546875 116.128906 L 493.546875 104.515625 L 481.933594 104.515625 Z M 481.933594 116.128906 "/>
<path fill-rule="nonzero" fill="rgb(26.27451%, 14.509804%, 20.392157%)" fill-opacity="1" d="M 481.933594 46.453125 L 493.546875 46.453125 L 493.546875 34.839844 L 481.933594 34.839844 Z M 481.933594 46.453125 "/>
<path fill-rule="nonzero" fill="rgb(26.27451%, 14.509804%, 20.392157%)" fill-opacity="1" d="M 493.546875 325.160156 L 505.160156 325.160156 L 505.160156 313.546875 L 493.546875 313.546875 Z M 493.546875 325.160156 "/>
<path fill-rule="nonzero" fill="rgb(26.27451%, 14.509804%, 20.392157%)" fill-opacity="1" d="M 493.546875 313.546875 L 505.160156 313.546875 L 505.160156 301.933594 L 493.546875 301.933594 Z M 493.546875 313.546875 "/>
<path fill-rule="nonzero" fill="rgb(26.27451%, 14.509804%, 20.392157%)" fill-opacity="1" d="M 493.546875 301.933594 L 505.160156 301.933594 L 505.160156 290.320312 L 493.546875 290.320312 Z M 493.546875 301.933594 "/>
<path fill-rule="nonzero" fill="rgb(26.27451%, 14.509804%, 20.392157%)" fill-opacity="1" d="M 493.546875 278.710938 L 505.160156 278.710938 L 505.160156 267.097656 L 493.546875 267.097656 Z M 493.546875 278.710938 "/>
<path fill-rule="nonzero" fill="rgb(26.27451%, 14.509804%, 20.392157%)" fill-opacity="1" d="M 493.546875 267.097656 L 505.160156 267.097656 L 505.160156 255.484375 L 493.546875 255.484375 Z M 493.546875 267.097656 "/>
<path fill-rule="nonzero" fill="rgb(26.27451%, 14.509804%, 20.392157%)" fill-opacity="1" d="M 493.546875 255.484375 L 505.160156 255.484375 L 505.160156 243.871094 L 493.546875 243.871094 Z M 493.546875 255.484375 "/>
<path fill-rule="nonzero" fill="rgb(26.27451%, 14.509804%, 20.392157%)" fill-opacity="1" d="M 493.546875 220.644531 L 505.160156 220.644531 L 505.160156 209.03125 L 493.546875 209.03125 Z M 493.546875 220.644531 "/>
<path fill-rule="nonzero" fill="rgb(26.27451%, 14.509804%, 20.392157%)" fill-opacity="1" d="M 493.546875 209.03125 L 505.160156 209.03125 L 505.160156 197.417969 L 493.546875 197.417969 Z M 493.546875 209.03125 "/>
<path fill-rule="nonzero" fill="rgb(26.27451%, 14.509804%, 20.392157%)" fill-opacity="1" d="M 493.546875 185.804688 L 505.160156 185.804688 L 505.160156 174.191406 L 493.546875 174.191406 Z M 493.546875 185.804688 "/>
<path fill-rule="nonzero" fill="rgb(26.27451%, 14.509804%, 20.392157%)" fill-opacity="1" d="M 493.546875 174.195312 L 505.160156 174.195312 L 505.160156 162.582031 L 493.546875 162.582031 Z M 493.546875 174.195312 "/>
<path fill-rule="nonzero" fill="rgb(26.27451%, 14.509804%, 20.392157%)" fill-opacity="1" d="M 493.546875 162.582031 L 505.160156 162.582031 L 505.160156 150.96875 L 493.546875 150.96875 Z M 493.546875 162.582031 "/>
<path fill-rule="nonzero" fill="rgb(26.27451%, 14.509804%, 20.392157%)" fill-opacity="1" d="M 493.546875 139.355469 L 505.160156 139.355469 L 505.160156 127.742188 L 493.546875 127.742188 Z M 493.546875 139.355469 "/>
<path fill-rule="nonzero" fill="rgb(26.27451%, 14.509804%, 20.392157%)" fill-opacity="1" d="M 493.546875 116.128906 L 505.160156 116.128906 L 505.160156 104.515625 L 493.546875 104.515625 Z M 493.546875 116.128906 "/>
<path fill-rule="nonzero" fill="rgb(26.27451%, 14.509804%, 20.392157%)" fill-opacity="1" d="M 493.546875 104.515625 L 505.160156 104.515625 L 505.160156 92.902344 L 493.546875 92.902344 Z M 493.546875 104.515625 "/>
<path fill-rule="nonzero" fill="rgb(26.27451%, 14.509804%, 20.392157%)" fill-opacity="1" d="M 493.546875 92.902344 L 505.160156 92.902344 L 505.160156 81.289062 L 493.546875 81.289062 Z M 493.546875 92.902344 "/>
<path fill-rule="nonzero" fill="rgb(26.27451%, 14.509804%, 20.392157%)" fill-opacity="1" d="M 493.546875 81.289062 L 505.160156 81.289062 L 505.160156 69.675781 L 493.546875 69.675781 Z M 493.546875 81.289062 "/>
<path fill-rule="nonzero" fill="rgb(26.27451%, 14.509804%, 20.392157%)" fill-opacity="1" d="M 493.546875 69.675781 L 505.160156 69.675781 L 505.160156 58.0625 L 493.546875 58.0625 Z M 493.546875 69.675781 "/>
<path fill-rule="nonzero" fill="rgb(26.27451%, 14.509804%, 20.392157%)" fill-opacity="1" d="M 493.546875 58.066406 L 505.160156 58.066406 L 505.160156 46.453125 L 493.546875 46.453125 Z M 493.546875 58.066406 "/>
<path fill-rule="nonzero" fill="rgb(26.27451%, 14.509804%, 20.392157%)" fill-opacity="1" d="M 493.546875 46.453125 L 505.160156 46.453125 L 505.160156 34.839844 L 493.546875 34.839844 Z M 493.546875 46.453125 "/>
</svg>
