<?xml version="1.0" encoding="UTF-8"?>
<svg xmlns="http://www.w3.org/2000/svg" xmlns:xlink="http://www.w3.org/1999/xlink" width="720" height="396" viewBox="0 0 720 396">
<path fill="none" stroke-width="1.066978" stroke-linecap="butt" stroke-linejoin="round" stroke="rgb(93.72549%, 83.921569%, 67.45098%)" stroke-opacity="1" stroke-miterlimit="1" d="M 302.960938 227.765625 L 304.460938 228.253906 L 305.964844 228.742188 L 307.464844 229.230469 L 308.96875 229.722656 L 310.472656 230.210938 L 311.972656 230.699219 L 313.476562 231.1875 L 314.976562 231.679688 L 317.984375 232.65625 L 319.484375 233.144531 L 320.988281 233.632812 L 322.488281 234.125 L 325.496094 235.101562 L 326.996094 235.589844 L 328.5 236.082031 L 330 236.570312 L 333.007812 237.546875 L 334.507812 238.035156 L 336.011719 238.527344 L 337.511719 239.015625 L 340.519531 239.992188 L 342.019531 240.484375 L 345.027344 241.460938 L 346.527344 241.949219 L 348.03125 242.4375 L 349.53125 242.929688 L 352.539062 243.90625 L 354.039062 244.394531 L 355.542969 244.886719 L 357.042969 245.375 L 360.050781 246.351562 L 361.550781 246.839844 L 363.054688 247.332031 L 364.554688 247.820312 L 367.5625 248.796875 L 369.0625 249.289062 L 370.566406 249.777344 L 372.066406 250.265625 L 375.074219 251.242188 L 376.574219 251.734375 L 378.078125 252.222656 L 379.578125 252.710938 L 381.082031 253.199219 L 382.585938 253.691406 L 384.085938 254.179688 L 385.589844 254.667969 L 387.089844 255.15625 L 388.59375 255.644531 L 390.097656 256.136719 L 391.597656 256.625 L 393.101562 257.113281 L 394.601562 257.601562 L 396.105469 258.09375 L 397.609375 258.582031 L 399.109375 259.070312 L 400.613281 259.558594 L 402.113281 260.046875 L 403.617188 260.539062 L 405.121094 261.027344 L 406.621094 261.515625 L 408.125 262.003906 L 409.628906 262.496094 L 411.128906 262.984375 L 412.632812 263.472656 L 414.132812 263.960938 L 415.636719 264.449219 L 417.140625 264.941406 L 418.640625 265.429688 L 420.144531 265.917969 L 421.644531 266.40625 L 423.148438 266.898438 L 424.652344 267.386719 L 426.152344 267.875 L 427.65625 268.363281 L 429.15625 268.851562 L 430.660156 269.34375 L 432.164062 269.832031 L 433.664062 270.320312 L 435.167969 270.808594 L 436.667969 271.300781 L 439.675781 272.277344 L 441.175781 272.765625 L 442.679688 273.257812 L 444.179688 273.746094 L 447.1875 274.722656 L 448.6875 275.210938 L 450.191406 275.703125 L 451.691406 276.191406 L 453.195312 276.679688 "/>
<path fill="none" stroke-width="1.066978" stroke-linecap="butt" stroke-linejoin="round" stroke="rgb(93.72549%, 83.921569%, 67.45098%)" stroke-opacity="1" stroke-miterlimit="1" d="M 302.960938 227.765625 L 301.539062 228.082031 L 300.121094 228.398438 L 298.699219 228.714844 L 297.28125 229.035156 L 295.859375 229.351562 L 294.441406 229.667969 L 293.019531 229.984375 L 291.601562 230.304688 L 290.179688 230.621094 L 288.761719 230.9375 L 287.339844 231.253906 L 285.921875 231.574219 L 284.5 231.890625 L 281.664062 232.523438 L 280.242188 232.84375 L 278.824219 233.160156 L 277.402344 233.476562 L 275.984375 233.792969 L 274.5625 234.109375 L 273.144531 234.429688 L 271.722656 234.746094 L 270.304688 235.0625 L 268.882812 235.378906 L 267.464844 235.699219 L 266.042969 236.015625 L 264.625 236.332031 L 263.203125 236.648438 L 261.785156 236.96875 L 260.363281 237.285156 L 257.527344 237.917969 L 256.105469 238.238281 L 254.6875 238.554688 L 253.265625 238.871094 L 251.847656 239.1875 L 250.425781 239.503906 L 249.007812 239.824219 L 247.585938 240.140625 L 246.167969 240.457031 L 244.746094 240.773438 L 243.328125 241.09375 L 241.90625 241.410156 L 240.488281 241.726562 L 239.066406 242.042969 L 237.648438 242.363281 L 236.226562 242.679688 L 233.390625 243.3125 L 231.96875 243.632812 L 230.550781 243.949219 L 229.128906 244.265625 L 227.710938 244.582031 L 226.289062 244.902344 L 224.871094 245.21875 L 223.449219 245.535156 L 222.03125 245.851562 L 220.609375 246.167969 L 219.191406 246.488281 L 217.769531 246.804688 L 216.351562 247.121094 L 214.929688 247.4375 L 213.511719 247.757812 L 212.089844 248.074219 L 209.253906 248.707031 L 207.832031 249.027344 L 206.414062 249.34375 L 204.992188 249.660156 L 203.574219 249.976562 L 202.152344 250.296875 L 200.734375 250.613281 L 199.3125 250.929688 L 197.894531 251.246094 L 196.472656 251.5625 L 195.054688 251.882812 L 193.632812 252.199219 L 192.214844 252.515625 L 190.792969 252.832031 L 189.375 253.152344 L 187.953125 253.46875 L 185.117188 254.101562 L 183.695312 254.421875 L 182.277344 254.738281 L 180.855469 255.054688 L 179.4375 255.371094 L 178.015625 255.691406 L 176.597656 256.007812 L 175.175781 256.324219 L 173.757812 256.640625 L 172.335938 256.957031 L 170.917969 257.277344 L 169.496094 257.59375 L 168.078125 257.910156 L 166.65625 258.226562 L 165.238281 258.546875 L 163.820312 258.863281 L 162.398438 259.179688 L 160.980469 259.496094 "/>
<path fill="none" stroke-width="1.066978" stroke-linecap="butt" stroke-linejoin="round" stroke="rgb(93.72549%, 83.921569%, 67.45098%)" stroke-opacity="1" stroke-miterlimit="1" d="M 453.195312 276.679688 L 454.628906 276.621094 L 457.488281 276.503906 L 458.921875 276.445312 L 460.351562 276.386719 L 461.785156 276.328125 L 463.214844 276.269531 L 464.648438 276.210938 L 466.078125 276.152344 L 467.511719 276.09375 L 468.941406 276.035156 L 470.375 275.976562 L 471.804688 275.917969 L 473.238281 275.859375 L 474.667969 275.800781 L 476.101562 275.742188 L 477.53125 275.683594 L 478.964844 275.625 L 480.394531 275.566406 L 481.828125 275.507812 L 484.6875 275.390625 L 486.121094 275.332031 L 487.550781 275.273438 L 488.984375 275.210938 L 490.414062 275.152344 L 491.847656 275.09375 L 493.277344 275.035156 L 494.710938 274.976562 L 496.140625 274.917969 L 497.574219 274.859375 L 499.003906 274.800781 L 500.4375 274.742188 L 501.867188 274.683594 L 503.300781 274.625 L 504.730469 274.566406 L 506.164062 274.507812 L 509.023438 274.390625 L 510.457031 274.332031 L 511.886719 274.273438 L 513.320312 274.214844 L 514.75 274.15625 L 516.183594 274.097656 L 517.613281 274.039062 L 519.046875 273.980469 L 520.476562 273.921875 L 521.910156 273.863281 L 523.339844 273.804688 L 524.773438 273.746094 L 526.203125 273.6875 L 527.636719 273.628906 L 529.066406 273.570312 L 530.5 273.511719 L 531.929688 273.453125 L 533.363281 273.394531 L 536.222656 273.277344 L 537.65625 273.21875 L 539.085938 273.160156 L 540.519531 273.101562 L 541.949219 273.042969 L 543.382812 272.984375 L 544.8125 272.925781 L 546.246094 272.867188 L 547.675781 272.808594 L 549.109375 272.75 L 550.539062 272.691406 L 551.972656 272.628906 L 553.402344 272.570312 L 554.835938 272.511719 L 556.265625 272.453125 L 557.699219 272.394531 L 560.558594 272.277344 L 561.992188 272.21875 L 563.421875 272.160156 L 564.855469 272.101562 L 566.285156 272.042969 L 567.71875 271.984375 L 569.148438 271.925781 L 570.582031 271.867188 L 572.011719 271.808594 L 573.445312 271.75 L 574.875 271.691406 L 576.308594 271.632812 L 577.738281 271.574219 L 579.171875 271.515625 L 580.601562 271.457031 L 582.035156 271.398438 L 583.464844 271.339844 L 584.898438 271.28125 L 587.757812 271.164062 L 589.191406 271.105469 L 590.621094 271.046875 L 592.054688 270.988281 L 593.484375 270.929688 L 594.917969 270.871094 L 596.347656 270.8125 "/>
<path fill="none" stroke-width="1.066978" stroke-linecap="butt" stroke-linejoin="round" stroke="rgb(93.72549%, 83.921569%, 67.45098%)" stroke-opacity="1" stroke-miterlimit="1" d="M 302.960938 227.765625 L 303.980469 227.28125 L 305 226.792969 L 308.058594 225.339844 L 309.078125 224.851562 L 310.097656 224.367188 L 311.121094 223.882812 L 312.140625 223.398438 L 313.160156 222.910156 L 316.21875 221.457031 L 317.238281 220.96875 L 318.257812 220.484375 L 319.28125 220 L 321.320312 219.03125 L 322.339844 218.542969 L 325.398438 217.089844 L 326.417969 216.601562 L 327.441406 216.117188 L 329.480469 215.148438 L 330.5 214.660156 L 333.558594 213.207031 L 334.582031 212.722656 L 335.601562 212.234375 L 338.660156 210.78125 L 339.679688 210.292969 L 341.71875 209.324219 L 342.742188 208.839844 L 343.761719 208.351562 L 347.839844 206.414062 L 348.859375 205.925781 L 349.878906 205.441406 L 350.902344 204.957031 L 351.921875 204.472656 L 352.941406 203.984375 L 356 202.53125 L 357.019531 202.042969 L 358.039062 201.558594 L 359.0625 201.074219 L 360.082031 200.589844 L 361.101562 200.101562 L 365.179688 198.164062 L 366.199219 197.675781 L 367.222656 197.191406 L 369.261719 196.222656 L 370.28125 195.734375 L 373.339844 194.28125 L 374.359375 193.792969 L 375.382812 193.308594 L 378.441406 191.855469 L 379.460938 191.367188 L 382.519531 189.914062 L 383.542969 189.425781 L 386.601562 187.972656 L 387.621094 187.484375 L 389.660156 186.515625 L 390.683594 186.03125 L 391.703125 185.542969 L 395.78125 183.605469 L 396.800781 183.117188 L 397.820312 182.632812 L 398.84375 182.148438 L 399.863281 181.664062 L 400.882812 181.175781 L 403.941406 179.722656 L 404.960938 179.234375 "/>
<path fill="none" stroke-width="1.066978" stroke-linecap="butt" stroke-linejoin="round" stroke="rgb(93.72549%, 83.921569%, 67.45098%)" stroke-opacity="1" stroke-miterlimit="1" d="M 453.195312 276.679688 L 452.714844 275.707031 L 452.230469 274.730469 L 451.75 273.757812 L 451.265625 272.78125 L 450.785156 271.808594 L 450.300781 270.832031 L 449.820312 269.859375 L 449.335938 268.882812 L 448.855469 267.910156 L 448.371094 266.9375 L 447.890625 265.960938 L 447.40625 264.988281 L 446.925781 264.011719 L 446.441406 263.039062 L 445.960938 262.0625 L 445.476562 261.089844 L 444.996094 260.113281 L 444.511719 259.140625 L 444.03125 258.164062 L 443.550781 257.191406 L 443.066406 256.214844 L 442.585938 255.242188 L 442.101562 254.269531 L 441.621094 253.292969 L 441.136719 252.320312 L 440.65625 251.34375 L 440.171875 250.371094 L 439.691406 249.394531 L 439.207031 248.421875 L 438.726562 247.445312 L 438.242188 246.472656 L 437.761719 245.496094 L 437.277344 244.523438 L 436.796875 243.550781 L 436.3125 242.574219 L 435.832031 241.601562 L 435.347656 240.625 L 434.867188 239.652344 L 434.382812 238.675781 L 433.902344 237.703125 L 433.417969 236.726562 L 432.9375 235.753906 L 432.457031 234.777344 L 431.972656 233.804688 L 431.492188 232.832031 L 431.007812 231.855469 L 430.527344 230.882812 L 430.042969 229.90625 L 429.5625 228.933594 L 429.078125 227.957031 L 428.597656 226.984375 L 428.113281 226.007812 L 427.632812 225.035156 L 427.148438 224.058594 L 426.667969 223.085938 L 426.183594 222.113281 L 425.703125 221.136719 L 425.21875 220.164062 L 424.738281 219.1875 L 424.253906 218.214844 L 423.773438 217.238281 L 423.289062 216.265625 L 422.808594 215.289062 L 422.324219 214.316406 L 421.84375 213.339844 L 421.363281 212.367188 L 420.878906 211.394531 L 420.398438 210.417969 L 419.914062 209.445312 L 419.433594 208.46875 L 418.949219 207.496094 L 418.46875 206.519531 L 417.984375 205.546875 L 417.503906 204.570312 L 417.019531 203.597656 L 416.539062 202.621094 L 416.054688 201.648438 L 415.574219 200.671875 L 415.089844 199.699219 L 414.609375 198.726562 L 414.125 197.75 L 413.644531 196.777344 L 413.160156 195.800781 L 412.679688 194.828125 L 412.195312 193.851562 L 411.714844 192.878906 L 411.234375 191.902344 L 410.75 190.929688 L 410.269531 189.953125 L 409.785156 188.980469 L 409.304688 188.007812 L 408.820312 187.03125 L 408.339844 186.058594 L 407.855469 185.082031 L 407.375 184.109375 L 406.890625 183.132812 L 406.410156 182.160156 L 405.925781 181.183594 L 405.445312 180.210938 L 404.960938 179.234375 "/>
<path fill="none" stroke-width="1.066978" stroke-linecap="butt" stroke-linejoin="round" stroke="rgb(93.72549%, 83.921569%, 67.45098%)" stroke-opacity="1" stroke-miterlimit="1" d="M 453.195312 276.679688 L 452.441406 276.472656 L 451.691406 276.261719 L 450.9375 276.054688 L 450.1875 275.847656 L 449.433594 275.640625 L 448.683594 275.429688 L 447.175781 275.015625 L 446.425781 274.804688 L 445.671875 274.597656 L 444.921875 274.390625 L 444.167969 274.179688 L 443.417969 273.972656 L 442.664062 273.765625 L 441.910156 273.554688 L 441.160156 273.347656 L 440.40625 273.140625 L 439.65625 272.929688 L 438.148438 272.515625 L 437.398438 272.308594 L 436.644531 272.097656 L 435.894531 271.890625 L 435.140625 271.683594 L 434.390625 271.472656 L 432.882812 271.058594 L 432.132812 270.847656 L 431.378906 270.640625 L 430.628906 270.433594 L 429.875 270.222656 L 429.125 270.015625 L 428.371094 269.808594 L 427.617188 269.597656 L 426.867188 269.390625 L 426.113281 269.183594 L 425.363281 268.976562 L 424.609375 268.765625 L 423.855469 268.558594 L 423.105469 268.351562 L 422.351562 268.140625 L 421.601562 267.933594 L 420.847656 267.726562 L 420.097656 267.515625 L 418.589844 267.101562 L 417.839844 266.890625 L 417.085938 266.683594 L 416.335938 266.476562 L 415.582031 266.269531 L 414.832031 266.058594 L 413.324219 265.644531 L 412.574219 265.433594 L 411.820312 265.226562 L 411.070312 265.019531 L 410.316406 264.808594 L 409.5625 264.601562 L 408.8125 264.394531 L 408.058594 264.183594 L 407.308594 263.976562 L 406.554688 263.769531 L 405.804688 263.558594 L 404.296875 263.144531 L 403.546875 262.9375 L 402.792969 262.726562 L 402.042969 262.519531 L 401.289062 262.3125 L 400.539062 262.101562 L 399.03125 261.6875 L 398.28125 261.476562 L 397.527344 261.269531 L 396.777344 261.0625 L 396.023438 260.851562 L 395.269531 260.644531 L 394.519531 260.4375 L 393.765625 260.230469 L 393.015625 260.019531 L 392.261719 259.8125 L 391.511719 259.605469 L 390.757812 259.394531 L 390.003906 259.1875 L 389.253906 258.980469 L 388.5 258.769531 L 387.75 258.5625 L 386.996094 258.355469 L 386.246094 258.144531 L 384.738281 257.730469 L 383.988281 257.519531 L 383.234375 257.3125 L 382.484375 257.105469 L 381.730469 256.898438 L 380.976562 256.6875 L 380.226562 256.480469 L 379.472656 256.273438 L 378.722656 256.0625 L 377.96875 255.855469 "/>
<path fill="none" stroke-width="1.066978" stroke-linecap="butt" stroke-linejoin="round" stroke="rgb(93.72549%, 83.921569%, 67.45098%)" stroke-opacity="1" stroke-miterlimit="1" d="M 302.960938 227.765625 L 304.460938 228.328125 L 305.210938 228.605469 L 313.460938 231.699219 L 314.210938 231.976562 L 321.710938 234.789062 L 322.460938 235.066406 L 329.210938 237.597656 L 329.964844 237.878906 L 330.714844 238.160156 L 331.464844 238.4375 L 338.964844 241.25 L 339.714844 241.527344 L 347.214844 244.339844 L 347.964844 244.617188 L 356.214844 247.710938 L 356.964844 247.988281 L 358.464844 248.550781 L 359.21875 248.832031 L 364.46875 250.800781 L 365.21875 251.078125 L 373.46875 254.171875 L 374.21875 254.449219 L 377.96875 255.855469 "/>
<path fill="none" stroke-width="1.066978" stroke-linecap="butt" stroke-linejoin="round" stroke="rgb(93.72549%, 83.921569%, 67.45098%)" stroke-opacity="1" stroke-miterlimit="1" d="M 404.960938 179.234375 L 404.8125 178.652344 L 404.660156 178.066406 L 404.511719 177.484375 L 404.359375 176.898438 L 404.210938 176.3125 L 404.058594 175.730469 L 403.910156 175.144531 L 403.757812 174.5625 L 403.609375 173.976562 L 403.457031 173.390625 L 403.308594 172.808594 L 403.15625 172.222656 L 403.007812 171.636719 L 402.855469 171.054688 L 402.707031 170.46875 L 402.554688 169.886719 L 402.40625 169.300781 L 402.253906 168.714844 L 402.105469 168.132812 L 401.953125 167.546875 L 401.804688 166.964844 L 401.652344 166.378906 L 401.503906 165.792969 L 401.351562 165.210938 L 401.203125 164.625 L 401.050781 164.039062 L 400.902344 163.457031 L 400.75 162.871094 L 400.601562 162.289062 L 400.449219 161.703125 L 400.300781 161.117188 L 400.148438 160.535156 L 400 159.949219 L 399.847656 159.367188 L 399.699219 158.78125 L 399.546875 158.195312 L 399.398438 157.613281 L 399.246094 157.027344 L 399.097656 156.441406 L 398.945312 155.859375 L 398.796875 155.273438 L 398.644531 154.691406 L 398.496094 154.105469 L 398.34375 153.519531 L 398.195312 152.9375 L 398.042969 152.351562 L 397.894531 151.769531 L 397.742188 151.183594 L 397.59375 150.597656 L 397.441406 150.015625 L 397.289062 149.429688 L 397.140625 148.84375 L 396.988281 148.261719 L 396.839844 147.675781 L 396.6875 147.09375 L 396.539062 146.507812 L 396.386719 145.921875 L 396.238281 145.339844 L 396.085938 144.753906 L 395.9375 144.171875 L 395.785156 143.585938 L 395.636719 143 L 395.484375 142.417969 L 395.335938 141.832031 L 395.183594 141.246094 L 395.035156 140.664062 L 394.882812 140.078125 L 394.734375 139.496094 L 394.582031 138.910156 L 394.433594 138.324219 L 394.28125 137.742188 L 394.132812 137.15625 L 393.980469 136.570312 L 393.832031 135.988281 L 393.679688 135.402344 L 393.53125 134.820312 L 393.378906 134.234375 L 393.230469 133.648438 L 393.078125 133.066406 L 392.929688 132.480469 L 392.777344 131.898438 L 392.628906 131.3125 L 392.476562 130.726562 L 392.328125 130.144531 L 392.175781 129.558594 L 392.027344 128.972656 L 391.875 128.390625 L 391.726562 127.804688 L 391.574219 127.222656 L 391.425781 126.636719 L 391.273438 126.050781 L 391.125 125.46875 L 390.972656 124.882812 L 390.824219 124.300781 L 390.671875 123.714844 L 390.523438 123.128906 L 390.371094 122.546875 L 390.222656 121.960938 L 390.070312 121.375 L 389.921875 120.792969 "/>
<path fill="none" stroke-width="1.066978" stroke-linecap="butt" stroke-linejoin="round" stroke="rgb(93.72549%, 83.921569%, 67.45098%)" stroke-opacity="1" stroke-miterlimit="1" d="M 302.960938 227.765625 L 303.828125 226.695312 L 304.699219 225.625 L 305.566406 224.554688 L 306.4375 223.484375 L 307.308594 222.417969 L 308.175781 221.347656 L 309.917969 219.207031 L 310.785156 218.136719 L 311.65625 217.066406 L 312.523438 215.996094 L 313.394531 214.929688 L 314.265625 213.859375 L 315.132812 212.789062 L 316.875 210.648438 L 317.742188 209.578125 L 318.613281 208.507812 L 319.480469 207.441406 L 321.222656 205.300781 L 322.089844 204.230469 L 322.960938 203.160156 L 323.828125 202.089844 L 324.699219 201.023438 L 325.570312 199.953125 L 326.4375 198.882812 L 328.179688 196.742188 L 329.046875 195.671875 L 329.917969 194.601562 L 330.785156 193.535156 L 332.527344 191.394531 L 333.394531 190.324219 L 335.136719 188.183594 L 336.003906 187.113281 L 336.875 186.046875 L 337.742188 184.976562 L 339.484375 182.835938 L 340.351562 181.765625 L 341.222656 180.695312 L 342.09375 179.628906 L 342.960938 178.558594 L 343.832031 177.488281 L 344.699219 176.417969 L 346.441406 174.277344 L 347.308594 173.207031 L 348.179688 172.140625 L 349.046875 171.070312 L 350.789062 168.929688 L 351.65625 167.859375 L 352.527344 166.789062 L 353.398438 165.722656 L 354.265625 164.652344 L 355.136719 163.582031 L 356.003906 162.511719 L 357.746094 160.371094 L 358.613281 159.300781 L 359.484375 158.234375 L 360.355469 157.164062 L 361.222656 156.09375 L 362.09375 155.023438 L 362.960938 153.953125 L 364.703125 151.8125 L 365.570312 150.746094 L 367.3125 148.605469 L 368.179688 147.535156 L 369.050781 146.464844 L 369.917969 145.394531 L 370.789062 144.328125 L 371.660156 143.257812 L 372.527344 142.1875 L 374.269531 140.046875 L 375.136719 138.976562 L 376.007812 137.90625 L 376.875 136.839844 L 378.617188 134.699219 L 379.484375 133.628906 L 380.355469 132.558594 L 381.222656 131.488281 L 382.09375 130.421875 L 382.964844 129.351562 L 383.832031 128.28125 L 385.574219 126.140625 L 386.441406 125.070312 L 387.3125 124 L 388.179688 122.933594 L 389.921875 120.792969 "/>
<path fill="none" stroke-width="1.066978" stroke-linecap="butt" stroke-linejoin="round" stroke="rgb(93.72549%, 83.921569%, 67.45098%)" stroke-opacity="1" stroke-miterlimit="1" d="M 453.195312 276.679688 L 453.074219 275.925781 L 452.953125 275.175781 L 452.710938 273.667969 L 452.59375 272.917969 L 452.351562 271.410156 L 452.230469 270.660156 L 451.988281 269.152344 L 451.867188 268.402344 L 451.625 266.894531 L 451.503906 266.144531 L 451.261719 264.636719 L 451.144531 263.886719 L 450.902344 262.378906 L 450.78125 261.628906 L 450.417969 259.367188 L 450.296875 258.617188 L 450.054688 257.109375 L 449.933594 256.359375 L 449.816406 255.605469 L 449.695312 254.851562 L 449.574219 254.101562 L 449.332031 252.59375 L 449.210938 251.84375 L 448.96875 250.335938 L 448.847656 249.585938 L 448.605469 248.078125 L 448.488281 247.328125 L 448.246094 245.820312 L 448.125 245.070312 L 447.882812 243.5625 L 447.761719 242.8125 L 447.519531 241.304688 L 447.398438 240.554688 L 447.277344 239.800781 L 447.160156 239.046875 L 447.039062 238.296875 L 446.675781 236.035156 L 446.554688 235.285156 L 446.3125 233.777344 L 446.191406 233.027344 L 445.949219 231.519531 L 445.828125 230.769531 L 445.710938 230.015625 L 445.589844 229.261719 L 445.46875 228.511719 L 445.226562 227.003906 L 445.105469 226.253906 L 444.863281 224.746094 L 444.742188 223.996094 L 444.5 222.488281 L 444.382812 221.738281 L 444.140625 220.230469 L 444.019531 219.480469 L 443.777344 217.972656 L 443.65625 217.222656 L 443.414062 215.714844 L 443.292969 214.964844 L 443.171875 214.210938 L 443.054688 213.457031 L 442.933594 212.703125 L 442.8125 211.953125 L 442.570312 210.445312 L 442.449219 209.695312 L 442.207031 208.1875 L 442.085938 207.4375 L 441.84375 205.929688 L 441.726562 205.179688 L 441.484375 203.671875 L 441.363281 202.921875 L 441.121094 201.414062 "/>
<path fill="none" stroke-width="1.066978" stroke-linecap="butt" stroke-linejoin="round" stroke="rgb(93.72549%, 83.921569%, 67.45098%)" stroke-opacity="1" stroke-miterlimit="1" d="M 389.921875 120.792969 L 390.433594 121.597656 L 390.945312 122.40625 L 391.96875 124.015625 L 392.480469 124.824219 L 392.992188 125.628906 L 393.503906 126.4375 L 394.527344 128.046875 L 395.039062 128.855469 L 395.550781 129.660156 L 396.066406 130.46875 L 397.089844 132.078125 L 397.601562 132.886719 L 398.113281 133.691406 L 398.625 134.5 L 399.648438 136.109375 L 400.160156 136.917969 L 400.671875 137.722656 L 401.183594 138.53125 L 402.207031 140.140625 L 402.722656 140.949219 L 403.234375 141.753906 L 403.746094 142.5625 L 404.769531 144.171875 L 405.28125 144.980469 L 406.304688 146.589844 L 406.816406 147.398438 L 407.328125 148.203125 L 407.839844 149.011719 L 408.863281 150.621094 L 409.375 151.429688 L 409.890625 152.234375 L 410.402344 153.042969 L 411.425781 154.652344 L 411.9375 155.460938 L 412.449219 156.265625 L 412.960938 157.074219 L 413.984375 158.683594 L 414.496094 159.492188 L 415.007812 160.296875 L 415.519531 161.105469 L 416.542969 162.714844 L 417.058594 163.523438 L 417.570312 164.328125 L 418.082031 165.136719 L 419.105469 166.746094 L 419.617188 167.554688 L 420.128906 168.359375 L 420.640625 169.167969 L 421.664062 170.777344 L 422.175781 171.585938 L 422.6875 172.390625 L 423.199219 173.199219 L 423.714844 174.003906 L 424.226562 174.808594 L 424.738281 175.617188 L 425.761719 177.226562 L 426.273438 178.035156 L 426.785156 178.839844 L 427.296875 179.648438 L 428.320312 181.257812 L 428.832031 182.066406 L 429.34375 182.871094 L 429.855469 183.679688 L 430.367188 184.484375 L 430.882812 185.289062 L 431.394531 186.097656 L 431.90625 186.902344 L 432.417969 187.710938 L 433.441406 189.320312 L 433.953125 190.128906 L 434.464844 190.933594 L 434.976562 191.742188 L 436 193.351562 L 436.511719 194.160156 L 437.023438 194.964844 L 437.535156 195.773438 L 438.050781 196.578125 L 438.5625 197.382812 L 439.074219 198.191406 L 439.585938 198.996094 L 440.097656 199.804688 L 441.121094 201.414062 "/>
<path fill="none" stroke-width="1.066978" stroke-linecap="butt" stroke-linejoin="round" stroke="rgb(93.72549%, 83.921569%, 67.45098%)" stroke-opacity="1" stroke-miterlimit="1" d="M 389.921875 120.792969 L 390.648438 119.828125 L 392.839844 116.933594 L 393.570312 115.972656 L 394.296875 115.007812 L 396.488281 112.113281 L 397.214844 111.148438 L 397.945312 110.1875 L 400.136719 107.292969 L 400.863281 106.328125 L 402.324219 104.398438 L 403.054688 103.4375 L 403.78125 102.472656 L 406.703125 98.613281 L 407.429688 97.652344 L 409.621094 94.757812 L 410.347656 93.792969 L 411.078125 92.828125 L 411.808594 91.867188 L 413.269531 89.9375 L 413.996094 88.972656 L 416.1875 86.078125 L 416.914062 85.117188 L 419.105469 82.222656 L 419.832031 81.257812 L 420.5625 80.292969 L 421.292969 79.332031 L 422.753906 77.402344 L 423.480469 76.4375 L 425.671875 73.542969 L 426.398438 72.582031 L 429.320312 68.722656 L 430.046875 67.757812 L 430.777344 66.796875 L 432.238281 64.867188 L 432.964844 63.902344 L 435.15625 61.007812 L 435.886719 60.046875 L 436.613281 59.082031 L 438.804688 56.1875 L 439.53125 55.222656 L 440.261719 54.261719 L 442.453125 51.367188 L 443.179688 50.402344 L 444.640625 48.472656 L 445.371094 47.511719 L 446.097656 46.546875 L 449.019531 42.6875 L 449.746094 41.726562 L 451.9375 38.832031 L 452.664062 37.867188 L 454.125 35.9375 L 454.855469 34.976562 L 455.582031 34.011719 L 458.503906 30.152344 L 459.230469 29.191406 L 461.421875 26.296875 L 462.148438 25.332031 L 462.878906 24.367188 "/>
<path fill="none" stroke-width="1.066978" stroke-linecap="butt" stroke-linejoin="round" stroke="rgb(93.72549%, 83.921569%, 67.45098%)" stroke-opacity="1" stroke-miterlimit="1" d="M 404.960938 179.234375 L 406.015625 179.113281 L 409.179688 178.738281 L 410.234375 178.617188 L 412.34375 178.367188 L 413.398438 178.246094 L 416.5625 177.871094 L 417.617188 177.75 L 419.726562 177.5 L 420.777344 177.375 L 421.832031 177.253906 L 424.996094 176.878906 L 426.050781 176.757812 L 429.214844 176.382812 L 430.269531 176.261719 L 433.433594 175.886719 L 434.488281 175.765625 L 437.652344 175.390625 L 438.707031 175.269531 L 439.757812 175.144531 L 441.867188 174.894531 L 442.921875 174.773438 L 446.085938 174.398438 L 447.140625 174.277344 L 450.304688 173.902344 L 451.359375 173.78125 L 453.46875 173.53125 L 454.523438 173.410156 L 457.6875 173.035156 L 458.738281 172.914062 L 461.902344 172.539062 L 462.957031 172.417969 L 466.121094 172.042969 L 467.175781 171.921875 L 470.339844 171.546875 L 471.394531 171.425781 L 474.558594 171.050781 L 475.613281 170.929688 L 476.667969 170.804688 L 477.71875 170.679688 L 478.773438 170.554688 L 479.828125 170.433594 L 482.992188 170.058594 L 484.046875 169.9375 L 487.210938 169.5625 L 488.265625 169.441406 L 491.429688 169.066406 L 492.484375 168.945312 L 495.648438 168.570312 L 496.699219 168.449219 L 498.808594 168.199219 L 499.863281 168.078125 L 503.027344 167.703125 L 504.082031 167.582031 L 507.246094 167.207031 L 508.300781 167.085938 L 510.410156 166.835938 "/>
<path fill="none" stroke-width="1.066978" stroke-linecap="butt" stroke-linejoin="round" stroke="rgb(93.72549%, 83.921569%, 67.45098%)" stroke-opacity="1" stroke-miterlimit="1" d="M 377.96875 255.855469 L 383.265625 252.292969 L 384.589844 251.40625 L 387.238281 249.625 L 388.566406 248.734375 L 395.1875 244.28125 L 396.511719 243.394531 L 407.105469 236.269531 L 408.429688 235.382812 L 416.375 230.039062 L 417.703125 229.148438 L 419.027344 228.257812 L 420.351562 227.371094 L 430.945312 220.246094 L 432.269531 219.359375 L 442.863281 212.234375 L 444.1875 211.347656 L 445.515625 210.457031 L 454.785156 204.222656 L 456.109375 203.335938 L 466.703125 196.210938 L 468.027344 195.324219 L 473.324219 191.761719 L 474.652344 190.871094 L 478.625 188.199219 L 479.949219 187.3125 L 490.542969 180.1875 L 491.867188 179.300781 L 502.460938 172.175781 L 503.789062 171.289062 L 510.410156 166.835938 "/>
<path fill="none" stroke-width="1.066978" stroke-linecap="butt" stroke-linejoin="round" stroke="rgb(93.72549%, 83.921569%, 67.45098%)" stroke-opacity="1" stroke-miterlimit="1" d="M 453.195312 276.679688 L 453.769531 275.582031 L 454.339844 274.484375 L 454.910156 273.382812 L 455.484375 272.285156 L 456.054688 271.1875 L 456.628906 270.089844 L 457.199219 268.992188 L 457.773438 267.890625 L 458.34375 266.792969 L 458.917969 265.695312 L 459.488281 264.597656 L 460.0625 263.5 L 460.632812 262.398438 L 461.207031 261.300781 L 461.777344 260.203125 L 462.351562 259.105469 L 462.921875 258.007812 L 463.492188 256.90625 L 464.066406 255.808594 L 464.636719 254.710938 L 465.210938 253.613281 L 465.78125 252.515625 L 466.355469 251.414062 L 466.925781 250.316406 L 467.5 249.21875 L 468.070312 248.121094 L 468.644531 247.023438 L 469.214844 245.921875 L 469.789062 244.824219 L 470.359375 243.726562 L 470.933594 242.628906 L 471.503906 241.53125 L 472.074219 240.429688 L 472.648438 239.332031 L 473.21875 238.234375 L 473.792969 237.136719 L 474.363281 236.039062 L 474.9375 234.9375 L 475.507812 233.839844 L 476.082031 232.742188 L 476.652344 231.644531 L 477.226562 230.546875 L 477.796875 229.445312 L 478.371094 228.347656 L 478.941406 227.25 L 479.515625 226.152344 L 480.085938 225.054688 L 480.65625 223.953125 L 481.230469 222.855469 L 481.800781 221.757812 L 482.375 220.660156 L 482.945312 219.5625 L 483.519531 218.460938 L 484.089844 217.363281 L 484.664062 216.265625 L 485.234375 215.167969 L 485.808594 214.070312 L 486.378906 212.96875 L 486.953125 211.871094 L 487.523438 210.773438 L 488.097656 209.675781 L 488.667969 208.578125 L 489.238281 207.476562 L 489.8125 206.378906 L 490.382812 205.28125 L 490.957031 204.183594 L 491.527344 203.085938 L 492.101562 201.984375 L 492.671875 200.886719 L 493.246094 199.789062 L 493.816406 198.691406 L 494.390625 197.59375 L 494.960938 196.492188 L 495.535156 195.394531 L 496.105469 194.296875 L 496.679688 193.199219 L 497.25 192.101562 L 497.820312 191 L 498.394531 189.902344 L 498.964844 188.804688 L 499.539062 187.707031 L 500.109375 186.609375 L 500.683594 185.507812 L 501.253906 184.410156 L 501.828125 183.3125 L 502.398438 182.214844 L 502.972656 181.117188 L 503.542969 180.015625 L 504.117188 178.917969 L 504.6875 177.820312 L 505.261719 176.722656 L 505.832031 175.625 L 506.402344 174.523438 L 506.976562 173.425781 L 507.546875 172.328125 L 508.121094 171.230469 L 508.691406 170.132812 L 509.265625 169.03125 L 509.835938 167.933594 L 510.410156 166.835938 "/>
<path fill="none" stroke-width="1.066978" stroke-linecap="butt" stroke-linejoin="round" stroke="rgb(93.72549%, 83.921569%, 67.45098%)" stroke-opacity="1" stroke-miterlimit="1" d="M 389.921875 120.792969 L 391.125 121.253906 L 392.332031 121.714844 L 393.535156 122.171875 L 394.738281 122.632812 L 395.945312 123.09375 L 397.148438 123.554688 L 398.355469 124.015625 L 399.558594 124.476562 L 400.765625 124.9375 L 401.96875 125.398438 L 403.175781 125.855469 L 404.378906 126.316406 L 405.585938 126.777344 L 407.992188 127.699219 L 409.199219 128.160156 L 410.402344 128.621094 L 411.609375 129.082031 L 412.8125 129.539062 L 414.019531 130 L 415.222656 130.460938 L 416.429688 130.921875 L 417.632812 131.382812 L 418.839844 131.84375 L 421.246094 132.765625 L 422.453125 133.222656 L 423.65625 133.683594 L 424.863281 134.144531 L 426.066406 134.605469 L 427.273438 135.066406 L 428.476562 135.527344 L 429.683594 135.988281 L 430.886719 136.449219 L 432.089844 136.90625 L 433.296875 137.367188 L 434.5 137.828125 L 435.707031 138.289062 L 436.910156 138.75 L 438.117188 139.210938 L 439.320312 139.671875 L 440.527344 140.128906 L 441.730469 140.589844 L 442.9375 141.050781 L 445.34375 141.972656 L 446.550781 142.433594 L 447.753906 142.894531 L 448.960938 143.355469 L 450.164062 143.8125 L 451.371094 144.273438 L 452.574219 144.734375 L 453.78125 145.195312 L 456.1875 146.117188 L 457.394531 146.578125 L 458.597656 147.039062 L 459.804688 147.496094 L 461.007812 147.957031 L 462.214844 148.417969 L 463.417969 148.878906 L 464.625 149.339844 L 465.828125 149.800781 L 467.035156 150.261719 L 468.238281 150.722656 L 469.441406 151.179688 L 470.648438 151.640625 L 471.851562 152.101562 L 473.058594 152.5625 L 474.261719 153.023438 L 475.46875 153.484375 L 476.671875 153.945312 L 477.878906 154.40625 L 479.082031 154.863281 L 480.285156 155.324219 L 481.492188 155.785156 L 482.695312 156.246094 L 483.902344 156.707031 L 485.105469 157.167969 L 486.3125 157.628906 L 487.515625 158.089844 L 488.722656 158.546875 L 489.925781 159.007812 L 491.132812 159.46875 L 493.539062 160.390625 L 494.746094 160.851562 L 495.949219 161.3125 L 497.15625 161.769531 L 498.359375 162.230469 L 499.566406 162.691406 L 500.769531 163.152344 L 501.976562 163.613281 L 504.382812 164.535156 L 505.589844 164.996094 L 506.792969 165.453125 L 508 165.914062 L 509.203125 166.375 L 510.410156 166.835938 "/>
<path fill="none" stroke-width="1.066978" stroke-linecap="butt" stroke-linejoin="round" stroke="rgb(93.72549%, 83.921569%, 67.45098%)" stroke-opacity="1" stroke-miterlimit="1" d="M 160.980469 259.496094 L 159.695312 259.8125 L 157.132812 260.4375 L 155.847656 260.75 L 154.566406 261.0625 L 153.285156 261.378906 L 152 261.691406 L 149.4375 262.316406 L 148.152344 262.632812 L 145.589844 263.257812 L 144.304688 263.570312 L 143.023438 263.882812 L 141.742188 264.199219 L 140.457031 264.511719 L 137.894531 265.136719 L 136.609375 265.453125 L 134.046875 266.078125 L 132.761719 266.390625 L 131.480469 266.703125 L 130.199219 267.019531 L 128.914062 267.332031 L 126.351562 267.957031 L 125.066406 268.273438 L 121.222656 269.210938 L 119.9375 269.523438 L 118.65625 269.839844 L 117.375 270.152344 L 116.089844 270.464844 L 113.527344 271.089844 L 112.242188 271.40625 L 109.679688 272.03125 L 108.394531 272.34375 L 107.113281 272.660156 L 105.832031 272.972656 L 104.546875 273.285156 L 101.984375 273.910156 L 100.699219 274.226562 L 98.136719 274.851562 L 96.851562 275.164062 L 95.570312 275.480469 L 94.289062 275.792969 L 93.003906 276.105469 L 90.441406 276.730469 L 89.15625 277.046875 L 86.59375 277.671875 L 85.308594 277.984375 L 84.027344 278.300781 L 82.746094 278.613281 L 81.460938 278.925781 L 78.898438 279.550781 L 77.617188 279.867188 L 76.332031 280.179688 L 73.769531 280.804688 L 72.484375 281.121094 L 69.921875 281.746094 L 68.636719 282.058594 L 67.355469 282.371094 L 66.074219 282.6875 L 64.789062 283 L 62.226562 283.625 L 60.941406 283.9375 L 59.660156 284.253906 L 58.378906 284.566406 L 57.09375 284.878906 L 55.8125 285.191406 L 54.53125 285.507812 L 53.246094 285.820312 L 50.683594 286.445312 L 49.398438 286.757812 L 48.117188 287.074219 L 46.835938 287.386719 L 45.550781 287.699219 L 44.269531 288.011719 L 42.988281 288.328125 L 41.703125 288.640625 L 39.140625 289.265625 L 37.855469 289.578125 L 36.574219 289.894531 L 34.011719 290.519531 L 32.726562 290.832031 "/>
<path fill="none" stroke-width="1.066978" stroke-linecap="butt" stroke-linejoin="round" stroke="rgb(93.72549%, 83.921569%, 67.45098%)" stroke-opacity="1" stroke-miterlimit="1" d="M 404.960938 179.234375 L 406.199219 179.417969 L 409.902344 179.957031 L 411.140625 180.136719 L 412.375 180.316406 L 413.609375 180.5 L 414.847656 180.679688 L 418.550781 181.21875 L 419.789062 181.398438 L 421.023438 181.578125 L 422.257812 181.761719 L 423.492188 181.941406 L 424.730469 182.121094 L 427.199219 182.480469 L 428.4375 182.660156 L 429.671875 182.839844 L 430.90625 183.023438 L 432.140625 183.203125 L 433.378906 183.382812 L 435.847656 183.742188 L 437.085938 183.921875 L 438.320312 184.105469 L 440.789062 184.464844 L 442.027344 184.644531 L 445.730469 185.183594 L 446.96875 185.367188 L 449.4375 185.726562 L 450.675781 185.90625 L 453.144531 186.265625 L 454.378906 186.449219 L 455.617188 186.628906 L 459.320312 187.167969 L 460.558594 187.347656 L 461.792969 187.527344 L 463.027344 187.710938 L 464.265625 187.890625 L 467.96875 188.429688 L 469.207031 188.609375 L 470.441406 188.789062 L 471.675781 188.972656 L 472.914062 189.152344 L 476.617188 189.691406 L 477.855469 189.871094 L 479.089844 190.054688 L 481.558594 190.414062 L 482.796875 190.59375 L 485.265625 190.953125 L 486.503906 191.132812 L 487.738281 191.316406 L 490.207031 191.675781 L 491.445312 191.855469 L 493.914062 192.214844 L 495.152344 192.398438 L 498.855469 192.9375 L 500.09375 193.117188 L 502.5625 193.476562 L 503.796875 193.660156 L 505.035156 193.839844 L 507.503906 194.199219 L 508.742188 194.378906 L 511.210938 194.738281 L 512.445312 194.921875 L 513.683594 195.101562 L 516.152344 195.460938 L 517.390625 195.640625 L 518.625 195.820312 L 519.859375 196.003906 L 521.09375 196.183594 L 522.332031 196.363281 L 526.035156 196.902344 L 527.273438 197.082031 L 528.507812 197.265625 "/>
<path fill="none" stroke-width="1.066978" stroke-linecap="butt" stroke-linejoin="round" stroke="rgb(93.72549%, 83.921569%, 67.45098%)" stroke-opacity="1" stroke-miterlimit="1" d="M 389.921875 120.792969 L 391.304688 121.558594 L 392.691406 122.320312 L 396.851562 124.617188 L 398.234375 125.378906 L 403.78125 128.441406 L 405.164062 129.203125 L 409.324219 131.5 L 410.707031 132.261719 L 414.867188 134.558594 L 416.253906 135.320312 L 417.636719 136.085938 L 421.796875 138.382812 L 423.179688 139.144531 L 427.339844 141.441406 L 428.726562 142.203125 L 430.109375 142.96875 L 432.882812 144.5 L 434.269531 145.261719 L 435.65625 146.027344 L 437.039062 146.792969 L 438.425781 147.558594 L 439.8125 148.320312 L 441.199219 149.085938 L 442.582031 149.851562 L 445.355469 151.382812 L 446.742188 152.144531 L 448.128906 152.910156 L 449.511719 153.675781 L 450.898438 154.441406 L 452.285156 155.203125 L 453.671875 155.96875 L 455.054688 156.734375 L 456.441406 157.5 L 457.828125 158.261719 L 460.601562 159.792969 L 461.984375 160.558594 L 463.371094 161.324219 L 464.757812 162.085938 L 467.53125 163.617188 L 468.914062 164.382812 L 470.300781 165.144531 L 473.074219 166.675781 L 474.457031 167.441406 L 475.84375 168.203125 L 480.003906 170.5 L 481.386719 171.265625 L 482.773438 172.027344 L 486.933594 174.324219 L 488.316406 175.085938 L 492.476562 177.382812 L 493.859375 178.144531 L 498.019531 180.441406 L 499.40625 181.203125 L 500.789062 181.96875 L 504.949219 184.265625 L 506.332031 185.027344 L 510.492188 187.324219 L 511.878906 188.085938 L 513.261719 188.851562 L 516.035156 190.382812 L 517.421875 191.144531 L 518.808594 191.910156 L 520.191406 192.675781 L 522.964844 194.207031 L 524.351562 194.96875 L 525.734375 195.734375 L 528.507812 197.265625 "/>
<path fill="none" stroke-width="1.066978" stroke-linecap="butt" stroke-linejoin="round" stroke="rgb(93.72549%, 83.921569%, 67.45098%)" stroke-opacity="1" stroke-miterlimit="1" d="M 596.347656 270.8125 L 595.671875 270.074219 L 594.3125 268.605469 L 593.636719 267.871094 L 592.957031 267.132812 L 592.277344 266.398438 L 591.601562 265.664062 L 590.921875 264.929688 L 590.242188 264.191406 L 589.566406 263.457031 L 588.886719 262.722656 L 588.207031 261.984375 L 587.53125 261.25 L 586.171875 259.78125 L 585.496094 259.042969 L 584.136719 257.574219 L 583.460938 256.835938 L 582.101562 255.367188 L 581.425781 254.632812 L 580.746094 253.894531 L 579.386719 252.425781 L 578.710938 251.6875 L 577.351562 250.21875 L 576.675781 249.484375 L 575.996094 248.746094 L 575.316406 248.011719 L 574.640625 247.277344 L 573.960938 246.539062 L 573.28125 245.804688 L 572.605469 245.070312 L 571.925781 244.335938 L 571.246094 243.597656 L 570.570312 242.863281 L 569.210938 241.394531 L 568.535156 240.65625 L 567.175781 239.1875 L 566.5 238.449219 L 565.140625 236.980469 L 564.464844 236.246094 L 563.785156 235.507812 L 563.105469 234.773438 L 562.429688 234.039062 L 561.75 233.300781 L 561.070312 232.566406 L 560.394531 231.832031 L 559.714844 231.097656 L 559.035156 230.359375 L 558.359375 229.625 L 557.679688 228.890625 L 557 228.152344 L 556.324219 227.417969 L 554.964844 225.949219 L 554.289062 225.210938 L 552.929688 223.742188 L 552.253906 223.003906 L 550.894531 221.535156 L 550.21875 220.800781 L 549.539062 220.0625 L 548.859375 219.328125 L 548.183594 218.59375 L 547.503906 217.855469 L 546.144531 216.386719 L 545.46875 215.652344 L 544.789062 214.914062 L 544.109375 214.179688 L 543.433594 213.445312 L 542.753906 212.710938 L 542.074219 211.972656 L 541.398438 211.238281 L 540.71875 210.503906 L 540.039062 209.765625 L 539.363281 209.03125 L 538.003906 207.5625 L 537.328125 206.824219 L 535.96875 205.355469 L 535.292969 204.617188 L 533.933594 203.148438 L 533.257812 202.414062 L 532.578125 201.675781 L 531.898438 200.941406 L 531.222656 200.207031 L 530.542969 199.46875 L 529.863281 198.734375 L 529.1875 198 L 528.507812 197.265625 "/>
<path fill="none" stroke-width="1.066978" stroke-linecap="butt" stroke-linejoin="round" stroke="rgb(93.72549%, 83.921569%, 67.45098%)" stroke-opacity="1" stroke-miterlimit="1" d="M 453.195312 276.679688 L 453.535156 277.691406 L 453.871094 278.707031 L 454.210938 279.71875 L 454.550781 280.734375 L 454.890625 281.746094 L 455.226562 282.757812 L 455.566406 283.773438 L 455.90625 284.785156 L 456.242188 285.796875 L 456.582031 286.8125 L 456.921875 287.824219 L 457.257812 288.839844 L 457.9375 290.863281 L 458.273438 291.878906 L 458.613281 292.890625 L 458.953125 293.90625 L 459.292969 294.917969 L 459.628906 295.929688 L 459.96875 296.945312 L 460.308594 297.957031 L 460.644531 298.96875 L 460.984375 299.984375 L 461.324219 300.996094 L 461.660156 302.011719 L 462.339844 304.035156 L 462.675781 305.050781 L 463.355469 307.074219 L 463.695312 308.089844 L 464.03125 309.101562 L 464.371094 310.117188 L 464.710938 311.128906 L 465.046875 312.140625 L 465.386719 313.15625 L 465.726562 314.167969 L 466.0625 315.179688 L 466.402344 316.195312 L 466.742188 317.207031 L 467.078125 318.222656 L 467.757812 320.246094 L 468.097656 321.261719 L 468.433594 322.273438 L 468.773438 323.289062 L 469.113281 324.300781 L 469.449219 325.3125 L 469.789062 326.328125 L 470.128906 327.339844 L 470.464844 328.351562 L 470.804688 329.367188 L 471.144531 330.378906 L 471.484375 331.394531 L 471.820312 332.40625 L 472.160156 333.417969 L 472.5 334.433594 L 472.835938 335.445312 L 473.175781 336.457031 L 473.515625 337.472656 L 473.851562 338.484375 L 474.191406 339.5 L 474.53125 340.511719 L 474.867188 341.523438 L 475.207031 342.539062 L 475.886719 344.5625 L 476.222656 345.578125 L 476.5625 346.589844 L 476.902344 347.605469 L 477.238281 348.617188 L 477.578125 349.628906 L 477.917969 350.644531 L 478.253906 351.65625 L 478.59375 352.671875 L 478.933594 353.683594 L 479.269531 354.695312 L 479.609375 355.710938 L 480.289062 357.734375 L 480.625 358.75 L 480.964844 359.761719 L 481.304688 360.777344 L 481.640625 361.789062 L 481.980469 362.800781 L 482.320312 363.816406 L 482.65625 364.828125 L 482.996094 365.839844 L 483.335938 366.855469 L 483.671875 367.867188 L 484.011719 368.882812 L 484.691406 370.90625 L 485.027344 371.921875 L 485.707031 373.945312 L 486.042969 374.960938 L 486.382812 375.972656 L 486.722656 376.988281 L 487.058594 378 "/>
<path fill="none" stroke-width="1.066978" stroke-linecap="butt" stroke-linejoin="round" stroke="rgb(93.72549%, 83.921569%, 67.45098%)" stroke-opacity="1" stroke-miterlimit="1" d="M 510.410156 166.835938 L 511.496094 166.039062 L 512.585938 165.246094 L 513.675781 164.449219 L 514.761719 163.652344 L 515.851562 162.855469 L 516.941406 162.0625 L 518.027344 161.265625 L 519.117188 160.46875 L 520.203125 159.675781 L 522.382812 158.082031 L 523.46875 157.285156 L 524.558594 156.492188 L 525.648438 155.695312 L 526.734375 154.898438 L 527.824219 154.101562 L 528.910156 153.308594 L 531.089844 151.714844 L 532.175781 150.917969 L 533.265625 150.125 L 534.355469 149.328125 L 535.441406 148.53125 L 536.53125 147.738281 L 537.617188 146.941406 L 539.796875 145.347656 L 540.882812 144.554688 L 543.0625 142.960938 L 544.148438 142.164062 L 545.238281 141.371094 L 546.324219 140.574219 L 547.414062 139.777344 L 548.503906 138.984375 L 549.589844 138.1875 L 551.769531 136.59375 L 552.855469 135.800781 L 553.945312 135.003906 L 555.03125 134.207031 L 556.121094 133.410156 L 557.210938 132.617188 L 558.296875 131.820312 L 559.386719 131.023438 L 560.476562 130.230469 L 561.5625 129.433594 L 563.742188 127.839844 L 564.828125 127.046875 L 565.917969 126.25 L 567.003906 125.453125 L 568.09375 124.65625 L 569.183594 123.863281 L 570.269531 123.066406 L 571.359375 122.269531 L 572.449219 121.476562 L 573.535156 120.679688 L 574.625 119.882812 L 575.710938 119.085938 L 576.800781 118.292969 L 577.890625 117.496094 L 578.976562 116.699219 L 580.066406 115.902344 L 581.15625 115.109375 L 582.242188 114.3125 L 583.332031 113.515625 L 584.417969 112.71875 L 585.507812 111.925781 L 586.597656 111.128906 L 587.683594 110.332031 L 588.773438 109.539062 L 589.863281 108.742188 L 590.949219 107.945312 L 592.039062 107.148438 L 593.125 106.355469 L 595.304688 104.761719 L 596.390625 103.964844 L 597.480469 103.171875 L 598.570312 102.375 L 599.65625 101.578125 L 600.746094 100.785156 L 601.832031 99.988281 L 604.011719 98.394531 L 605.097656 97.601562 L 607.277344 96.007812 L 608.363281 95.210938 L 609.453125 94.417969 L 610.542969 93.621094 L 611.628906 92.824219 L 612.71875 92.03125 L 613.804688 91.234375 L 615.984375 89.640625 L 617.070312 88.847656 L 619.25 87.253906 "/>
<path fill="none" stroke-width="1.066978" stroke-linecap="butt" stroke-linejoin="round" stroke="rgb(93.72549%, 83.921569%, 67.45098%)" stroke-opacity="1" stroke-miterlimit="1" d="M 302.960938 227.765625 L 301.570312 229.554688 L 300.878906 230.449219 L 300.183594 231.339844 L 299.488281 232.234375 L 298.796875 233.128906 L 297.40625 234.917969 L 296.714844 235.8125 L 295.324219 237.601562 L 294.632812 238.496094 L 293.9375 239.390625 L 293.246094 240.285156 L 291.855469 242.074219 L 291.164062 242.964844 L 289.773438 244.753906 L 289.082031 245.648438 L 287.691406 247.4375 L 287 248.332031 L 285.609375 250.121094 L 284.917969 251.015625 L 283.527344 252.804688 L 282.835938 253.699219 L 282.140625 254.589844 L 281.449219 255.484375 L 280.058594 257.273438 L 279.367188 258.167969 L 277.976562 259.957031 L 277.285156 260.851562 L 275.894531 262.640625 L 275.203125 263.535156 L 273.8125 265.324219 L 273.121094 266.214844 L 271.730469 268.003906 L 271.039062 268.898438 L 270.34375 269.792969 L 269.652344 270.6875 L 268.261719 272.476562 L 267.570312 273.371094 L 266.179688 275.160156 L 265.488281 276.054688 L 264.792969 276.949219 L 264.097656 277.839844 L 263.40625 278.734375 L 262.015625 280.523438 L 261.324219 281.417969 L 260.628906 282.3125 L 259.9375 283.207031 L 258.546875 284.996094 L 257.855469 285.890625 L 256.464844 287.679688 L 255.773438 288.574219 L 255.078125 289.464844 L 254.382812 290.359375 L 253.691406 291.253906 L 252.300781 293.042969 L 251.609375 293.9375 L 250.21875 295.726562 L 249.527344 296.621094 L 248.832031 297.515625 L 248.140625 298.410156 L 246.75 300.199219 L 246.058594 301.089844 L 244.667969 302.878906 L 243.976562 303.773438 L 242.585938 305.5625 L 241.894531 306.457031 L 240.503906 308.246094 L 239.8125 309.140625 L 238.421875 310.929688 L 237.730469 311.824219 L 237.035156 312.714844 L 236.34375 313.609375 L 234.953125 315.398438 L 234.261719 316.292969 L 233.566406 317.1875 "/>
<path fill="none" stroke-width="1.066978" stroke-linecap="butt" stroke-linejoin="round" stroke="rgb(93.72549%, 83.921569%, 67.45098%)" stroke-opacity="1" stroke-miterlimit="1" d="M 596.347656 270.8125 L 598.167969 272.21875 L 599.078125 272.917969 L 599.984375 273.621094 L 602.714844 275.730469 L 603.621094 276.433594 L 605.441406 277.839844 L 606.351562 278.539062 L 607.257812 279.242188 L 610.898438 282.054688 L 611.804688 282.757812 L 612.714844 283.460938 L 613.625 284.160156 L 614.535156 284.863281 L 615.441406 285.566406 L 618.171875 287.675781 L 619.078125 288.378906 L 619.988281 289.082031 L 620.898438 289.78125 L 621.808594 290.484375 L 622.714844 291.1875 L 626.355469 294 L 627.261719 294.703125 L 628.171875 295.402344 L 629.992188 296.808594 L 630.898438 297.511719 L 633.628906 299.621094 L 634.535156 300.324219 L 635.445312 301.027344 L 636.355469 301.726562 L 638.175781 303.132812 L 639.082031 303.835938 L 641.8125 305.945312 L 642.71875 306.648438 L 643.628906 307.347656 L 645.449219 308.753906 L 646.355469 309.457031 L 649.085938 311.566406 L 649.992188 312.269531 L 650.902344 312.96875 L 653.632812 315.078125 L 654.539062 315.78125 L 657.269531 317.890625 L 658.175781 318.589844 L 660.90625 320.699219 L 661.8125 321.402344 L 664.542969 323.511719 L 665.449219 324.210938 L 669.089844 327.023438 L 669.996094 327.726562 L 672.726562 329.835938 L 673.632812 330.535156 L 676.363281 332.644531 L 677.269531 333.347656 L 680 335.457031 L 680.90625 336.15625 L 684.546875 338.96875 L 685.453125 339.671875 L 687.273438 341.078125 "/>
<path fill="none" stroke-width="1.066978" stroke-linecap="butt" stroke-linejoin="round" stroke="rgb(93.72549%, 83.921569%, 67.45098%)" stroke-opacity="1" stroke-miterlimit="1" d="M 510.410156 166.835938 L 528.027344 166.148438 L 529.632812 166.085938 L 552.054688 165.210938 L 553.660156 165.148438 L 555.261719 165.082031 L 576.082031 164.269531 L 577.6875 164.207031 L 600.109375 163.332031 L 601.714844 163.269531 L 624.136719 162.394531 L 625.742188 162.332031 L 627.34375 162.269531 L 628.945312 162.203125 L 648.164062 161.453125 L 649.769531 161.390625 L 670.589844 160.578125 "/>
<path fill="none" stroke-width="1.066978" stroke-linecap="butt" stroke-linejoin="round" stroke="rgb(93.72549%, 83.921569%, 67.45098%)" stroke-opacity="1" stroke-miterlimit="1" d="M 389.921875 120.792969 L 382.753906 119.09375 L 381.324219 118.753906 L 375.589844 117.394531 L 374.15625 117.058594 L 372.726562 116.71875 L 364.125 114.679688 L 362.695312 114.339844 L 355.527344 112.640625 L 354.097656 112.300781 L 351.230469 111.621094 L 349.796875 111.285156 L 345.496094 110.265625 L 344.066406 109.925781 L 336.898438 108.226562 L 335.46875 107.886719 L 328.300781 106.1875 L 326.867188 105.851562 L 325.4375 105.511719 L 318.269531 103.8125 L 316.839844 103.472656 L 308.238281 101.433594 L 306.808594 101.09375 L 303.941406 100.414062 L 302.507812 100.078125 L 299.640625 99.398438 L 298.210938 99.058594 L 289.609375 97.019531 L 288.179688 96.679688 L 281.011719 94.980469 L 279.582031 94.644531 L 270.980469 92.605469 L 269.550781 92.265625 L 262.382812 90.566406 L 260.953125 90.226562 L 256.652344 89.207031 L 255.21875 88.871094 L 252.351562 88.191406 L 250.921875 87.851562 L 246.621094 86.832031 "/>
<path fill="none" stroke-width="1.066978" stroke-linecap="butt" stroke-linejoin="round" stroke="rgb(93.72549%, 83.921569%, 67.45098%)" stroke-opacity="1" stroke-miterlimit="1" d="M 453.195312 276.679688 L 452.683594 277.683594 L 452.167969 278.6875 L 451.65625 279.691406 L 451.140625 280.691406 L 450.628906 281.695312 L 450.113281 282.699219 L 449.601562 283.703125 L 449.085938 284.707031 L 448.574219 285.710938 L 448.058594 286.714844 L 447.546875 287.71875 L 447.03125 288.71875 L 446.519531 289.722656 L 446.003906 290.726562 L 445.492188 291.730469 L 444.976562 292.734375 L 444.464844 293.738281 L 443.949219 294.742188 L 443.4375 295.742188 L 442.921875 296.746094 L 442.410156 297.75 L 441.894531 298.753906 L 441.382812 299.757812 L 440.867188 300.761719 L 440.355469 301.765625 L 439.839844 302.765625 L 439.328125 303.769531 L 438.8125 304.773438 L 438.300781 305.777344 L 437.785156 306.78125 L 437.273438 307.785156 L 436.757812 308.789062 L 436.246094 309.789062 L 435.730469 310.792969 L 435.21875 311.796875 L 434.703125 312.800781 L 434.191406 313.804688 L 433.675781 314.808594 L 433.164062 315.8125 L 432.648438 316.8125 L 432.136719 317.816406 L 431.621094 318.820312 L 431.109375 319.824219 L 430.59375 320.828125 L 430.082031 321.832031 L 429.566406 322.835938 L 429.054688 323.835938 L 428.539062 324.839844 L 428.027344 325.84375 L 427.511719 326.847656 L 427 327.851562 L 426.484375 328.855469 L 425.972656 329.859375 L 425.457031 330.859375 L 424.945312 331.863281 L 424.429688 332.867188 L 423.917969 333.871094 L 423.402344 334.875 L 422.890625 335.878906 L 422.375 336.882812 L 421.863281 337.882812 L 421.347656 338.886719 L 420.835938 339.890625 L 420.320312 340.894531 L 419.808594 341.898438 L 419.292969 342.902344 L 418.78125 343.90625 L 418.265625 344.90625 L 417.753906 345.910156 L 417.238281 346.914062 L 416.726562 347.917969 L 416.210938 348.921875 L 415.699219 349.925781 L 415.183594 350.929688 L 414.671875 351.929688 L 414.15625 352.933594 L 413.644531 353.9375 L 413.128906 354.941406 L 412.617188 355.945312 L 412.101562 356.949219 L 411.589844 357.953125 L 411.074219 358.953125 L 410.5625 359.957031 L 410.046875 360.960938 L 409.535156 361.964844 L 409.019531 362.96875 L 408.507812 363.972656 L 407.992188 364.976562 L 407.480469 365.976562 L 406.964844 366.980469 L 406.453125 367.984375 L 405.9375 368.988281 L 405.425781 369.992188 L 404.910156 370.996094 L 404.398438 372 L 403.882812 373 L 403.371094 374.003906 L 402.855469 375.007812 L 402.34375 376.011719 L 401.828125 377.015625 "/>
<path fill="none" stroke-width="1.066978" stroke-linecap="butt" stroke-linejoin="round" stroke="rgb(93.72549%, 83.921569%, 67.45098%)" stroke-opacity="1" stroke-miterlimit="1" d="M 389.921875 120.792969 L 379.257812 109.773438 L 378.4375 108.921875 L 377.617188 108.074219 L 376.800781 107.226562 L 362.035156 91.96875 L 361.21875 91.121094 L 349.734375 79.253906 L 348.914062 78.402344 L 346.453125 75.859375 L 345.636719 75.011719 L 330.871094 59.753906 L 330.054688 58.90625 L 319.390625 47.886719 L 318.570312 47.035156 L 315.289062 43.644531 L 314.472656 42.796875 L 307.910156 36.015625 "/>
<path fill="none" stroke-width="1.066978" stroke-linecap="butt" stroke-linejoin="round" stroke="rgb(93.72549%, 83.921569%, 67.45098%)" stroke-opacity="1" stroke-miterlimit="1" d="M 389.921875 120.792969 L 389.757812 118.738281 L 389.675781 117.707031 L 389.589844 116.679688 L 389.179688 111.542969 L 389.097656 110.511719 L 388.6875 105.375 L 388.605469 104.34375 L 388.195312 99.207031 L 388.109375 98.179688 L 388.027344 97.148438 L 387.535156 90.984375 L 387.453125 89.953125 L 386.960938 83.789062 L 386.878906 82.757812 L 386.796875 81.730469 L 386.710938 80.703125 L 386.464844 77.621094 L 386.382812 76.589844 L 385.890625 70.425781 L 385.808594 69.394531 L 385.316406 63.230469 L 385.230469 62.199219 L 384.820312 57.0625 L 384.738281 56.03125 L 384.246094 49.867188 L 384.164062 48.835938 L 383.835938 44.726562 L 383.75 43.699219 L 383.667969 42.671875 L 383.585938 41.640625 L 383.09375 35.476562 L 383.011719 34.445312 L 382.601562 29.308594 L 382.519531 28.277344 L 382.4375 27.25 L 382.351562 26.222656 L 382.023438 22.113281 L 381.941406 21.082031 L 381.695312 18 "/>
<path fill="none" stroke-width="1.066978" stroke-linecap="butt" stroke-linejoin="round" stroke="rgb(93.72549%, 83.921569%, 67.45098%)" stroke-opacity="1" stroke-miterlimit="1" d="M 528.507812 197.265625 L 528.835938 198.320312 L 529.492188 200.4375 L 529.824219 201.496094 L 530.152344 202.550781 L 531.136719 205.726562 L 531.464844 206.78125 L 532.121094 208.898438 L 532.453125 209.953125 L 533.4375 213.128906 L 533.765625 214.183594 L 534.75 217.359375 L 535.082031 218.414062 L 536.066406 221.589844 L 536.394531 222.644531 L 537.378906 225.820312 L 537.710938 226.875 L 538.695312 230.050781 L 539.023438 231.105469 L 540.007812 234.28125 L 540.339844 235.335938 L 541.324219 238.511719 L 541.652344 239.566406 L 542.308594 241.683594 L 542.636719 242.738281 L 542.96875 243.796875 L 543.625 245.914062 L 543.953125 246.96875 L 544.9375 250.144531 L 545.265625 251.199219 L 545.597656 252.257812 L 546.253906 254.375 L 546.582031 255.429688 L 547.566406 258.605469 L 547.898438 259.660156 L 548.882812 262.835938 L 549.210938 263.890625 L 550.195312 267.066406 L 550.527344 268.121094 L 551.511719 271.296875 L 551.839844 272.351562 L 552.496094 274.46875 L 552.824219 275.523438 L 553.15625 276.582031 L 553.8125 278.699219 L 554.140625 279.753906 L 555.125 282.929688 L 555.453125 283.984375 L 555.785156 285.042969 L 556.441406 287.160156 L 556.769531 288.214844 L 557.753906 291.390625 L 558.082031 292.445312 L 558.414062 293.503906 L 559.070312 295.621094 L 559.398438 296.675781 L 560.382812 299.851562 L 560.710938 300.90625 L 561.042969 301.964844 L 561.371094 303.023438 "/>
<path fill="none" stroke-width="1.066978" stroke-linecap="butt" stroke-linejoin="round" stroke="rgb(93.72549%, 83.921569%, 67.45098%)" stroke-opacity="1" stroke-miterlimit="1" d="M 453.195312 276.679688 L 454.277344 276.945312 L 456.441406 277.46875 L 457.523438 277.734375 L 458.605469 277.996094 L 459.6875 278.261719 L 460.769531 278.523438 L 461.847656 278.789062 L 464.011719 279.3125 L 465.09375 279.578125 L 466.175781 279.839844 L 467.257812 280.105469 L 468.339844 280.367188 L 469.421875 280.632812 L 471.585938 281.15625 L 472.667969 281.421875 L 473.75 281.683594 L 474.832031 281.949219 L 475.914062 282.210938 L 476.992188 282.476562 L 478.074219 282.738281 L 479.15625 283.003906 L 481.320312 283.527344 L 482.402344 283.792969 L 483.484375 284.054688 L 484.566406 284.320312 L 485.648438 284.582031 L 486.730469 284.847656 L 488.894531 285.371094 L 489.976562 285.636719 L 491.054688 285.898438 L 492.136719 286.164062 L 493.21875 286.425781 L 494.300781 286.691406 L 495.382812 286.953125 L 496.464844 287.21875 L 498.628906 287.742188 L 499.710938 288.007812 L 500.792969 288.269531 L 501.875 288.535156 L 502.957031 288.796875 L 504.039062 289.0625 L 505.121094 289.324219 L 506.199219 289.585938 L 507.28125 289.851562 L 508.363281 290.113281 L 509.445312 290.378906 L 510.527344 290.640625 L 511.609375 290.90625 L 512.691406 291.167969 L 513.773438 291.433594 L 515.9375 291.957031 L 517.019531 292.222656 L 518.101562 292.484375 L 519.183594 292.75 L 520.265625 293.011719 L 521.34375 293.277344 L 523.507812 293.800781 L 524.589844 294.066406 L 525.671875 294.328125 L 526.753906 294.59375 L 527.835938 294.855469 L 528.917969 295.121094 L 530 295.382812 L 531.082031 295.648438 L 533.246094 296.171875 L 534.328125 296.4375 L 535.40625 296.699219 L 536.488281 296.964844 L 537.570312 297.226562 L 538.652344 297.492188 L 540.816406 298.015625 L 541.898438 298.28125 L 542.980469 298.542969 L 544.0625 298.808594 L 545.144531 299.070312 L 546.226562 299.335938 L 547.308594 299.597656 L 548.390625 299.863281 L 549.472656 300.125 L 550.550781 300.386719 L 551.632812 300.652344 L 552.714844 300.914062 L 553.796875 301.179688 L 554.878906 301.441406 L 555.960938 301.707031 L 558.125 302.230469 L 559.207031 302.496094 L 560.289062 302.757812 L 561.371094 303.023438 "/>
<path fill="none" stroke-width="1.066978" stroke-linecap="butt" stroke-linejoin="round" stroke="rgb(93.72549%, 83.921569%, 67.45098%)" stroke-opacity="1" stroke-miterlimit="1" d="M 687.273438 341.078125 L 686.015625 340.695312 L 684.753906 340.316406 L 683.496094 339.933594 L 682.238281 339.554688 L 680.976562 339.171875 L 678.460938 338.414062 L 677.199219 338.03125 L 675.941406 337.652344 L 674.683594 337.269531 L 673.421875 336.890625 L 672.164062 336.511719 L 670.90625 336.128906 L 669.644531 335.75 L 668.386719 335.367188 L 667.128906 334.988281 L 665.871094 334.605469 L 664.609375 334.226562 L 663.351562 333.847656 L 662.09375 333.464844 L 660.832031 333.085938 L 659.574219 332.703125 L 658.316406 332.324219 L 657.054688 331.945312 L 655.796875 331.5625 L 654.539062 331.183594 L 653.277344 330.800781 L 652.019531 330.421875 L 650.761719 330.039062 L 649.5 329.660156 L 648.242188 329.28125 L 646.984375 328.898438 L 645.726562 328.519531 L 644.464844 328.136719 L 641.949219 327.378906 L 640.6875 326.996094 L 639.429688 326.617188 L 638.171875 326.234375 L 636.910156 325.855469 L 635.652344 325.472656 L 634.394531 325.09375 L 633.132812 324.714844 L 631.875 324.332031 L 630.617188 323.953125 L 629.359375 323.570312 L 628.097656 323.191406 L 626.839844 322.808594 L 625.582031 322.429688 L 624.320312 322.050781 L 623.0625 321.667969 L 621.804688 321.289062 L 620.542969 320.90625 L 618.027344 320.148438 L 616.765625 319.765625 L 615.507812 319.386719 L 614.25 319.003906 L 612.988281 318.625 L 611.730469 318.242188 L 609.214844 317.484375 L 607.953125 317.101562 L 606.695312 316.722656 L 605.4375 316.339844 L 604.175781 315.960938 L 602.917969 315.582031 L 601.660156 315.199219 L 600.398438 314.820312 L 599.140625 314.4375 L 597.882812 314.058594 L 596.621094 313.675781 L 594.105469 312.917969 L 592.847656 312.535156 L 591.585938 312.15625 L 590.328125 311.773438 L 589.070312 311.394531 L 587.808594 311.015625 L 586.550781 310.632812 L 585.292969 310.253906 L 584.03125 309.871094 L 582.773438 309.492188 L 581.515625 309.109375 L 580.253906 308.730469 L 578.996094 308.351562 L 577.738281 307.96875 L 576.476562 307.589844 L 575.21875 307.207031 L 572.703125 306.449219 L 571.441406 306.066406 L 570.183594 305.6875 L 568.925781 305.304688 L 567.664062 304.925781 L 566.40625 304.542969 L 565.148438 304.164062 L 563.886719 303.785156 L 562.628906 303.402344 L 561.371094 303.023438 "/>
<path fill="none" stroke-width="1.066978" stroke-linecap="butt" stroke-linejoin="round" stroke="rgb(93.72549%, 83.921569%, 67.45098%)" stroke-opacity="1" stroke-miterlimit="1" d="M 246.621094 86.832031 L 245.183594 88.371094 L 244.464844 89.136719 L 241.589844 92.214844 L 240.871094 92.980469 L 237.277344 96.828125 L 236.558594 97.59375 L 233.683594 100.671875 L 232.964844 101.4375 L 230.089844 104.515625 L 229.375 105.285156 L 228.65625 106.050781 L 225.78125 109.128906 L 225.0625 109.894531 L 221.46875 113.742188 L 220.75 114.507812 L 217.875 117.585938 L 217.15625 118.351562 L 213.5625 122.199219 L 212.84375 122.964844 L 209.96875 126.042969 L 209.25 126.808594 L 205.65625 130.65625 L 204.9375 131.421875 L 202.0625 134.5 L 201.34375 135.265625 L 197.75 139.113281 L 197.03125 139.878906 L 194.15625 142.957031 L 193.4375 143.722656 L 192 145.261719 L 191.285156 146.03125 L 189.847656 147.570312 L 189.128906 148.335938 L 186.253906 151.414062 L 185.535156 152.179688 L 181.941406 156.027344 L 181.222656 156.792969 L 178.347656 159.871094 L 177.628906 160.636719 L 174.753906 163.714844 "/>
<path fill="none" stroke-width="1.066978" stroke-linecap="butt" stroke-linejoin="round" stroke="rgb(93.72549%, 83.921569%, 67.45098%)" stroke-opacity="1" stroke-miterlimit="1" d="M 302.960938 227.765625 L 301.675781 227.125 L 296.550781 224.5625 L 295.265625 223.921875 L 290.140625 221.359375 L 288.855469 220.71875 L 285.011719 218.796875 L 283.726562 218.15625 L 278.601562 215.59375 L 277.316406 214.953125 L 272.191406 212.390625 L 270.90625 211.75 L 269.625 211.113281 L 265.78125 209.191406 L 264.496094 208.550781 L 259.371094 205.988281 L 258.085938 205.347656 L 252.960938 202.785156 L 251.675781 202.144531 L 247.832031 200.222656 L 246.546875 199.582031 L 241.421875 197.019531 L 240.136719 196.378906 L 235.011719 193.816406 L 233.726562 193.175781 L 228.601562 190.613281 L 227.316406 189.976562 L 222.191406 187.414062 L 220.90625 186.773438 L 215.78125 184.210938 L 214.496094 183.570312 L 209.371094 181.007812 L 208.085938 180.367188 L 204.242188 178.445312 L 202.957031 177.804688 L 197.832031 175.242188 L 196.546875 174.601562 L 191.421875 172.039062 L 190.136719 171.398438 L 185.011719 168.835938 L 183.726562 168.199219 L 178.601562 165.636719 L 177.316406 164.996094 L 174.753906 163.714844 "/>
<path fill="none" stroke-width="1.066978" stroke-linecap="butt" stroke-linejoin="round" stroke="rgb(93.72549%, 83.921569%, 67.45098%)" stroke-opacity="1" stroke-miterlimit="1" d="M 404.960938 179.234375 L 403.667969 179.261719 L 399.789062 179.332031 L 398.5 179.355469 L 390.742188 179.496094 L 389.449219 179.523438 L 376.519531 179.757812 L 375.226562 179.785156 L 373.933594 179.808594 L 372.644531 179.832031 L 361.007812 180.042969 L 359.714844 180.070312 L 348.078125 180.28125 L 346.789062 180.304688 L 345.496094 180.332031 L 332.566406 180.566406 L 331.273438 180.59375 L 322.222656 180.757812 L 320.933594 180.78125 L 317.054688 180.851562 L 315.761719 180.878906 L 302.832031 181.113281 L 301.539062 181.140625 L 296.367188 181.234375 L 295.078125 181.257812 L 288.613281 181.375 L 287.320312 181.402344 L 275.683594 181.613281 "/>
<path fill="none" stroke-width="1.066978" stroke-linecap="butt" stroke-linejoin="round" stroke="rgb(93.72549%, 83.921569%, 67.45098%)" stroke-opacity="1" stroke-miterlimit="1" d="M 302.960938 227.765625 L 302.6875 227.304688 L 302.414062 226.839844 L 301.59375 225.457031 L 301.324219 224.996094 L 300.777344 224.074219 L 300.503906 223.609375 L 300.230469 223.148438 L 299.960938 222.6875 L 298.867188 220.84375 L 298.59375 220.378906 L 298.324219 219.917969 L 296.957031 217.613281 L 296.6875 217.148438 L 295.59375 215.304688 L 295.324219 214.84375 L 295.050781 214.382812 L 294.777344 213.917969 L 293.957031 212.535156 L 293.6875 212.074219 L 293.140625 211.152344 L 292.867188 210.6875 L 292.320312 209.765625 L 292.050781 209.304688 L 291.230469 207.921875 L 290.957031 207.457031 L 290.6875 206.996094 L 289.320312 204.691406 L 289.050781 204.226562 L 287.683594 201.921875 L 287.414062 201.460938 L 287.140625 200.996094 L 286.320312 199.613281 L 286.050781 199.152344 L 285.503906 198.230469 L 285.230469 197.765625 L 284.683594 196.84375 L 284.414062 196.382812 L 283.59375 195 L 283.320312 194.535156 L 283.046875 194.074219 L 282.777344 193.613281 L 281.683594 191.769531 L 281.414062 191.304688 L 280.046875 189 L 279.777344 188.535156 L 278.683594 186.691406 L 278.414062 186.230469 L 278.140625 185.769531 L 277.867188 185.304688 L 277.046875 183.921875 L 276.777344 183.460938 L 276.230469 182.539062 L 275.957031 182.074219 L 275.683594 181.613281 "/>
<path fill="none" stroke-width="1.066978" stroke-linecap="butt" stroke-linejoin="round" stroke="rgb(93.72549%, 83.921569%, 67.45098%)" stroke-opacity="1" stroke-miterlimit="1" d="M 377.96875 255.855469 L 375.921875 254.371094 L 374.902344 253.628906 L 369.785156 249.917969 L 368.765625 249.171875 L 362.625 244.71875 L 361.605469 243.976562 L 355.464844 239.523438 L 354.445312 238.78125 L 351.375 236.554688 L 350.351562 235.808594 L 349.328125 235.066406 L 348.308594 234.324219 L 342.167969 229.871094 L 341.148438 229.128906 L 336.03125 225.417969 L 335.011719 224.675781 L 333.988281 223.933594 L 332.964844 223.1875 L 328.871094 220.21875 L 327.851562 219.476562 L 321.710938 215.023438 L 320.691406 214.28125 L 315.574219 210.570312 L 314.554688 209.824219 L 308.414062 205.371094 L 307.394531 204.628906 L 302.277344 200.917969 L 301.257812 200.175781 L 297.164062 197.207031 L 296.140625 196.460938 L 295.117188 195.71875 L 294.097656 194.976562 L 287.957031 190.523438 L 286.9375 189.78125 L 281.820312 186.070312 L 280.800781 185.328125 L 279.777344 184.585938 L 278.753906 183.839844 L 275.683594 181.613281 "/>
<path fill="none" stroke-width="1.066978" stroke-linecap="butt" stroke-linejoin="round" stroke="rgb(93.72549%, 83.921569%, 67.45098%)" stroke-opacity="1" stroke-miterlimit="1" d="M 619.25 87.253906 L 618.167969 87.199219 L 616.003906 87.082031 L 614.921875 87.027344 L 613.839844 86.96875 L 612.757812 86.914062 L 610.59375 86.796875 L 609.511719 86.742188 L 608.429688 86.683594 L 607.347656 86.628906 L 606.265625 86.570312 L 605.183594 86.515625 L 604.105469 86.457031 L 603.023438 86.398438 L 601.941406 86.34375 L 600.859375 86.285156 L 599.777344 86.230469 L 597.613281 86.113281 L 596.53125 86.058594 L 595.449219 86 L 594.367188 85.945312 L 593.285156 85.886719 L 592.203125 85.832031 L 590.039062 85.714844 L 588.957031 85.660156 L 587.878906 85.601562 L 586.796875 85.546875 L 584.632812 85.429688 L 583.550781 85.375 L 582.46875 85.316406 L 581.386719 85.261719 L 579.222656 85.144531 L 578.140625 85.089844 L 577.058594 85.03125 L 575.976562 84.976562 L 574.894531 84.917969 L 573.8125 84.863281 L 572.734375 84.804688 L 571.652344 84.746094 L 570.570312 84.691406 L 569.488281 84.632812 L 568.40625 84.578125 L 566.242188 84.460938 L 565.160156 84.40625 L 564.078125 84.347656 L 562.996094 84.292969 L 561.914062 84.234375 L 560.832031 84.179688 L 558.667969 84.0625 L 557.589844 84.007812 L 556.507812 83.949219 L 555.425781 83.894531 L 553.261719 83.777344 L 552.179688 83.722656 L 551.097656 83.664062 L 550.015625 83.609375 L 547.851562 83.492188 L 546.769531 83.4375 L 545.6875 83.378906 L 544.605469 83.324219 L 543.523438 83.265625 L 542.441406 83.210938 L 541.363281 83.152344 L 540.28125 83.09375 L 539.199219 83.039062 L 538.117188 82.980469 L 537.035156 82.925781 L 534.871094 82.808594 L 533.789062 82.753906 L 532.707031 82.695312 L 531.625 82.640625 L 530.542969 82.582031 L 529.460938 82.527344 L 527.296875 82.410156 L 526.21875 82.355469 L 525.136719 82.296875 L 524.054688 82.242188 L 521.890625 82.125 L 520.808594 82.070312 L 519.726562 82.011719 L 518.644531 81.957031 L 516.480469 81.839844 L 515.398438 81.785156 L 514.316406 81.726562 L 513.234375 81.671875 L 512.152344 81.613281 L 511.074219 81.558594 "/>
<path fill="none" stroke-width="1.066978" stroke-linecap="butt" stroke-linejoin="round" stroke="rgb(93.72549%, 83.921569%, 67.45098%)" stroke-opacity="1" stroke-miterlimit="1" d="M 404.960938 179.234375 L 407.085938 177.28125 L 408.144531 176.304688 L 410.269531 174.351562 L 411.328125 173.375 L 412.390625 172.398438 L 413.449219 171.421875 L 415.574219 169.46875 L 416.632812 168.492188 L 418.757812 166.539062 L 419.816406 165.5625 L 421.941406 163.609375 L 423 162.628906 L 425.125 160.675781 L 426.183594 159.699219 L 427.246094 158.722656 L 428.304688 157.746094 L 430.429688 155.792969 L 431.488281 154.816406 L 433.613281 152.863281 L 434.671875 151.886719 L 436.796875 149.933594 L 437.855469 148.957031 L 438.917969 147.980469 L 439.976562 147.003906 L 441.039062 146.023438 L 442.101562 145.046875 L 443.160156 144.070312 L 445.285156 142.117188 L 446.34375 141.140625 L 448.46875 139.1875 L 449.527344 138.210938 L 451.652344 136.257812 L 452.710938 135.28125 L 453.773438 134.304688 L 454.832031 133.328125 L 456.957031 131.375 L 458.015625 130.398438 L 459.078125 129.417969 L 460.140625 128.441406 L 461.199219 127.464844 L 463.324219 125.511719 L 464.382812 124.535156 L 466.507812 122.582031 L 467.566406 121.605469 L 468.628906 120.628906 L 469.6875 119.652344 L 471.8125 117.699219 L 472.871094 116.722656 L 474.996094 114.769531 L 476.054688 113.792969 L 477.117188 112.8125 L 478.179688 111.835938 L 479.238281 110.859375 L 481.363281 108.90625 L 482.421875 107.929688 L 483.484375 106.953125 L 484.542969 105.976562 L 486.667969 104.023438 L 487.726562 103.046875 L 489.851562 101.09375 L 490.910156 100.117188 L 493.035156 98.164062 L 494.09375 97.1875 L 495.15625 96.207031 L 496.21875 95.230469 L 497.277344 94.253906 L 498.339844 93.277344 L 499.398438 92.300781 L 501.523438 90.347656 L 502.582031 89.371094 L 504.707031 87.417969 L 505.765625 86.441406 L 507.890625 84.488281 L 508.949219 83.511719 L 511.074219 81.558594 "/>
<path fill="none" stroke-width="1.066978" stroke-linecap="butt" stroke-linejoin="round" stroke="rgb(93.72549%, 83.921569%, 67.45098%)" stroke-opacity="1" stroke-miterlimit="1" d="M 462.878906 24.367188 L 463.363281 24.941406 L 463.84375 25.511719 L 464.324219 26.085938 L 464.808594 26.65625 L 465.289062 27.226562 L 465.769531 27.800781 L 466.253906 28.371094 L 466.734375 28.945312 L 467.21875 29.515625 L 467.699219 30.085938 L 468.179688 30.660156 L 468.664062 31.230469 L 469.144531 31.804688 L 469.625 32.375 L 470.109375 32.945312 L 470.589844 33.519531 L 471.074219 34.089844 L 471.554688 34.664062 L 472.035156 35.234375 L 472.519531 35.804688 L 473 36.378906 L 473.480469 36.949219 L 473.964844 37.523438 L 474.445312 38.09375 L 474.929688 38.664062 L 475.410156 39.238281 L 475.890625 39.808594 L 476.375 40.382812 L 477.335938 41.523438 L 477.820312 42.097656 L 478.300781 42.667969 L 478.785156 43.242188 L 479.746094 44.382812 L 480.230469 44.957031 L 480.710938 45.527344 L 481.191406 46.101562 L 481.675781 46.671875 L 482.15625 47.242188 L 482.640625 47.816406 L 483.121094 48.386719 L 483.601562 48.960938 L 484.085938 49.53125 L 484.566406 50.101562 L 485.046875 50.675781 L 485.53125 51.246094 L 486.011719 51.820312 L 486.496094 52.390625 L 486.976562 52.960938 L 487.457031 53.535156 L 487.941406 54.105469 L 488.421875 54.679688 L 488.902344 55.25 L 489.386719 55.820312 L 489.867188 56.394531 L 490.347656 56.964844 L 490.832031 57.539062 L 491.3125 58.109375 L 491.796875 58.679688 L 492.277344 59.253906 L 492.757812 59.824219 L 493.242188 60.398438 L 494.203125 61.539062 L 494.6875 62.113281 L 495.167969 62.683594 L 495.652344 63.257812 L 496.613281 64.398438 L 497.097656 64.972656 L 497.578125 65.542969 L 498.058594 66.117188 L 498.542969 66.6875 L 499.023438 67.261719 L 499.507812 67.832031 L 499.988281 68.402344 L 500.46875 68.976562 L 500.953125 69.546875 L 501.433594 70.121094 L 501.914062 70.691406 L 502.398438 71.261719 L 502.878906 71.835938 L 503.363281 72.40625 L 503.84375 72.980469 L 504.324219 73.550781 L 504.808594 74.121094 L 505.289062 74.695312 L 505.769531 75.265625 L 506.253906 75.839844 L 506.734375 76.410156 L 507.21875 76.980469 L 507.699219 77.554688 L 508.179688 78.125 L 508.664062 78.699219 L 509.625 79.839844 L 510.109375 80.414062 L 510.589844 80.984375 L 511.074219 81.558594 "/>
<path fill="none" stroke-width="1.066978" stroke-linecap="butt" stroke-linejoin="round" stroke="rgb(93.72549%, 83.921569%, 67.45098%)" stroke-opacity="1" stroke-miterlimit="10" d="M 302.960938 227.765625 L 453.195312 276.679688 "/>
<path fill="none" stroke-width="1.066978" stroke-linecap="butt" stroke-linejoin="round" stroke="rgb(93.72549%, 83.921569%, 67.45098%)" stroke-opacity="1" stroke-miterlimit="10" d="M 302.960938 227.765625 L 160.980469 259.496094 "/>
<path fill="none" stroke-width="1.066978" stroke-linecap="butt" stroke-linejoin="round" stroke="rgb(93.72549%, 83.921569%, 67.45098%)" stroke-opacity="1" stroke-miterlimit="10" d="M 453.195312 276.679688 L 596.347656 270.8125 "/>
<path fill="none" stroke-width="1.066978" stroke-linecap="butt" stroke-linejoin="round" stroke="rgb(93.72549%, 83.921569%, 67.45098%)" stroke-opacity="1" stroke-miterlimit="10" d="M 302.960938 227.765625 L 404.960938 179.234375 "/>
<path fill="none" stroke-width="1.066978" stroke-linecap="butt" stroke-linejoin="round" stroke="rgb(93.72549%, 83.921569%, 67.45098%)" stroke-opacity="1" stroke-miterlimit="10" d="M 453.195312 276.679688 L 404.960938 179.234375 "/>
<path fill="none" stroke-width="1.066978" stroke-linecap="butt" stroke-linejoin="round" stroke="rgb(93.72549%, 83.921569%, 67.45098%)" stroke-opacity="1" stroke-miterlimit="10" d="M 453.195312 276.679688 L 377.96875 255.855469 "/>
<path fill="none" stroke-width="1.066978" stroke-linecap="butt" stroke-linejoin="round" stroke="rgb(93.72549%, 83.921569%, 67.45098%)" stroke-opacity="1" stroke-miterlimit="10" d="M 302.960938 227.765625 L 377.96875 255.855469 "/>
<path fill="none" stroke-width="1.066978" stroke-linecap="butt" stroke-linejoin="round" stroke="rgb(93.72549%, 83.921569%, 67.45098%)" stroke-opacity="1" stroke-miterlimit="10" d="M 404.960938 179.234375 L 389.921875 120.792969 "/>
<path fill="none" stroke-width="1.066978" stroke-linecap="butt" stroke-linejoin="round" stroke="rgb(93.72549%, 83.921569%, 67.45098%)" stroke-opacity="1" stroke-miterlimit="10" d="M 302.960938 227.765625 L 389.921875 120.792969 "/>
<path fill="none" stroke-width="1.066978" stroke-linecap="butt" stroke-linejoin="round" stroke="rgb(93.72549%, 83.921569%, 67.45098%)" stroke-opacity="1" stroke-miterlimit="10" d="M 453.195312 276.679688 L 441.121094 201.414062 "/>
<path fill="none" stroke-width="1.066978" stroke-linecap="butt" stroke-linejoin="round" stroke="rgb(93.72549%, 83.921569%, 67.45098%)" stroke-opacity="1" stroke-miterlimit="10" d="M 389.921875 120.792969 L 441.121094 201.414062 "/>
<path fill="none" stroke-width="1.066978" stroke-linecap="butt" stroke-linejoin="round" stroke="rgb(93.72549%, 83.921569%, 67.45098%)" stroke-opacity="1" stroke-miterlimit="10" d="M 389.921875 120.792969 L 462.878906 24.367188 "/>
<path fill="none" stroke-width="1.066978" stroke-linecap="butt" stroke-linejoin="round" stroke="rgb(93.72549%, 83.921569%, 67.45098%)" stroke-opacity="1" stroke-miterlimit="10" d="M 404.960938 179.234375 L 510.410156 166.835938 "/>
<path fill="none" stroke-width="1.066978" stroke-linecap="butt" stroke-linejoin="round" stroke="rgb(93.72549%, 83.921569%, 67.45098%)" stroke-opacity="1" stroke-miterlimit="10" d="M 377.96875 255.855469 L 510.410156 166.835938 "/>
<path fill="none" stroke-width="1.066978" stroke-linecap="butt" stroke-linejoin="round" stroke="rgb(93.72549%, 83.921569%, 67.45098%)" stroke-opacity="1" stroke-miterlimit="10" d="M 453.195312 276.679688 L 510.410156 166.835938 "/>
<path fill="none" stroke-width="1.066978" stroke-linecap="butt" stroke-linejoin="round" stroke="rgb(93.72549%, 83.921569%, 67.45098%)" stroke-opacity="1" stroke-miterlimit="10" d="M 389.921875 120.792969 L 510.410156 166.835938 "/>
<path fill="none" stroke-width="1.066978" stroke-linecap="butt" stroke-linejoin="round" stroke="rgb(93.72549%, 83.921569%, 67.45098%)" stroke-opacity="1" stroke-miterlimit="10" d="M 160.980469 259.496094 L 32.726562 290.832031 "/>
<path fill="none" stroke-width="1.066978" stroke-linecap="butt" stroke-linejoin="round" stroke="rgb(93.72549%, 83.921569%, 67.45098%)" stroke-opacity="1" stroke-miterlimit="10" d="M 404.960938 179.234375 L 528.507812 197.265625 "/>
<path fill="none" stroke-width="1.066978" stroke-linecap="butt" stroke-linejoin="round" stroke="rgb(93.72549%, 83.921569%, 67.45098%)" stroke-opacity="1" stroke-miterlimit="10" d="M 389.921875 120.792969 L 528.507812 197.265625 "/>
<path fill="none" stroke-width="1.066978" stroke-linecap="butt" stroke-linejoin="round" stroke="rgb(93.72549%, 83.921569%, 67.45098%)" stroke-opacity="1" stroke-miterlimit="10" d="M 596.347656 270.8125 L 528.507812 197.265625 "/>
<path fill="none" stroke-width="1.066978" stroke-linecap="butt" stroke-linejoin="round" stroke="rgb(93.72549%, 83.921569%, 67.45098%)" stroke-opacity="1" stroke-miterlimit="10" d="M 453.195312 276.679688 L 487.058594 378 "/>
<path fill="none" stroke-width="1.066978" stroke-linecap="butt" stroke-linejoin="round" stroke="rgb(93.72549%, 83.921569%, 67.45098%)" stroke-opacity="1" stroke-miterlimit="10" d="M 510.410156 166.835938 L 619.25 87.253906 "/>
<path fill="none" stroke-width="1.066978" stroke-linecap="butt" stroke-linejoin="round" stroke="rgb(93.72549%, 83.921569%, 67.45098%)" stroke-opacity="1" stroke-miterlimit="10" d="M 302.960938 227.765625 L 233.566406 317.1875 "/>
<path fill="none" stroke-width="1.066978" stroke-linecap="butt" stroke-linejoin="round" stroke="rgb(93.72549%, 83.921569%, 67.45098%)" stroke-opacity="1" stroke-miterlimit="10" d="M 596.347656 270.8125 L 687.273438 341.078125 "/>
<path fill="none" stroke-width="1.066978" stroke-linecap="butt" stroke-linejoin="round" stroke="rgb(93.72549%, 83.921569%, 67.45098%)" stroke-opacity="1" stroke-miterlimit="10" d="M 510.410156 166.835938 L 670.589844 160.578125 "/>
<path fill="none" stroke-width="1.066978" stroke-linecap="butt" stroke-linejoin="round" stroke="rgb(93.72549%, 83.921569%, 67.45098%)" stroke-opacity="1" stroke-miterlimit="10" d="M 389.921875 120.792969 L 246.621094 86.832031 "/>
<path fill="none" stroke-width="1.066978" stroke-linecap="butt" stroke-linejoin="round" stroke="rgb(93.72549%, 83.921569%, 67.45098%)" stroke-opacity="1" stroke-miterlimit="10" d="M 453.195312 276.679688 L 401.828125 377.015625 "/>
<path fill="none" stroke-width="1.066978" stroke-linecap="butt" stroke-linejoin="round" stroke="rgb(93.72549%, 83.921569%, 67.45098%)" stroke-opacity="1" stroke-miterlimit="10" d="M 389.921875 120.792969 L 307.910156 36.015625 "/>
<path fill="none" stroke-width="1.066978" stroke-linecap="butt" stroke-linejoin="round" stroke="rgb(93.72549%, 83.921569%, 67.45098%)" stroke-opacity="1" stroke-miterlimit="10" d="M 389.921875 120.792969 L 381.695312 18 "/>
<path fill="none" stroke-width="1.066978" stroke-linecap="butt" stroke-linejoin="round" stroke="rgb(93.72549%, 83.921569%, 67.45098%)" stroke-opacity="1" stroke-miterlimit="10" d="M 528.507812 197.265625 L 561.371094 303.023438 "/>
<path fill="none" stroke-width="1.066978" stroke-linecap="butt" stroke-linejoin="round" stroke="rgb(93.72549%, 83.921569%, 67.45098%)" stroke-opacity="1" stroke-miterlimit="10" d="M 453.195312 276.679688 L 561.371094 303.023438 "/>
<path fill="none" stroke-width="1.066978" stroke-linecap="butt" stroke-linejoin="round" stroke="rgb(93.72549%, 83.921569%, 67.45098%)" stroke-opacity="1" stroke-miterlimit="10" d="M 687.273438 341.078125 L 561.371094 303.023438 "/>
<path fill="none" stroke-width="1.066978" stroke-linecap="butt" stroke-linejoin="round" stroke="rgb(93.72549%, 83.921569%, 67.45098%)" stroke-opacity="1" stroke-miterlimit="10" d="M 246.621094 86.832031 L 174.753906 163.714844 "/>
<path fill="none" stroke-width="1.066978" stroke-linecap="butt" stroke-linejoin="round" stroke="rgb(93.72549%, 83.921569%, 67.45098%)" stroke-opacity="1" stroke-miterlimit="10" d="M 302.960938 227.765625 L 174.753906 163.714844 "/>
<path fill="none" stroke-width="1.066978" stroke-linecap="butt" stroke-linejoin="round" stroke="rgb(93.72549%, 83.921569%, 67.45098%)" stroke-opacity="1" stroke-miterlimit="10" d="M 404.960938 179.234375 L 275.683594 181.613281 "/>
<path fill="none" stroke-width="1.066978" stroke-linecap="butt" stroke-linejoin="round" stroke="rgb(93.72549%, 83.921569%, 67.45098%)" stroke-opacity="1" stroke-miterlimit="10" d="M 302.960938 227.765625 L 275.683594 181.613281 "/>
<path fill="none" stroke-width="1.066978" stroke-linecap="butt" stroke-linejoin="round" stroke="rgb(93.72549%, 83.921569%, 67.45098%)" stroke-opacity="1" stroke-miterlimit="10" d="M 377.96875 255.855469 L 275.683594 181.613281 "/>
<path fill="none" stroke-width="1.066978" stroke-linecap="butt" stroke-linejoin="round" stroke="rgb(93.72549%, 83.921569%, 67.45098%)" stroke-opacity="1" stroke-miterlimit="10" d="M 619.25 87.253906 L 511.074219 81.558594 "/>
<path fill="none" stroke-width="1.066978" stroke-linecap="butt" stroke-linejoin="round" stroke="rgb(93.72549%, 83.921569%, 67.45098%)" stroke-opacity="1" stroke-miterlimit="10" d="M 404.960938 179.234375 L 511.074219 81.558594 "/>
<path fill="none" stroke-width="1.066978" stroke-linecap="butt" stroke-linejoin="round" stroke="rgb(93.72549%, 83.921569%, 67.45098%)" stroke-opacity="1" stroke-miterlimit="10" d="M 462.878906 24.367188 L 511.074219 81.558594 "/>
<path fill-rule="nonzero" fill="rgb(76.862745%, 28.627451%, 0%)" fill-opacity="1" stroke-width="0.708661" stroke-linecap="round" stroke-linejoin="round" stroke="rgb(76.862745%, 28.627451%, 0%)" stroke-opacity="1" stroke-miterlimit="10" d="M 304.914062 227.765625 C 304.914062 230.371094 301.003906 230.371094 301.003906 227.765625 C 301.003906 225.160156 304.914062 225.160156 304.914062 227.765625 "/>
<path fill-rule="nonzero" fill="rgb(76.862745%, 28.627451%, 0%)" fill-opacity="1" stroke-width="0.708661" stroke-linecap="round" stroke-linejoin="round" stroke="rgb(76.862745%, 28.627451%, 0%)" stroke-opacity="1" stroke-miterlimit="10" d="M 455.148438 276.679688 C 455.148438 279.285156 451.242188 279.285156 451.242188 276.679688 C 451.242188 274.074219 455.148438 274.074219 455.148438 276.679688 "/>
<path fill-rule="nonzero" fill="rgb(76.862745%, 28.627451%, 0%)" fill-opacity="1" stroke-width="0.708661" stroke-linecap="round" stroke-linejoin="round" stroke="rgb(76.862745%, 28.627451%, 0%)" stroke-opacity="1" stroke-miterlimit="10" d="M 162.933594 259.496094 C 162.933594 262.105469 159.023438 262.105469 159.023438 259.496094 C 159.023438 256.890625 162.933594 256.890625 162.933594 259.496094 "/>
<path fill-rule="nonzero" fill="rgb(76.862745%, 28.627451%, 0%)" fill-opacity="1" stroke-width="0.708661" stroke-linecap="round" stroke-linejoin="round" stroke="rgb(76.862745%, 28.627451%, 0%)" stroke-opacity="1" stroke-miterlimit="10" d="M 598.304688 270.8125 C 598.304688 273.417969 594.394531 273.417969 594.394531 270.8125 C 594.394531 268.207031 598.304688 268.207031 598.304688 270.8125 "/>
<path fill-rule="nonzero" fill="rgb(76.862745%, 28.627451%, 0%)" fill-opacity="1" stroke-width="0.708661" stroke-linecap="round" stroke-linejoin="round" stroke="rgb(76.862745%, 28.627451%, 0%)" stroke-opacity="1" stroke-miterlimit="10" d="M 406.917969 179.234375 C 406.917969 181.84375 403.007812 181.84375 403.007812 179.234375 C 403.007812 176.628906 406.917969 176.628906 406.917969 179.234375 "/>
<path fill-rule="nonzero" fill="rgb(76.862745%, 28.627451%, 0%)" fill-opacity="1" stroke-width="0.708661" stroke-linecap="round" stroke-linejoin="round" stroke="rgb(76.862745%, 28.627451%, 0%)" stroke-opacity="1" stroke-miterlimit="10" d="M 379.925781 255.855469 C 379.925781 258.460938 376.015625 258.460938 376.015625 255.855469 C 376.015625 253.25 379.925781 253.25 379.925781 255.855469 "/>
<path fill-rule="nonzero" fill="rgb(76.862745%, 28.627451%, 0%)" fill-opacity="1" stroke-width="0.708661" stroke-linecap="round" stroke-linejoin="round" stroke="rgb(76.862745%, 28.627451%, 0%)" stroke-opacity="1" stroke-miterlimit="10" d="M 391.875 120.792969 C 391.875 123.398438 387.964844 123.398438 387.964844 120.792969 C 387.964844 118.1875 391.875 118.1875 391.875 120.792969 "/>
<path fill-rule="nonzero" fill="rgb(76.862745%, 28.627451%, 0%)" fill-opacity="1" stroke-width="0.708661" stroke-linecap="round" stroke-linejoin="round" stroke="rgb(76.862745%, 28.627451%, 0%)" stroke-opacity="1" stroke-miterlimit="10" d="M 443.074219 201.414062 C 443.074219 204.023438 439.167969 204.023438 439.167969 201.414062 C 439.167969 198.808594 443.074219 198.808594 443.074219 201.414062 "/>
<path fill-rule="nonzero" fill="rgb(76.862745%, 28.627451%, 0%)" fill-opacity="1" stroke-width="0.708661" stroke-linecap="round" stroke-linejoin="round" stroke="rgb(76.862745%, 28.627451%, 0%)" stroke-opacity="1" stroke-miterlimit="10" d="M 464.835938 24.367188 C 464.835938 26.976562 460.925781 26.976562 460.925781 24.367188 C 460.925781 21.761719 464.835938 21.761719 464.835938 24.367188 "/>
<path fill-rule="nonzero" fill="rgb(76.862745%, 28.627451%, 0%)" fill-opacity="1" stroke-width="0.708661" stroke-linecap="round" stroke-linejoin="round" stroke="rgb(76.862745%, 28.627451%, 0%)" stroke-opacity="1" stroke-miterlimit="10" d="M 512.363281 166.835938 C 512.363281 169.441406 508.453125 169.441406 508.453125 166.835938 C 508.453125 164.230469 512.363281 164.230469 512.363281 166.835938 "/>
<path fill-rule="nonzero" fill="rgb(76.862745%, 28.627451%, 0%)" fill-opacity="1" stroke-width="0.708661" stroke-linecap="round" stroke-linejoin="round" stroke="rgb(76.862745%, 28.627451%, 0%)" stroke-opacity="1" stroke-miterlimit="10" d="M 34.683594 290.832031 C 34.683594 293.441406 30.773438 293.441406 30.773438 290.832031 C 30.773438 288.226562 34.683594 288.226562 34.683594 290.832031 "/>
<path fill-rule="nonzero" fill="rgb(76.862745%, 28.627451%, 0%)" fill-opacity="1" stroke-width="0.708661" stroke-linecap="round" stroke-linejoin="round" stroke="rgb(76.862745%, 28.627451%, 0%)" stroke-opacity="1" stroke-miterlimit="10" d="M 530.460938 197.265625 C 530.460938 199.871094 526.554688 199.871094 526.554688 197.265625 C 526.554688 194.65625 530.460938 194.65625 530.460938 197.265625 "/>
<path fill-rule="nonzero" fill="rgb(76.862745%, 28.627451%, 0%)" fill-opacity="1" stroke-width="0.708661" stroke-linecap="round" stroke-linejoin="round" stroke="rgb(76.862745%, 28.627451%, 0%)" stroke-opacity="1" stroke-miterlimit="10" d="M 489.015625 378 C 489.015625 380.605469 485.105469 380.605469 485.105469 378 C 485.105469 375.394531 489.015625 375.394531 489.015625 378 "/>
<path fill-rule="nonzero" fill="rgb(76.862745%, 28.627451%, 0%)" fill-opacity="1" stroke-width="0.708661" stroke-linecap="round" stroke-linejoin="round" stroke="rgb(76.862745%, 28.627451%, 0%)" stroke-opacity="1" stroke-miterlimit="10" d="M 621.203125 87.253906 C 621.203125 89.859375 617.292969 89.859375 617.292969 87.253906 C 617.292969 84.648438 621.203125 84.648438 621.203125 87.253906 "/>
<path fill-rule="nonzero" fill="rgb(76.862745%, 28.627451%, 0%)" fill-opacity="1" stroke-width="0.708661" stroke-linecap="round" stroke-linejoin="round" stroke="rgb(76.862745%, 28.627451%, 0%)" stroke-opacity="1" stroke-miterlimit="10" d="M 235.519531 317.1875 C 235.519531 319.792969 231.613281 319.792969 231.613281 317.1875 C 231.613281 314.582031 235.519531 314.582031 235.519531 317.1875 "/>
<path fill-rule="nonzero" fill="rgb(76.862745%, 28.627451%, 0%)" fill-opacity="1" stroke-width="0.708661" stroke-linecap="round" stroke-linejoin="round" stroke="rgb(76.862745%, 28.627451%, 0%)" stroke-opacity="1" stroke-miterlimit="10" d="M 689.226562 341.078125 C 689.226562 343.683594 685.316406 343.683594 685.316406 341.078125 C 685.316406 338.46875 689.226562 338.46875 689.226562 341.078125 "/>
<path fill-rule="nonzero" fill="rgb(76.862745%, 28.627451%, 0%)" fill-opacity="1" stroke-width="0.708661" stroke-linecap="round" stroke-linejoin="round" stroke="rgb(76.862745%, 28.627451%, 0%)" stroke-opacity="1" stroke-miterlimit="10" d="M 672.546875 160.578125 C 672.546875 163.183594 668.636719 163.183594 668.636719 160.578125 C 668.636719 157.972656 672.546875 157.972656 672.546875 160.578125 "/>
<path fill-rule="nonzero" fill="rgb(76.862745%, 28.627451%, 0%)" fill-opacity="1" stroke-width="0.708661" stroke-linecap="round" stroke-linejoin="round" stroke="rgb(76.862745%, 28.627451%, 0%)" stroke-opacity="1" stroke-miterlimit="10" d="M 248.574219 86.832031 C 248.574219 89.4375 244.667969 89.4375 244.667969 86.832031 C 244.667969 84.226562 248.574219 84.226562 248.574219 86.832031 "/>
<path fill-rule="nonzero" fill="rgb(76.862745%, 28.627451%, 0%)" fill-opacity="1" stroke-width="0.708661" stroke-linecap="round" stroke-linejoin="round" stroke="rgb(76.862745%, 28.627451%, 0%)" stroke-opacity="1" stroke-miterlimit="10" d="M 403.785156 377.015625 C 403.785156 379.621094 399.875 379.621094 399.875 377.015625 C 399.875 374.410156 403.785156 374.410156 403.785156 377.015625 "/>
<path fill-rule="nonzero" fill="rgb(76.862745%, 28.627451%, 0%)" fill-opacity="1" stroke-width="0.708661" stroke-linecap="round" stroke-linejoin="round" stroke="rgb(76.862745%, 28.627451%, 0%)" stroke-opacity="1" stroke-miterlimit="10" d="M 309.863281 36.015625 C 309.863281 38.621094 305.957031 38.621094 305.957031 36.015625 C 305.957031 33.410156 309.863281 33.410156 309.863281 36.015625 "/>
<path fill-rule="nonzero" fill="rgb(76.862745%, 28.627451%, 0%)" fill-opacity="1" stroke-width="0.708661" stroke-linecap="round" stroke-linejoin="round" stroke="rgb(76.862745%, 28.627451%, 0%)" stroke-opacity="1" stroke-miterlimit="10" d="M 383.648438 18 C 383.648438 20.605469 379.742188 20.605469 379.742188 18 C 379.742188 15.394531 383.648438 15.394531 383.648438 18 "/>
<path fill-rule="nonzero" fill="rgb(76.862745%, 28.627451%, 0%)" fill-opacity="1" stroke-width="0.708661" stroke-linecap="round" stroke-linejoin="round" stroke="rgb(76.862745%, 28.627451%, 0%)" stroke-opacity="1" stroke-miterlimit="10" d="M 563.324219 303.023438 C 563.324219 305.628906 559.414062 305.628906 559.414062 303.023438 C 559.414062 300.417969 563.324219 300.417969 563.324219 303.023438 "/>
<path fill-rule="nonzero" fill="rgb(76.862745%, 28.627451%, 0%)" fill-opacity="1" stroke-width="0.708661" stroke-linecap="round" stroke-linejoin="round" stroke="rgb(76.862745%, 28.627451%, 0%)" stroke-opacity="1" stroke-miterlimit="10" d="M 176.707031 163.714844 C 176.707031 166.320312 172.800781 166.320312 172.800781 163.714844 C 172.800781 161.105469 176.707031 161.105469 176.707031 163.714844 "/>
<path fill-rule="nonzero" fill="rgb(76.862745%, 28.627451%, 0%)" fill-opacity="1" stroke-width="0.708661" stroke-linecap="round" stroke-linejoin="round" stroke="rgb(76.862745%, 28.627451%, 0%)" stroke-opacity="1" stroke-miterlimit="10" d="M 277.640625 181.613281 C 277.640625 184.222656 273.730469 184.222656 273.730469 181.613281 C 273.730469 179.007812 277.640625 179.007812 277.640625 181.613281 "/>
<path fill-rule="nonzero" fill="rgb(76.862745%, 28.627451%, 0%)" fill-opacity="1" stroke-width="0.708661" stroke-linecap="round" stroke-linejoin="round" stroke="rgb(76.862745%, 28.627451%, 0%)" stroke-opacity="1" stroke-miterlimit="10" d="M 513.027344 81.558594 C 513.027344 84.164062 509.117188 84.164062 509.117188 81.558594 C 509.117188 78.949219 513.027344 78.949219 513.027344 81.558594 "/>
</svg>
