<?xml version="1.0" encoding="UTF-8" standalone="no"?>
<svg
   id="Layer_1"
   viewBox="0 0 59.589714 70"
   width="700.72571"
   height="823"
   version="1.1"
   sodipodi:docname="newcastle-university.svg"
   inkscape:export-filename="../Documents/PHD/CRAN/poster3/newcastle-university.svg"
   inkscape:export-xdpi="96"
   inkscape:export-ydpi="96"
   xmlns:inkscape="http://www.inkscape.org/namespaces/inkscape"
   xmlns:sodipodi="http://sodipodi.sourceforge.net/DTD/sodipodi-0.dtd"
   xmlns:xlink="http://www.w3.org/1999/xlink"
   xmlns="http://www.w3.org/2000/svg"
   xmlns:svg="http://www.w3.org/2000/svg">
  <sodipodi:namedview
     id="namedview27"
     pagecolor="#ffffff"
     bordercolor="#000000"
     borderopacity="0.25"
     inkscape:showpageshadow="2"
     inkscape:pageopacity="0.0"
     inkscape:pagecheckerboard="0"
     inkscape:deskcolor="#d1d1d1" />
  <style
     id="style1">.st0,.st1{clip-path:url(#SVGID_2_);fill:#003a65}.st1{clip-path:url(#SVGID_4_)}.st2,.st3,.st4{clip-path:url(#SVGID_6_);fill:#003a65}.st3,.st4{clip-path:url(#SVGID_8_)}.st4{clip-path:url(#SVGID_10_)}.st5,.st6,.st7{clip-path:url(#SVGID_12_);fill:#003a65}.st6,.st7{clip-path:url(#SVGID_14_)}.st7{clip-path:url(#SVGID_16_)}.st10,.st8,.st9{clip-path:url(#SVGID_18_);fill:#003a65}.st10,.st9{clip-path:url(#SVGID_20_)}.st10{clip-path:url(#SVGID_22_)}.st11,.st12,.st13{clip-path:url(#SVGID_24_);fill:#003a65}.st12,.st13{clip-path:url(#SVGID_26_)}.st13{clip-path:url(#SVGID_28_)}.st14,.st15,.st16{clip-path:url(#SVGID_30_);fill:#003a65}.st15,.st16{clip-path:url(#SVGID_32_)}.st16{clip-path:url(#SVGID_34_)}.st17,.st18,.st19{clip-path:url(#SVGID_36_);fill:#003a65}.st18,.st19{clip-path:url(#SVGID_38_)}.st19{clip-path:url(#SVGID_40_)}.st20,.st21{clip-path:url(#SVGID_42_);fill:#fff}.st21{clip-path:url(#SVGID_44_)}.st22{clip-path:url(#SVGID_46_);fill:#003a65}.st23{clip-path:url(#SVGID_48_);fill:#d91a35}.st24,.st25,.st26{clip-path:url(#SVGID_50_);fill:#d91a35}.st25,.st26{clip-path:url(#SVGID_52_)}.st26{clip-path:url(#SVGID_54_)}</style>
  <defs
     id="defs1">
    <path
       id="SVGID_1_"
       d="M 0,0 H 212.6 V 70 H 0 Z" />
    <defs
       id="defs20">
      <path
         id="SVGID_39_"
         d="M 0,0 H 212.6 V 70 H 0 Z" />
    </defs>
    <clipPath
       id="SVGID_40_">
      <use
         xlink:href="#SVGID_39_"
         overflow="visible"
         id="use20" />
    </clipPath>
    <defs
       id="defs25">
      <path
         id="SVGID_49_"
         d="M 0,0 H 212.6 V 70 H 0 Z" />
    </defs>
    <clipPath
       id="SVGID_50_">
      <use
         xlink:href="#SVGID_49_"
         overflow="visible"
         id="use25" />
    </clipPath>
  </defs>
  <clipPath
     id="SVGID_2_">
    <use
       xlink:href="#SVGID_1_"
       overflow="visible"
       id="use1" />
  </clipPath>
  <defs
     id="defs2">
    <path
       id="SVGID_3_"
       d="M 0,0 H 212.6 V 70 H 0 Z" />
  </defs>
  <clipPath
     id="SVGID_4_">
    <use
       xlink:href="#SVGID_3_"
       overflow="visible"
       id="use2" />
  </clipPath>
  <defs
     id="defs3">
    <path
       id="SVGID_5_"
       d="M 0,0 H 212.6 V 70 H 0 Z" />
  </defs>
  <clipPath
     id="SVGID_6_">
    <use
       xlink:href="#SVGID_5_"
       overflow="visible"
       id="use3" />
  </clipPath>
  <defs
     id="defs4">
    <path
       id="SVGID_7_"
       d="M 0,0 H 212.6 V 70 H 0 Z" />
  </defs>
  <clipPath
     id="SVGID_8_">
    <use
       xlink:href="#SVGID_7_"
       overflow="visible"
       id="use4" />
  </clipPath>
  <defs
     id="defs5">
    <path
       id="SVGID_9_"
       d="M 0,0 H 212.6 V 70 H 0 Z" />
  </defs>
  <clipPath
     id="SVGID_10_">
    <use
       xlink:href="#SVGID_9_"
       overflow="visible"
       id="use5" />
  </clipPath>
  <defs
     id="defs6">
    <path
       id="SVGID_11_"
       d="M 0,0 H 212.6 V 70 H 0 Z" />
  </defs>
  <clipPath
     id="SVGID_12_">
    <use
       xlink:href="#SVGID_11_"
       overflow="visible"
       id="use6" />
  </clipPath>
  <defs
     id="defs7">
    <path
       id="SVGID_13_"
       d="M 0,0 H 212.6 V 70 H 0 Z" />
  </defs>
  <clipPath
     id="SVGID_14_">
    <use
       xlink:href="#SVGID_13_"
       overflow="visible"
       id="use7" />
  </clipPath>
  <defs
     id="defs8">
    <path
       id="SVGID_15_"
       d="M 0,0 H 212.6 V 70 H 0 Z" />
  </defs>
  <clipPath
     id="SVGID_16_">
    <use
       xlink:href="#SVGID_15_"
       overflow="visible"
       id="use8" />
  </clipPath>
  <defs
     id="defs9">
    <path
       id="SVGID_17_"
       d="M 0,0 H 212.6 V 70 H 0 Z" />
  </defs>
  <clipPath
     id="SVGID_18_">
    <use
       xlink:href="#SVGID_17_"
       overflow="visible"
       id="use9" />
  </clipPath>
  <g
     id="g31"
     transform="translate(-0.01834751)">
    <g
       id="g32"
       inkscape:export-filename="../Documents/PHD/CRAN/poster3/ncl_badge.svg"
       inkscape:export-xdpi="96"
       inkscape:export-ydpi="96">
      <path
         id="path20"
         clip-path="url(#SVGID_40_)"
         class="st19"
         d="M -7.4043135e-5,0 V 22.699964 C -7.4043135e-5,56.099898 29.799962,70 29.799962,70 c 0,0 29.800036,-13.900102 29.800036,-47.300036 V 0 Z M 0.99998291,1.000057 H 58.799953 V 22.699964 H 0.99998291 Z M 29.899968,25.799974 c 1.799998,0 3.699983,0.300046 5.499981,0.800046 -3.399997,5.199995 -4.299969,10.299936 -2.399971,13.399933 0.2,-0.2 0.500046,-0.300018 0.800046,-0.300018 0.699999,0 1.299908,0.600075 1.299908,1.300074 0,0.3 -0.09985,0.600046 -0.299851,0.800046 2.999997,1.799998 8.199937,0.90002 13.399932,-2.499976 0.5,1.699998 0.800046,3.599983 0.800046,5.499981 0,1.899998 -0.300046,3.699988 -0.800046,5.599987 -5.199995,-3.499997 -10.299935,-4.399975 -13.399932,-2.499977 0.199999,0.2 0.299851,0.49988 0.299851,0.79988 0,0.699999 -0.599909,1.300074 -1.299908,1.300074 -0.3,0 -0.600046,-0.100018 -0.800046,-0.300017 -1.899998,2.999997 -1.000026,8.199932 2.399971,13.299927 -1.799998,0.499999 -3.599983,0.800045 -5.499981,0.800045 -1.799998,0 -3.699983,-0.300046 -5.499981,-0.800045 3.399996,-5.199995 4.299968,-10.299936 2.39997,-13.399933 -0.2,0.2 -0.499879,0.300017 -0.799879,0.300017 -0.699999,0 -1.300074,-0.600075 -1.300074,-1.300074 0,-0.3 0.100017,-0.59988 0.300017,-0.799879 -2.999997,-1.799999 -8.200104,-0.900021 -13.400099,2.499976 -0.499999,-1.699998 -0.799879,-3.599983 -0.799879,-5.499981 0,-1.799998 0.29988,-3.699983 0.799879,-5.499981 5.199995,3.499996 10.300102,4.399974 13.400099,2.499976 -0.2,-0.2 -0.300017,-0.500046 -0.300017,-0.800046 0,-0.699999 0.600075,-1.300074 1.300074,-1.300074 0.3,0 0.599879,0.100018 0.799879,0.300018 1.899998,-2.999997 1.000026,-8.199938 -2.39997,-13.399933 1.799998,-0.5 3.699983,-0.800046 5.499981,-0.800046 z"
         style="fill:#437c6f;fill-opacity:1" />
      <g
         id="g23"
         style="fill:#437c6f;fill-opacity:1">
        <defs
           id="defs23">
          <path
             id="SVGID_45_"
             d="M 0,0 H 212.6 V 70 H 0 Z" />
        </defs>
        <clipPath
           id="SVGID_46_">
          <use
             xlink:href="#SVGID_45_"
             overflow="visible"
             id="use23" />
        </clipPath>
        <path
           class="st22"
           d="m 33.3,44.8 c 0,1.9 -1.5,3.5 -3.5,3.5 -1.9,0 -3.5,-1.6 -3.5,-3.5 0,-1.9 1.5,-3.5 3.5,-3.5 2,0 3.5,1.6 3.5,3.5"
           clip-path="url(#SVGID_46_)"
           id="path23"
           style="fill:#437c6f;fill-opacity:1" />
      </g>
      <g
         id="g24"
         style="fill:#437c6f;fill-opacity:1">
        <defs
           id="defs24">
          <path
             id="SVGID_47_"
             d="M 0,0 H 212.6 V 70 H 0 Z" />
        </defs>
        <clipPath
           id="SVGID_48_">
          <use
             xlink:href="#SVGID_47_"
             overflow="visible"
             id="use24" />
        </clipPath>
        <path
           class="st23"
           d="M 11.6,14.3 C 10.1,13.2 8.3,13.2 7.9,13.2 8.3,12.5 8.5,12.4 9.2,12 6.9,12 6.6,11.4 6.5,10.8 7.1,10.9 7.8,10.7 8.1,10.4 6.4,10.3 5.9,9.2 5.7,8.8 7,8.8 7,8.1 6.8,7.7 6.7,7.4 6.2,7.1 5.8,7.3 5.4,7.4 5,7.9 4.6,8 4.3,8 4.2,7.6 4.2,7.4 3.8,7.4 3.4,7.6 3.1,7.9 3.2,6.4 4.8,5.8 5.8,6 5.8,6 5.8,5.4 5.5,5.2 5.2,4.9 4.8,4.9 4.5,4.7 4.5,4.4 4.5,4.1 4.8,4 4.5,3.5 3.6,3.5 3.6,3.5 5.4,2.2 6.6,3.9 7,5.2 7.5,4.6 7.5,4.3 7.5,3.9 7.4,3.5 7.1,3.3 7.1,3.1 7.1,2.8 7.5,2.9 7.5,2.9 7.5,2.4 7.1,2 6.7,1.9 c 0,0 1.5,-0.1 2,1.4 0.5,1.4 -0.2,2.3 -0.2,2.3 0,0 0.5,0.1 0.8,-0.2 0.2,-0.3 0.1,-0.7 0.4,-0.9 0.3,-0.5 0.6,0 0.6,0 0.3,-0.3 0.1,-0.9 0,-1.1 0,0 0.8,0.5 0.7,1.4 -0.1,0.6 -0.7,1.1 -0.9,1.4 -0.2,0.3 -1,1 0.2,3.1 0.7,1.3 1.4,1.8 1.8,1.9 -0.3,0.4 -0.7,1.7 -0.5,3.1"
           clip-path="url(#SVGID_48_)"
           id="path24"
           style="fill:#437c6f;fill-opacity:1" />
      </g>
      <path
         class="st24"
         d="m 5.8,17 c -1.4,0.1 -3.9,0.7 -2.6,3.3 0,-0.6 0.2,-1.1 0.5,-1.3 0.1,0.4 0.4,0.5 0.6,0.3 0.2,-0.1 0.5,-0.6 0.7,-0.8 0.2,-0.2 0.6,-0.3 1,-0.1 -1.2,1.9 0.2,3.8 1.2,3.7 -0.6,-0.4 -0.6,-1 -0.6,-1.2 0,0 0.4,0.1 0.5,-0.2 C 7.2,20.5 7,20 7.2,19.5 c 0.1,-0.3 0.4,-0.4 0.6,-0.4 0.4,0.1 0.5,0.4 0.5,0.7 0,0.4 -0.2,0.7 -0.2,0.7 0.6,0.5 2.3,-0.1 3.4,-1 0,0.3 0,0.8 -0.3,1.2 0.9,0.2 2.5,-0.8 3,-1.7 0.1,0.4 0,1.3 -0.5,1.8 0.7,0.2 2.6,-0.4 4.1,-1.9 0.1,0.8 1.3,2 2.7,1.4 0,0 -0.6,-0.4 -0.6,-0.8 0,-0.8 0.9,-1.4 2,-1.9 1.3,-0.6 3.4,-0.8 5.5,-1.8 3.9,-1.9 4.6,-3.6 7.8,-3.6 1.4,0 2.8,0.3 3.5,1.5 0.7,1.2 0.5,2.5 1.3,3.3 0.8,0.8 2.2,0.2 2.9,0 1.9,-0.6 4.6,-1.7 6.3,-1.8 1.7,-0.1 2.1,1.1 2.1,1.2 0.1,0.4 0,0.6 -0.3,0.6 -0.6,0 -1.6,-0.3 -2.2,0 -0.8,0.5 -0.6,1.6 -0.6,1.6 0.2,-0.3 0.7,-0.9 1.3,-0.8 0,0 0.1,0.7 0.6,0.4 0.3,-0.2 0.7,-0.6 1.4,-0.5 -0.6,0.6 -1.9,2.8 -0.1,3.7 -0.3,-0.4 -0.3,-1.1 -0.1,-1.4 0,0 0.5,0.3 0.8,-0.1 0.1,-0.2 -0.1,-0.7 0.1,-1.2 0.1,-0.4 0.5,-0.6 0.5,-0.6 0.1,0.5 1,1.9 3.3,1.8 -0.5,-0.2 -0.8,-0.6 -0.9,-0.8 0.3,-0.2 0.4,-0.6 0.1,-0.7 -0.3,-0.1 -0.8,0 -1,-0.4 -0.3,-0.4 -0.2,-1 -0.2,-1 0.8,0.3 2.7,1.1 3.5,-0.6 -0.2,0.2 -0.9,0.4 -1.3,0.3 0,-0.2 -0.3,-0.8 -0.7,-0.8 -0.5,0 -0.9,0.1 -1.4,0.2 -0.4,0 -0.6,-0.1 -0.7,-0.3 -0.1,-0.2 0,-0.4 0.1,-0.5 0.2,-0.3 0.6,-0.4 0.6,-0.4 -0.3,-0.6 -1.3,-0.3 -1.5,-0.3 0,-0.3 0.4,-0.9 1,-1.2 -0.2,-0.4 -1,-0.8 -2.2,-0.6 0.1,-0.5 0.6,-1 0.9,-1.2 -0.6,-0.4 -2.2,-0.2 -3.5,0.8 0.1,-0.3 0,-1.2 -0.4,-1.6 0,0 -1.8,2.2 -3.5,2 -1.8,-0.3 -1.5,-2.4 -1.5,-2.4 0,0 3.5,0.5 5.1,-0.2 1.7,-0.8 1.7,-2 3.1,-2.7 C 52.7,6.9 54,7.4 54,7.4 53.8,6.2 51.6,5.3 49.9,7.1 c 0,0 0,-2.7 -4.2,-2.5 -1.5,0.1 -4.3,0.9 -6.9,1.4 -2.5,0.5 -6.2,0.7 -7.8,0.7 -1.6,0 -3.1,-0.3 -3.1,-1.4 0,-1.1 1.1,-1.2 1.9,-1.2 1.2,0 2.9,0.7 4.2,1.2 1,0.3 1.9,0.3 2.4,0.3 1.4,0 3.2,-0.7 4.1,-1.1 C 41.5,4.2 42.2,4 44,4.1 43.5,3.4 41.5,2.6 39.2,3.8 39,3.4 39.4,2.7 40.3,2.5 39.9,2.2 38.6,1.9 37,1.9 34.5,2 33.7,3.1 31.3,3 28.9,2.9 26.7,3.3 26.7,5.1 c 0,1.4 1.8,2.6 4.6,2.7 -0.1,0.2 -0.5,0.5 -0.6,0.6 1,0.2 2.4,0 4.3,-1.2 0,0.2 -0.1,0.7 -0.3,0.9 0.7,0 1.9,-0.3 3.4,-1.3 0,0.2 0,0.6 -0.4,0.9 1.8,-0.1 2.7,-1 3.9,-1.4 1.6,-0.5 6.7,-1.7 6.7,1.2 0,0.7 -0.3,1.7 -2.1,1.7 -1.8,0 -4.8,-0.8 -5.4,-0.9 -0.6,-0.1 -1.2,-0.2 -2.8,0 -1.4,0.2 -12.3,1.8 -14.1,2 0,0.6 0,2.4 1,3.2 -0.8,0.4 -1.6,0.6 -3,0 -0.1,0.5 0,1.8 0.7,2.6 -0.6,0.2 -1.7,0.5 -2.8,-0.2 -0.4,0.8 -1.6,2.9 -4.8,2.3 0.2,-0.2 0.8,-1.3 0.8,-1.5 -0.6,0.5 -2.3,1.4 -5.4,1 -0.9,-0.1 -1.9,-0.4 -2.2,-1 -0.3,-0.6 0.1,-1.6 -0.1,-2.1 -0.4,-1.1 -1.6,-1 -1.6,-1 0.1,0.1 0.6,0.4 0.6,0.8 0,0 -0.5,0 -0.5,0.5 0,0.7 0.2,1.5 0.2,1.5 C 5.5,15.1 3.3,13.7 2.6,16 c 0.3,-0.3 0.6,-0.5 1,-0.5 0,0 -0.3,0.4 0.3,0.8 0.2,0.2 0.8,0 1.1,0.1 0.5,0 0.8,0.6 0.8,0.6"
         clip-path="url(#SVGID_50_)"
         id="path25"
         style="fill:#437c6f;fill-opacity:1" />
      <g
         id="g26"
         style="fill:#437c6f;fill-opacity:1">
        <defs
           id="defs26">
          <path
             id="SVGID_51_"
             d="M 0,0 H 212.6 V 70 H 0 Z" />
        </defs>
        <clipPath
           id="SVGID_52_">
          <use
             xlink:href="#SVGID_51_"
             overflow="visible"
             id="use26" />
        </clipPath>
        <path
           class="st25"
           d="m 34.7,16.4 c 0.3,0.2 0.1,0.4 0,0.5 -0.1,0.1 -1.6,1.1 -2.5,0.8 -0.7,-0.2 -0.7,-1.5 -1.7,-1.9 -0.8,-0.3 -1.7,0.3 -1.7,0.3 0.3,0 0.8,0.2 0.9,0.2 0,0 -0.2,0.3 0.1,0.4 0.3,0.2 0.5,0.1 0.7,0.3 0.3,0.3 0,0.9 0,0.9 -2.1,-1.7 -4.1,-0.5 -4.2,0.5 0.2,-0.1 0.7,-0.4 1,-0.3 0,0 0,0.3 0.3,0.4 0.3,0.1 0.7,-0.2 1.1,-0.1 0.5,0.1 0.9,0.5 0.9,0.5 -0.7,0.1 -2.1,1.2 -1,2.9 0,-0.3 0,-0.7 0.2,-0.8 0,0 0.4,0.2 0.6,0 0.2,-0.2 0.3,-0.7 0.6,-1.1 0.3,-0.4 0.7,-0.4 0.7,-0.4 -0.2,0.9 0.7,2.8 2.2,2.4 -0.3,-0.2 -0.6,-0.6 -0.6,-0.8 0,0 0.4,-0.2 0.4,-0.4 -0.1,-0.4 -0.7,-0.3 -0.7,-0.8 0,-0.3 0.3,-0.5 0.7,-0.5 0.9,0 0.8,1.2 0.8,1.2 0.6,-0.1 1.5,-0.8 1.7,-1.5 0.3,0.2 0.5,1 0.4,1.5 0.8,-0.3 1.4,-0.9 1.4,-3 0.6,0.9 2.2,1.4 3.4,0.6 -1.5,-0.2 -1.8,-1.8 -1.9,-2.1 -0.1,-0.3 -0.2,-1.5 -0.9,-2.2 -1,-1 -3.2,-0.9 -4.5,-0.5 -0.3,0.1 -0.7,0.3 -0.7,1 0,0.6 0.1,1.2 1,1.6 0.8,0.1 1.1,0.3 1.3,0.4"
           clip-path="url(#SVGID_52_)"
           id="path26"
           style="fill:#437c6f;fill-opacity:1" />
      </g>
      <g
         id="g27"
         style="fill:#437c6f;fill-opacity:1">
        <defs
           id="defs27">
          <path
             id="SVGID_53_"
             d="M 0,0 H 212.6 V 70 H 0 Z" />
        </defs>
        <clipPath
           id="SVGID_54_">
          <use
             xlink:href="#SVGID_53_"
             overflow="visible"
             id="use27" />
        </clipPath>
        <path
           class="st26"
           d="M 25.4,5.6 C 25.4,5.5 25.5,5.2 25.2,5.1 24.7,5 23.7,5.1 23.7,5.1 24.2,4.6 24,3.2 23.4,2.8 23.3,3.4 22.7,3.8 22.2,3.6 21.5,3.4 21.8,2.4 22,2 21.5,2 20.5,2.1 19.8,3.2 19.6,1.8 18.2,1.5 17.8,1.5 18,2.1 17.6,3 17.1,2.9 17,1.9 16,1.5 16,2.2 c -0.1,1.1 -1.1,2.4 -2,2.5 -0.1,0.6 0.6,0.9 1,0.9 -1,1.5 -2.5,1.2 -3.3,0.9 0,0.6 0.6,1.8 1.8,1.8 -0.6,0.9 -1.9,1 -2.3,0.8 -0.2,0.9 1.3,1.7 1.7,1.8 -1.2,1.9 -0.8,4.2 -0.1,5.2 0,0 0.3,-0.7 0.6,-1 0.3,-0.3 0.5,-0.4 0.7,-0.2 0.3,0.1 0.2,0.6 0,0.9 -0.3,0.6 -0.9,1.2 -0.9,1.2 1.1,0.3 3.1,-0.9 3.3,-1.4 0.2,0.6 -0.2,1.6 -0.5,2.1 2.1,0.2 3.2,-1.6 3.6,-2.7 0.7,0.8 1.6,0.9 2.1,0.8 -0.7,-1.3 -0.4,-2.6 -0.1,-3.1 0.7,0.7 1.8,0.8 2.3,0.7 -0.7,-0.9 -0.7,-3.3 -0.5,-4.1 0.5,0.3 1.1,0.4 1.4,0.2 0,0 -0.4,-0.8 -0.3,-2 C 24.7,6.6 25.1,6 25.4,5.6 M 17.2,6.2 C 17.3,6.1 17.4,6 17.5,6.1 17.6,6.3 17.7,6.5 18,6.7 18.1,6.9 18.4,7 18.5,7 18.6,7.3 18.1,7.7 17.4,7.1 17.1,6.8 17,6.4 17.2,6.2 Z m 1.6,5.8 c -0.3,0.5 -1.3,1.3 -2,0.9 0.3,-0.1 1,-0.6 1.4,-1.3 -0.1,-0.1 -0.3,-0.2 -0.4,-0.3 -0.2,0.1 -0.6,0.5 -1,1 0,-0.3 0.2,-0.9 0.4,-1.3 -0.2,0 -0.5,-0.2 -0.6,-0.2 -0.3,0.7 -0.3,1.6 -0.2,1.9 C 15.8,12.4 15.7,11.1 16,10.6 15.2,10 15.5,9.4 15.7,9.2 c 0,0.2 0.2,0.7 0.9,1 0.7,0.4 1,0.1 1,0 C 17.7,9.9 17.4,9.7 17.2,9.4 17,9.1 16.9,8.7 17.1,8.5 c 0.2,-0.3 0.6,-0.2 0.7,-0.1 -0.8,0.2 0.2,1 0.4,1.2 0.3,0.1 1.6,0.4 1.2,-0.3 0.2,0.1 0.5,0.3 0.4,0.6 -0.1,0.2 -0.4,0.5 -0.8,0.4 -0.4,0 -0.8,-0.2 -0.9,0.1 -0.1,0.2 -0.1,0.5 0.6,0.9 0.7,0.3 1.2,0.2 1.4,0.1 0,0.3 -0.4,0.9 -1.3,0.6 z M 21.5,8.4 C 21.4,8.7 21.1,8.8 20.6,8.7 19.7,8.5 19.7,7.9 20,7.8 c 0.1,0.1 0.4,0.3 0.6,0.3 0.4,0.1 0.5,0 0.8,0 0.2,0 0.2,0.2 0.1,0.3 z"
           clip-path="url(#SVGID_54_)"
           id="path27"
           style="fill:#437c6f;fill-opacity:1" />
      </g>
    </g>
  </g>
</svg>
